<?xml version="1.0" encoding="utf-8"?>
<!-- Generator: Adobe Illustrator 22.1.0, SVG Export Plug-In . SVG Version: 6.00 Build 0)  -->
<svg version="1.1" id="Layer_1" xmlns="http://www.w3.org/2000/svg" xmlns:xlink="http://www.w3.org/1999/xlink" x="0px" y="0px"
	 viewBox="0 0 512 512" style="enable-background:new 0 0 512 512;" xml:space="preserve">
<style type="text/css">
	.st0{fill:url(#SVGID_1_);stroke:url(#SVGID_2_);stroke-miterlimit:10;}
	.st1{fill:#FFFFFF;}
	.st2{font-family:'Sansation-Regular';}
	.st3{font-size:60px;}
</style>
<linearGradient id="SVGID_1_" gradientUnits="userSpaceOnUse" x1="9.701195e-02" y1="256" x2="512.0966" y2="256">
	<stop  offset="0" style="stop-color:#3A7BD5"/>
	<stop  offset="1" style="stop-color:#3A6073"/>
</linearGradient>
<linearGradient id="SVGID_2_" gradientUnits="userSpaceOnUse" x1="-0.403" y1="256" x2="512.5966" y2="256">
	<stop  offset="0" style="stop-color:#FFFFFF"/>
	<stop  offset="1" style="stop-color:#000000"/>
</linearGradient>
<rect x="0.1" y="0" class="st0" width="512" height="512"/>
<g>
	<g>
		<g>
			<path class="st1" d="M426.1,227.3c-0.1-0.1-55.7-147.4-55.9-147.8c-4.9-9.5-14.7-15.4-25.4-15.4H167.3
				c-10.7,0-20.4,5.9-25.4,15.4C141.7,79.9,86,227.2,86,227.3c-1.1,3-1.8,6.4-1.8,9.7v65.2c0,15.8,12.9,28.6,28.6,28.6h286.4
				c15.8,0,28.6-12.9,28.6-28.6v-65.2C427.9,233.6,427.3,230.4,426.1,227.3z M130.7,162.7h27.7c5.3,0,9.5-4.3,9.5-9.5
				s-4.3-9.5-9.5-9.5H138l7.2-19.1h41.9c5.3,0,9.5-4.3,9.5-9.5s-4.3-9.5-9.5-9.5h-34.6L159,88c1.7-2.9,4.8-4.7,8.3-4.7h177.6
				c3.4,0,6.5,1.8,8.3,4.7l45.5,120.4H113.5L130.7,162.7z M399.3,311.8H112.8c-5.3,0-9.5-4.3-9.5-9.5v-65.2c0-5.3,4.3-9.5,9.5-9.5
				h286.4c5.3,0,9.5,4.3,9.5,9.5v65.2h0.1C408.8,307.6,404.5,311.8,399.3,311.8z"/>
		</g>
	</g>
	<g>
		<g>
			<path class="st1" d="M271.6,260.1H129.7c-5.3,0-9.5,4.3-9.5,9.5c0,5.3,4.3,9.5,9.5,9.5h141.9c5.3,0,9.5-4.3,9.5-9.5
				C281.1,264.4,276.9,260.1,271.6,260.1z"/>
		</g>
	</g>
	<g>
		<g>
			<path class="st1" d="M382.3,260.1h-14.6c-5.3,0-9.5,4.3-9.5,9.5c0,5.3,4.3,9.5,9.5,9.5h14.6c5.3,0,9.5-4.3,9.5-9.5
				C391.9,264.4,387.6,260.1,382.3,260.1z"/>
		</g>
	</g>
	<g>
		<g>
			<path class="st1" d="M325,260.1h-14.6c-5.3,0-9.5,4.3-9.5,9.5c0,5.3,4.3,9.5,9.5,9.5H325c5.3,0,9.5-4.3,9.5-9.5
				C334.6,264.4,330.3,260.1,325,260.1z"/>
		</g>
	</g>
</g>
<text transform="matrix(1 0 0 1 77.8457 435)" class="st1 st2 st3">DISK USAGE</text>
</svg>
