<?xml version="1.0" encoding="utf-8"?>
<!-- Generator: Adobe Illustrator 22.1.0, SVG Export Plug-In . SVG Version: 6.00 Build 0)  -->
<svg version="1.1" id="Layer_1" xmlns="http://www.w3.org/2000/svg" xmlns:xlink="http://www.w3.org/1999/xlink" x="0px" y="0px"
	 viewBox="0 0 1000 1000" style="enable-background:new 0 0 1000 1000;" xml:space="preserve">
<style type="text/css">
	.st0{fill:#F6A31A;}
	.st1{fill:#F1801F;}
	.st2{fill:#FFFFFF;}
</style>
<ellipse transform="matrix(0.7071 -0.7071 0.7071 0.7071 -206.7758 500.0298)" class="st0" cx="500.2" cy="499.6" rx="499.8" ry="499.8"/>
<path class="st1" d="M1000,499.6c0-21.6-1.4-42.9-4-63.8h-3.6l-1.2-6.9h-5.7l-1.2-6.9h-5.7l-1.2-6.9h-5.7l-1.2-6.9h-5.7l-1.2-6.9
	h-5.7l-1.2-6.9H951l-1.2-6.9h-5.7l-1.2-6.9h-5.7l-1.2-6.9h-5.7l-1.2-6.9h-5.7l-1.2-6.9h-5.7l-1.2-6.9h-5.7l-1.2-6.9h-5.7l-1.2-6.9
	h-5.7l-1.2-6.9H889l-1.2-6.9h-5.7l-1.2-6.9h-5.7l-1.2-6.9h-5.7l-1.2-6.9h-5.7l-1.2-6.9h-5.7l-1.2-6.9h-5.7l-1.2-6.9h-5.7l-1.2-6.9
	h-5.7l-1.2-6.9H827l-1.2-6.9h-5.7l-1.2-6.9h-5.7l-1.2-6.9h-5.7l-1.2-6.9h-5.7l-1.2-6.9h-5.7l-1.2-6.9h-5.7l-1.2-6.9h-5.7l-1.2-6.9
	h-5.7l-1.2-6.9H765l-1.2-6.9h-5.7l-1.2-6.9h-5.7l-1.2-6.9h-5.7l-1.2-6.9h-5.7l-1.2-6.9H254.6l-68.8,503.9c2.8-3.5,5.9-6.8,9.2-9.9
	l-2.3,16.8c2.8-3.5,5.9-6.8,9.2-9.9l-1.1,8.4c-12.7,14-20.5,32.6-20.5,52.9c0,23.4,10.3,44.5,26.6,58.9c2.2,2.4,4.5,4.7,6.9,6.9
	c2.2,2.4,4.5,4.7,6.9,6.9c2.2,2.4,4.5,4.7,6.9,6.9c2.2,2.4,4.5,4.7,6.9,6.9c2.2,2.4,4.5,4.7,6.9,6.9c2.2,2.4,4.5,4.7,6.9,6.9
	c2.2,2.4,4.5,4.7,6.9,6.9c2.2,2.4,4.5,4.7,6.9,6.9c2.2,2.4,4.5,4.7,6.9,6.9c2.2,2.4,4.5,4.7,6.9,6.9c2.2,2.4,4.5,4.7,6.9,6.9
	c2.2,2.4,4.5,4.7,6.9,6.9c2.2,2.4,4.5,4.7,6.9,6.9c2.2,2.4,4.5,4.7,6.9,6.9c2.2,2.4,4.5,4.7,6.9,6.9c2.2,2.4,4.5,4.7,6.9,6.9
	c2.2,2.4,4.5,4.7,6.9,6.9c2.2,2.4,4.5,4.7,6.9,6.9c2.2,2.4,4.5,4.7,6.9,6.9c2.2,2.4,4.5,4.7,6.9,6.9c2.2,2.4,4.5,4.7,6.9,6.9
	c2.2,2.4,4.5,4.7,6.9,6.9c2.2,2.4,4.5,4.7,6.9,6.9c2.2,2.4,4.5,4.7,6.9,6.9c2.2,2.4,4.5,4.7,6.9,6.9c2.2,2.4,4.5,4.7,6.9,6.9
	c2.2,2.4,4.5,4.7,6.9,6.9c2.2,2.4,4.5,4.7,6.9,6.9c0.5,0.5,1,1,1.5,1.6c32,6.4,65.1,9.8,99,9.8C776.2,999.4,1000,775.6,1000,499.6z"
	/>
<g>
	<path class="st2" d="M258.8,642.6h493.6c28.4,0,53.9,12.8,71.1,32.9L736.2,174H254.6l-68.8,503.9
		C202.9,656.4,229.3,642.6,258.8,642.6z M373.4,415.3c1.2-2.8,3.9-4.6,6.9-4.6H447V252.6c0-4.1,3.3-7.5,7.5-7.5h102.4
		c4.1,0,7.5,3.3,7.5,7.5v158.2H631c3,0,5.7,1.8,6.9,4.6c1.2,2.8,0.6,5.9-1.5,8.1L511,552c-1.4,1.4-3.3,2.3-5.3,2.3
		c-2,0-3.9-0.8-5.3-2.3L374.9,423.4C372.8,421.3,372.2,418.1,373.4,415.3z"/>
	<path class="st2" d="M613.3,425.7h-56.5c-4.1,0-7.5-3.3-7.5-7.5V260h-87.5v158.2c0,4.1-3.3,7.5-7.5,7.5h-56.5l107.7,110.4
		L613.3,425.7z"/>
	<path class="st2" d="M258.8,814.9h493.6c43.4,0,78.7-35.3,78.7-78.7c0-43.4-35.3-78.7-78.7-78.7H258.8c-43.4,0-78.7,35.3-78.7,78.7
		C180.2,779.6,215.4,814.9,258.8,814.9z"/>
</g>
</svg>
