<svg width="144" height="60" viewBox="0 0 144 60" fill="none" xmlns="http://www.w3.org/2000/svg">
<g clip-path="url(#clip0)">
<path d="M42.7053 18.4863C42.657 18.3253 42.6087 18.1804 42.5282 18.0676C42.5604 18.2126 42.6248 18.3575 42.7053 18.4863Z" fill="#4C025E"/>
<path d="M18.8245 52.19L19.5491 52.657C19.3237 52.351 19.066 52.2383 18.8245 52.19Z" fill="#4C025E"/>
<path d="M4.57329 6.87601C4.52498 8.18036 4.38006 8.56683 4.31564 8.79227C4.29954 8.85668 4.28344 8.88889 4.26733 8.9372V8.9533C4.26733 9.00161 4.26733 9.09823 4.33175 9.37198C4.49278 10.0483 5.44286 10.3704 7.2303 10.3704C7.61677 10.3704 7.90662 10.3221 8.06765 10.2254L8.21258 10.1449L8.22868 9.9678C8.26089 9.75846 8.16427 9.4686 7.97104 8.96941L7.95493 8.9372C7.87442 8.72786 7.7939 8.51852 7.74559 8.30918C7.64897 7.92271 7.69728 7.56844 7.92273 7.27859C8.48633 6.55395 9.9034 6.52174 10.0644 6.52174C10.2255 6.52174 11.6586 6.53784 12.2222 7.27859C12.4477 7.56844 12.496 7.9066 12.3994 8.30918C12.335 8.53462 12.2544 8.76007 12.1739 8.96941C11.9807 9.4686 11.9002 9.75846 11.9163 9.9678L11.9324 10.1449L12.0773 10.2254C12.2544 10.3221 12.5282 10.3704 12.9308 10.3704C14.7182 10.3704 15.6683 10.0483 15.8293 9.37198C15.8937 9.13044 15.8937 9.03382 15.8937 9.00161V8.9372C15.8937 8.9211 15.8776 8.85668 15.8454 8.79227C15.781 8.59904 15.6361 8.19646 15.5878 6.89211C15.5556 6.07086 15.6683 5.53945 15.9581 5.2496C16.1353 5.05636 16.3929 4.95974 16.6828 4.95974C17.0532 4.95974 17.4557 5.10467 17.81 5.2335L17.8422 5.2496C18.1643 5.37842 18.438 5.45894 18.6474 5.47504H18.8406L18.9533 5.37842C19.5491 4.81482 19.4525 3.60709 19.4364 3.59098V3.55878C19.4203 3.18841 19.3398 2.51208 18.9372 2.14171L18.8245 2.04509H18.6796C18.4863 2.06119 18.2126 2.15781 17.8744 2.27053L17.8422 2.28664C17.4879 2.41546 17.0854 2.56039 16.715 2.56039C16.409 2.56039 16.1675 2.46377 15.9904 2.27053C15.7005 1.96457 15.5717 1.44928 15.6039 0.644123C15.6039 0.483092 15.62 0.322062 15.6361 0.193237C11.24 0.805154 7.35912 2.99517 4.55719 6.16747C4.57329 6.37681 4.57329 6.60226 4.57329 6.87601Z" fill="#4C025E"/>
<path d="M29.6779 2.27054C29.5491 2.39937 29.3237 2.5604 28.9533 2.5604C28.5829 2.5604 28.1804 2.41547 27.8261 2.28665L27.7778 2.27054C27.5201 2.17393 27.2142 2.0612 26.9887 2.0451L26.8438 2.029L26.7311 2.12562C26.3285 2.49599 26.248 3.15621 26.2319 3.54269V3.59099C26.2319 3.6071 26.1192 4.81483 26.715 5.37843L26.8277 5.47505L26.9726 5.45895C27.1659 5.44285 27.4396 5.34623 27.7778 5.23351L27.81 5.2174C28.1643 5.08858 28.5668 4.94365 28.9372 4.94365C29.3076 4.94365 29.533 5.10468 29.6618 5.23351C29.9517 5.53946 30.0805 6.05476 30.0483 6.87602C30 8.11595 29.8712 8.51853 29.7907 8.76008C29.7585 8.8567 29.7585 8.8889 29.7424 8.92111C29.7424 8.96942 29.7424 9.06603 29.8068 9.35589C29.9678 10.0322 30.9179 10.3543 32.7053 10.3543C33.0918 10.3543 33.3816 10.306 33.5588 10.2094L33.7037 10.1288L33.7198 9.9517C33.752 9.74236 33.6554 9.45251 33.4622 8.95331C33.3816 8.74397 33.3011 8.51853 33.2367 8.29309C33.124 7.90661 33.1884 7.55235 33.4139 7.26249C33.9775 6.53785 35.3945 6.50565 35.5556 6.50565C35.7166 6.50565 37.1498 6.52175 37.7134 7.26249C37.9388 7.55235 37.9871 7.89051 37.8905 8.29309C37.8261 8.51853 37.7456 8.72787 37.6651 8.95331C37.4718 9.45251 37.3913 9.74236 37.4074 9.9517L37.4235 10.1288L37.5684 10.2094C37.7456 10.306 38.0193 10.3543 38.4058 10.3543C40.0161 10.3543 40.9501 10.0805 41.24 9.53302C41.0467 9.17876 40.8535 8.84059 40.6441 8.50243C38.9694 5.81322 36.5701 3.59099 33.7198 2.09341C32.5604 1.48149 31.3366 0.998402 30.0483 0.644135C30.0805 1.44929 29.9678 1.96459 29.6779 2.27054Z" fill="#4C025E"/>
<path d="M16.3607 1.73912L16.4574 1.90015L16.6345 1.91625C16.6506 1.91625 16.6667 1.91625 16.6828 1.91625C16.9405 1.91625 17.2786 1.78743 17.6329 1.65861C17.8422 1.57809 18.0677 1.49757 18.277 1.43316C18.4058 1.40096 18.5186 1.38485 18.6313 1.38485C19.05 1.38485 19.6297 1.6103 19.9034 2.64089C20.0483 3.1884 20.0483 3.7359 20.0483 3.752C20.0483 3.84862 20.0322 6.11915 18.6313 6.13525C18.5186 6.13525 18.3897 6.11915 18.277 6.08695C18.0516 6.02253 17.8261 5.94202 17.6168 5.8615C17.2142 5.71658 16.9083 5.60385 16.6828 5.60385C16.6667 5.60385 16.6506 5.60385 16.6345 5.60385L16.4574 5.61996L16.3607 5.78099C16.2641 5.94202 16.2158 6.23187 16.2158 6.61835C16.2158 8.40579 16.5379 9.35587 17.2142 9.5169C17.4558 9.58131 17.5524 9.58131 17.6007 9.58131H17.649C17.6973 9.58131 17.7295 9.56521 17.81 9.533C18.0516 9.45249 18.4702 9.32366 19.6941 9.27535C19.7746 9.27535 19.8551 9.27535 19.9356 9.27535C20.7086 9.27535 21.1917 9.45249 21.4493 9.80675C21.7875 10.3059 21.5459 10.9662 21.3366 11.5459C21.2078 11.8679 21.1112 12.1578 21.1112 12.351V12.496L21.2078 12.6087C21.6264 13.0596 22.4316 13.1079 22.7537 13.1079C22.8986 13.1079 22.9952 13.0918 22.9952 13.0918H23.0274C23.3978 13.0757 24.0741 12.9952 24.4606 12.5926L24.5572 12.4799V12.3349C24.5411 12.1417 24.4445 11.8679 24.3318 11.5298C24.1224 10.9501 23.8648 10.2737 24.219 9.79065C24.4606 9.43638 24.9598 9.25925 25.7327 9.25925C25.8132 9.25925 25.8938 9.25925 25.9743 9.25925C27.182 9.30756 27.6007 9.43638 27.8583 9.533C27.9388 9.56521 27.9711 9.56521 28.0194 9.58131H28.0677C28.116 9.58131 28.2126 9.58131 28.4541 9.5169C29.1305 9.35587 29.4525 8.40579 29.4525 6.61835C29.4525 6.23187 29.4042 5.94202 29.3076 5.78099L29.211 5.61996L29.0178 5.60385C29.0017 5.60385 29.0017 5.60385 28.9855 5.60385C28.744 5.60385 28.4541 5.71658 28.0516 5.8615C27.8422 5.94202 27.6168 6.02253 27.3913 6.08695C27.2625 6.11915 27.1498 6.13525 27.0371 6.13525C26.6184 6.13525 26.0709 5.92592 25.781 4.94363C25.62 4.38002 25.62 3.80031 25.62 3.78421C25.62 3.68759 25.6361 1.41706 27.0371 1.41706C27.1498 1.41706 27.2786 1.43316 27.3913 1.46537C27.6007 1.52978 27.8261 1.6103 28.0516 1.69081C28.3897 1.81964 28.744 1.94846 28.9855 1.94846C29.0017 1.94846 29.0178 1.94846 29.0339 1.94846L29.211 1.93236L29.3076 1.77133C29.4042 1.59419 29.4525 1.32044 29.4525 0.933967C29.4525 0.78904 29.4525 0.644112 29.4525 0.515288C28.0999 0.193227 26.6989 0.032196 25.2657 0.032196H24.6538H18.2126C17.5524 0.032196 16.8921 0.0644022 16.248 0.144917C16.2319 0.386463 16.2158 0.644112 16.2158 0.933967C16.2158 1.28823 16.2641 1.57809 16.3607 1.73912Z" fill="#4C025E"/>
<path d="M2.51213 9.58132H2.56044C2.60875 9.58132 2.70537 9.58132 2.94692 9.51691C3.59104 9.35588 3.9131 8.48632 3.94531 6.87601C3.30118 7.69726 2.70537 8.56683 2.20618 9.50081C2.25449 9.51691 2.3028 9.53302 2.3511 9.54912C2.43162 9.56522 2.47993 9.58132 2.51213 9.58132Z" fill="#4C025E"/>
<path d="M3.12399 22.0129C3.18841 21.7713 3.18841 21.6747 3.18841 21.6264V21.562C3.18841 21.5298 3.1723 21.4976 3.1401 21.4171C3.07568 21.2077 2.93076 20.8051 2.88245 19.5169C2.85024 18.6956 2.96296 18.1642 3.25282 17.8744C3.38164 17.7456 3.60709 17.5845 3.97746 17.5845C4.34783 17.5845 4.7504 17.7295 5.10467 17.8583H5.12077C5.44283 17.9871 5.71659 18.0676 5.92593 18.0837L6.07085 18.0998L6.18358 18.0032C6.77939 17.4396 6.68277 16.2319 6.66667 16.2158V16.1836C6.65056 15.8132 6.57005 15.1369 6.16747 14.7665L6.05475 14.6699H5.90982C5.71659 14.686 5.45894 14.7665 5.08857 14.8953L5.05636 14.9114C4.70209 15.0402 4.29952 15.1852 3.92915 15.1852C3.62319 15.1852 3.38164 15.0886 3.20451 14.8953C2.91465 14.5894 2.80193 14.0741 2.83414 13.2689C2.88245 11.9646 3.02738 11.5781 3.09179 11.3526C3.12399 11.2721 3.12399 11.2399 3.1401 11.2077V11.1755C3.1401 11.1272 3.1401 11.0306 3.07568 10.7729C2.97907 10.3704 2.59259 10.0966 1.93237 9.93558C0.708535 12.4316 0 15.2335 0 18.2126C0 19.8712 0.225443 21.4815 0.644122 23.0113C2.15781 22.963 2.97907 22.6409 3.12399 22.0129Z" fill="#4C025E"/>
<path d="M16.5701 18.438L16.4895 18.277L16.3124 18.2609C16.2963 18.2609 16.2802 18.2609 16.248 18.2609C16.0226 18.2609 15.7166 18.3736 15.314 18.5185C15.1047 18.599 14.8792 18.6795 14.6538 18.744C14.525 18.7762 14.4122 18.7923 14.2995 18.7923C13.8808 18.7923 13.3333 18.5829 13.0435 17.6006C12.8825 17.0531 12.8825 16.5056 12.8825 16.4412C12.8825 16.3446 12.8986 14.0741 14.2995 14.0741C14.4122 14.0741 14.5411 14.0902 14.6538 14.1224C14.8792 14.1868 15.1047 14.2673 15.314 14.3478C15.6522 14.4766 15.9903 14.6055 16.248 14.6055C16.2641 14.6055 16.2802 14.6055 16.2963 14.6055L16.4734 14.5894L16.5701 14.4283C16.6667 14.2512 16.715 13.9775 16.715 13.591C16.715 11.8035 16.3929 10.8535 15.7166 10.6924C15.475 10.628 15.3784 10.628 15.3301 10.628H15.2818C15.2496 10.628 15.2013 10.6441 15.1208 10.6763C14.8792 10.7568 14.4606 10.8857 13.2367 10.934C13.1562 10.934 13.0596 10.934 12.9952 10.934C12.2222 10.934 11.7391 10.7568 11.4815 10.4026C11.1433 9.90337 11.3849 9.24315 11.5942 8.66344C11.7069 8.34138 11.8197 8.05152 11.8197 7.85828V7.71336L11.723 7.60064C11.3527 7.19806 10.6924 7.11754 10.306 7.10144H10.2416C10.2093 7.10144 10.1288 7.10144 10.0161 7.10144C9.69405 7.10144 8.8889 7.14975 8.47022 7.60064L8.3736 7.68115V7.82608C8.3736 8.00321 8.47022 8.24476 8.59904 8.63123C8.80838 9.21094 9.06603 9.88727 8.71177 10.3704C8.47022 10.7246 7.97102 10.9018 7.19808 10.9018C7.11756 10.9018 7.03705 10.9018 6.95653 10.9018C5.7327 10.8535 5.31402 10.7246 5.07247 10.6441C4.99196 10.6119 4.94365 10.6119 4.89534 10.5958H4.86313C4.81483 10.5958 4.71821 10.5958 4.47666 10.6602C3.80033 10.8212 3.47827 11.7713 3.47827 13.5588C3.47827 13.9452 3.52658 14.2351 3.6232 14.3961L3.71982 14.5572L3.91305 14.5733C3.92916 14.5733 3.94526 14.5733 3.96136 14.5733C4.18681 14.5733 4.49276 14.4605 4.89534 14.3156H4.91144C5.12078 14.2351 5.34623 14.1546 5.55557 14.1063C5.68439 14.0741 5.79711 14.058 5.90983 14.058C6.32851 14.058 6.89212 14.2834 7.18197 15.314C7.3269 15.8615 7.3269 16.4251 7.3269 16.4251C7.3269 16.5217 7.3108 18.8084 5.90983 18.8084C5.79711 18.8084 5.66829 18.7923 5.55557 18.7601C5.33012 18.6956 5.12078 18.6151 4.89534 18.5346C4.55718 18.4058 4.21901 18.277 3.96136 18.277C3.94526 18.277 3.92916 18.277 3.91305 18.277L3.71982 18.2931L3.6232 18.4541C3.52658 18.6151 3.47827 18.905 3.47827 19.2915C3.47827 21.0789 3.80033 22.029 4.47666 22.19C4.71821 22.2544 4.81483 22.2544 4.86313 22.2544H4.91144C4.95975 22.2544 4.99196 22.2383 5.07247 22.2061C5.31402 22.1256 5.7327 21.9968 6.95653 21.9485C7.03705 21.9485 7.13367 21.9485 7.19808 21.9485C7.97102 21.9485 8.45412 22.1256 8.71177 22.4799C9.04993 22.9791 8.80838 23.6393 8.59904 24.219C8.48632 24.5411 8.3736 24.8309 8.3736 25.0242V25.1691L8.47022 25.2818C8.8889 25.7327 9.69405 25.781 10.0161 25.781C10.1288 25.781 10.2093 25.781 10.2416 25.781H10.2899C10.6602 25.7649 11.3366 25.6844 11.7069 25.2818L11.8036 25.1691V25.0242C11.8036 24.847 11.7069 24.5894 11.5781 24.219C11.3688 23.6393 11.1111 22.963 11.4654 22.4799C11.7069 22.1256 12.2061 21.9485 12.9791 21.9485C13.0596 21.9485 13.1401 21.9485 13.2206 21.9485C14.4445 21.9968 14.8631 22.1256 15.1047 22.2061C15.1852 22.2383 15.2335 22.2544 15.2818 22.2544H15.314C15.3623 22.2544 15.4589 22.2544 15.7005 22.19C16.3768 22.029 16.6989 21.0789 16.6989 19.2915C16.715 18.8889 16.6667 18.599 16.5701 18.438Z" fill="#4C025E"/>
<path d="M29.2753 14.5572L29.4686 14.5733C29.4847 14.5733 29.5008 14.5733 29.5008 14.5733C29.7262 14.5733 30.0322 14.4605 30.4348 14.3156L30.467 14.2995C30.6763 14.219 30.8856 14.1385 31.095 14.0902C31.2238 14.058 31.3365 14.0419 31.4493 14.0419C31.8679 14.0419 32.4315 14.2673 32.7214 15.2979C32.8663 15.8454 32.8663 16.409 32.8663 16.409C32.8663 16.5056 32.8502 18.7923 31.4493 18.7923C31.3365 18.7923 31.2077 18.7762 31.095 18.744C30.8695 18.6795 30.6441 18.599 30.4348 18.5185C30.0966 18.3897 29.7584 18.2609 29.5008 18.2609C29.4847 18.2609 29.4686 18.2609 29.4525 18.2609L29.2592 18.277L29.1626 18.438C29.066 18.599 29.0177 18.8889 29.0177 19.2754C29.0177 21.0628 29.3397 22.0129 30.0161 22.1739C30.2576 22.2383 30.3542 22.2383 30.4026 22.2383H30.4509C30.4992 22.2383 30.5314 22.2222 30.6119 22.19C30.8534 22.1095 31.2721 21.9807 32.496 21.9324C32.5765 21.9324 32.6731 21.9324 32.7375 21.9324C33.5104 21.9324 33.9935 22.1095 34.2512 22.4638C34.5893 22.963 34.3478 23.6232 34.1385 24.2029C34.0257 24.525 33.913 24.8148 33.913 25.0081V25.153L34.0096 25.2657C34.4283 25.7166 35.2335 25.7649 35.5555 25.7649C35.6683 25.7649 35.7488 25.7649 35.781 25.7649H35.8293C36.1997 25.7488 36.876 25.6683 37.2464 25.2657L37.343 25.153V25.0081C37.343 24.8309 37.2464 24.5894 37.1175 24.2029C36.9082 23.6232 36.6505 22.9469 37.0048 22.4638C37.2464 22.1095 37.7455 21.9324 38.5185 21.9324C38.599 21.9324 38.6795 21.9324 38.76 21.9324C39.9839 21.9807 40.4026 22.1095 40.6441 22.19C40.7246 22.2222 40.7729 22.2383 40.8212 22.2383H40.8534C40.9017 22.2383 40.9984 22.2383 41.2399 22.1739C41.9162 22.0129 42.2383 21.0628 42.2383 19.2754C42.2383 18.8889 42.19 18.599 42.0934 18.438L42.0129 18.277L41.8357 18.2609C41.8196 18.2609 41.8035 18.2609 41.7713 18.2609C41.5459 18.2609 41.2399 18.3736 40.8373 18.5185C40.628 18.599 40.4026 18.6795 40.1771 18.744C40.0483 18.7762 39.9356 18.7923 39.8228 18.7923C39.4042 18.7923 38.8567 18.5829 38.5668 17.6006C38.4058 17.0531 38.4058 16.5056 38.4058 16.4412C38.4058 16.3446 38.4219 14.0741 39.8228 14.0741C39.9356 14.0741 40.0644 14.0902 40.1771 14.1224C40.4026 14.1868 40.628 14.2673 40.8373 14.3478C41.1755 14.4766 41.5137 14.6055 41.7713 14.6055C41.7874 14.6055 41.8035 14.6055 41.8196 14.6055L41.9968 14.5894L42.0934 14.4283C42.19 14.2512 42.2383 13.9775 42.2383 13.591C42.2383 11.8035 41.9162 10.8535 41.2399 10.6924C40.9984 10.628 40.9017 10.628 40.8534 10.628H40.8051C40.7729 10.628 40.7246 10.6441 40.6441 10.6763C40.4026 10.7568 39.9839 10.8857 38.76 10.934C38.6795 10.934 38.5829 10.934 38.5185 10.934C37.7455 10.934 37.2625 10.7568 37.0048 10.4026C36.6666 9.90337 36.9082 9.24315 37.1175 8.66344C37.2625 8.29307 37.343 8.03542 37.343 7.85828V7.71336L37.2464 7.60064C36.876 7.19806 36.2158 7.11754 35.8293 7.10144H35.7649C35.7327 7.10144 35.6521 7.10144 35.5394 7.10144C35.2174 7.10144 34.4122 7.14975 33.9935 7.60064L33.8969 7.71336V7.85828C33.8969 8.03542 33.9935 8.27696 34.1224 8.66344C34.3317 9.24315 34.5893 9.91948 34.2351 10.4026C33.9935 10.7568 33.4943 10.934 32.7214 10.934C32.6409 10.934 32.5604 10.934 32.4798 10.934C31.256 10.8857 30.8373 10.7568 30.5958 10.6763C30.5153 10.6441 30.467 10.6441 30.4187 10.628H30.3864C30.3381 10.628 30.2415 10.628 30 10.6924C29.3236 10.8535 29.0016 11.8035 29.0016 13.591C29.0016 13.9775 29.0499 14.2673 29.1465 14.4283L29.2753 14.5572Z" fill="#4C025E"/>
<path d="M43.446 19.0499C43.2528 18.9211 43.0595 18.8084 42.8502 18.6956C42.8019 18.6312 42.7536 18.5668 42.7053 18.4863C42.7697 18.76 42.8019 19.1143 42.7858 19.533C42.7375 20.7568 42.6086 21.1755 42.512 21.4171C42.4798 21.4976 42.4798 21.5298 42.4637 21.5781C42.4637 21.6425 42.4476 21.723 42.5281 22.0129C42.6892 22.6892 43.6392 23.0113 45.4267 23.0113C45.8132 23.0113 46.103 22.9629 46.264 22.8663L46.4251 22.7858L46.4412 22.6087C46.4734 22.3993 46.3768 22.1095 46.1835 21.6103V21.5942C46.103 21.3848 46.0386 21.1755 45.9742 20.9823C45.2334 20.3059 44.4283 19.6779 43.5748 19.1304C43.5426 19.1143 43.4943 19.0821 43.446 19.0499Z" fill="#4C025E"/>
<path d="M42.3993 14.9275C42.2705 15.0563 42.045 15.2174 41.6747 15.2174C41.3043 15.2174 40.9017 15.0724 40.5475 14.9436H40.5314C40.2093 14.8148 39.9355 14.7343 39.7423 14.7182L39.5974 14.7021L39.4847 14.7987C39.0821 15.1691 39.0016 15.8293 38.9855 16.1997V16.248C38.9855 16.2641 38.8727 17.4718 39.4847 18.0354L39.5974 18.132L39.7423 18.1159C39.9355 18.0998 40.1932 18.0193 40.5314 17.8905L40.5636 17.8744C40.9017 17.7455 41.3204 17.6006 41.6908 17.6006C41.9967 17.6006 42.2383 17.6972 42.4154 17.8905C42.4637 17.9388 42.512 18.0032 42.5442 18.0676C42.5281 17.9871 42.512 17.8905 42.512 17.7939C42.512 17.7616 42.512 17.7455 42.512 17.7133C42.512 17.1014 42.8824 16.5861 43.3977 16.3607C43.285 15.314 43.0917 14.2834 42.818 13.285C42.818 14.1063 42.7053 14.6216 42.3993 14.9275Z" fill="#4C025E"/>
<path d="M8.24479 35.3623C8.27699 35.1691 8.18037 34.8631 7.98714 34.3639L7.97103 34.3317C7.89052 34.1224 7.81 33.913 7.76169 33.7037C7.66507 33.3172 7.71338 32.9629 7.93883 32.6731C8.50243 31.9485 9.9195 31.9163 10.0805 31.9163C10.2416 31.9163 11.6747 31.9324 12.2383 32.6731C12.4638 32.9629 12.5121 33.3011 12.4155 33.7037C12.3511 33.9291 12.2705 34.1546 12.19 34.3639C11.9968 34.8631 11.9163 35.153 11.9324 35.3623L11.9485 35.5394L12.0934 35.62C12.2544 35.7166 12.5443 35.7649 12.9469 35.7649C14.7343 35.7649 15.6844 35.4428 15.8454 34.7665C15.9098 34.4927 15.9098 34.4122 15.9098 34.3961V34.3317C15.9098 34.3156 15.8937 34.2512 15.8615 34.1868C15.7971 33.9935 15.6522 33.591 15.6039 32.2866C15.5717 31.4654 15.6844 30.934 15.9743 30.6441C16.1514 30.4509 16.409 30.3543 16.6989 30.3543C17.0693 30.3543 17.4718 30.4992 17.8261 30.628L17.8583 30.6441C18.1321 30.7407 18.438 30.8534 18.6635 30.8695L18.8084 30.8857L18.9211 30.789C19.5169 30.2254 19.4203 29.0177 19.4042 29.0016V28.9694C19.3881 28.599 19.3076 27.9227 18.905 27.5523L18.7923 27.4557H18.6474C18.4541 27.4718 18.1804 27.5684 17.8422 27.6811L17.81 27.6972C17.4557 27.8261 17.0532 27.971 16.6828 27.971C16.3768 27.971 16.1353 27.8744 15.9581 27.6811C15.6683 27.3752 15.5556 26.8599 15.5878 26.0547C15.6361 24.7504 15.781 24.3639 15.8454 24.1385C15.8615 24.0902 15.8776 24.0096 15.8937 23.9935V23.9613C15.8937 23.913 15.8937 23.8164 15.8293 23.5588C15.6683 22.8824 14.7182 22.5604 12.9308 22.5604C12.5443 22.5604 12.2544 22.6087 12.0773 22.7053L11.9324 22.7858L11.9163 22.9629C11.8841 23.1723 11.9807 23.4621 12.1739 23.9613C12.2544 24.1707 12.335 24.3961 12.3994 24.6216C12.496 25.008 12.4477 25.3623 12.2222 25.6522C11.723 26.3124 10.5475 26.3929 10.0644 26.409C9.53303 26.4251 8.40582 26.2802 7.93883 25.6522C7.71338 25.3623 7.66507 25.0241 7.76169 24.6216C7.81 24.4122 7.89052 24.1868 7.97103 23.9774V23.9613C8.16427 23.4621 8.24478 23.1562 8.22868 22.9629L8.21258 22.7858L8.06765 22.7053C7.89052 22.6087 7.61677 22.5604 7.23029 22.5604C5.44285 22.5604 4.49277 22.8824 4.33174 23.5588C4.26733 23.8164 4.26733 23.913 4.26733 23.9613V23.9935C4.26733 24.0257 4.28343 24.0579 4.31564 24.1385C4.39615 24.3478 4.52498 24.7665 4.57329 26.0386C4.60549 26.8599 4.49277 27.3913 4.20292 27.6811C4.07409 27.81 3.84865 27.971 3.47828 27.971C3.23673 27.971 2.97908 27.9066 2.72144 27.8261C3.5749 29.1948 4.58939 30.4348 5.76491 31.5298C5.76491 31.5298 5.76491 31.5298 5.78102 31.5459C5.89374 31.6908 7.11757 33.3333 8.09986 35.62L8.21258 35.5555L8.24479 35.3623Z" fill="#4C025E"/>
<path d="M42.2061 30.3382C42.5765 30.3382 42.9791 30.4831 43.3334 30.6119L43.3656 30.628C43.6393 30.7246 43.9292 30.8374 44.1546 30.8535L44.2995 30.8696L44.4123 30.773C45.0081 30.2093 44.8953 29.0016 44.8953 28.9855V28.9533C44.8792 28.5829 44.7987 27.9066 44.3962 27.5362L44.2834 27.4396L44.1385 27.4557C43.9453 27.4718 43.6715 27.5684 43.3495 27.6812L43.3172 27.6973C42.963 27.8261 42.5604 27.971 42.19 27.971C41.8197 27.971 41.5942 27.81 41.4654 27.6812C41.1755 27.3752 41.0467 26.8599 41.0789 26.0386C41.1272 24.8148 41.2561 24.3961 41.3366 24.1546C41.3688 24.058 41.3688 24.0258 41.3849 23.9775C41.3849 23.913 41.3849 23.8325 41.3205 23.5427C41.1594 22.8663 40.2094 22.5443 38.4219 22.5443C38.0354 22.5443 37.7456 22.5926 37.5685 22.6892L37.4235 22.7697L37.4074 22.9469C37.3752 23.1401 37.4718 23.4299 37.6651 23.9452C37.7456 24.1546 37.8261 24.38 37.8905 24.6055C37.9871 24.9919 37.9388 25.3462 37.7134 25.6361C37.1498 26.3607 35.7327 26.3929 35.5717 26.3929C35.4106 26.3929 33.9936 26.3768 33.43 25.6361C33.2045 25.3462 33.1562 25.0081 33.2528 24.6055C33.3172 24.3961 33.3978 24.1707 33.4783 23.9452C33.6715 23.4461 33.752 23.1401 33.7359 22.9469L33.7198 22.7697L33.5749 22.6892C33.3978 22.5926 33.124 22.5443 32.7375 22.5443C30.9501 22.5443 30 22.8663 29.839 23.5427C29.7746 23.8325 29.7746 23.913 29.7746 23.9775C29.7746 24.0258 29.7907 24.058 29.8229 24.1385C29.9034 24.38 30.0322 24.7987 30.0805 26.0225C30.1127 26.8277 30 27.3591 29.6941 27.6651C29.5652 27.7939 29.3398 27.9549 28.9694 27.9549C28.5991 27.9549 28.1965 27.81 27.8422 27.6812L27.7939 27.6651C27.5363 27.5684 27.2303 27.4557 27.021 27.4396L26.876 27.4235L26.7633 27.5201C26.3607 27.8905 26.2802 28.5507 26.2641 28.9372V28.9855C26.2641 29.0016 26.1514 30.2093 26.7472 30.773L26.8599 30.8696L27.0048 30.8535C27.1981 30.8374 27.4718 30.7407 27.81 30.628L27.8422 30.6119C28.1965 30.4831 28.5991 30.3382 28.9694 30.3382C29.2754 30.3382 29.5169 30.4348 29.6941 30.628C29.9839 30.934 30.1127 31.4493 30.0805 32.2705C30.0322 33.5105 29.9034 33.9131 29.8068 34.1707C29.7746 34.2512 29.7746 34.2834 29.7585 34.3317C29.7585 34.38 29.7585 34.4767 29.8229 34.7665C29.9839 35.4428 30.934 35.7649 32.7214 35.7649C33.1079 35.7649 33.3978 35.7166 33.5749 35.62L33.7198 35.5395L33.7359 35.3623C33.7681 35.153 33.6715 34.8631 33.4783 34.3639C33.3978 34.1546 33.3172 33.9292 33.2528 33.7037C33.1562 33.3172 33.2045 32.963 33.43 32.6731C33.9936 31.9485 35.4106 31.9163 35.5717 31.9163C35.7327 31.9163 37.1659 31.9324 37.7295 32.6731C37.9549 32.963 38.0032 33.3011 37.9066 33.7037C37.8422 33.9292 37.7617 34.1546 37.6812 34.3639C37.4879 34.8631 37.4074 35.153 37.4235 35.3623L37.4396 35.5395L37.5846 35.62C37.7617 35.7166 38.0354 35.7649 38.4219 35.7649C40.2094 35.7649 41.1594 35.4428 41.3205 34.7665C41.3849 34.4928 41.3849 34.4122 41.3849 34.3478V34.3156C41.3849 34.2834 41.3688 34.2512 41.3366 34.1707C41.2561 33.9292 41.1272 33.5105 41.0789 32.2866C41.0467 31.4815 41.1594 30.9501 41.4654 30.6441C41.6586 30.4348 41.9163 30.3382 42.2061 30.3382Z" fill="#4C025E"/>
<path d="M29.4686 17.6812C29.839 17.6812 30.2415 17.8261 30.5958 17.9549L30.628 17.971C30.9018 18.0676 31.1916 18.1803 31.4171 18.1964L31.562 18.2126L31.6747 18.1159C32.2705 17.5523 32.1578 16.3446 32.1578 16.3285V16.2963C32.1417 15.9259 32.0612 15.2496 31.6586 14.8792L31.5459 14.7826L31.401 14.7987C31.2077 14.8148 30.934 14.9114 30.6119 15.0241L30.5797 15.0402C30.2254 15.1691 29.8229 15.314 29.4525 15.314C29.0821 15.314 28.8567 15.153 28.7278 15.0241C28.438 14.7182 28.3092 14.2029 28.3414 13.3816C28.3897 12.1578 28.5185 11.7391 28.599 11.4976C28.6312 11.401 28.6312 11.3688 28.6473 11.3204C28.6473 11.256 28.6473 11.1755 28.5829 10.8857C28.4219 10.2093 27.4718 9.88727 25.6844 9.88727C25.2979 9.88727 25.008 9.93558 24.8309 10.0322L24.686 10.1127L24.6699 10.2898C24.6377 10.4831 24.7343 10.7729 24.9275 11.2882C25.008 11.4976 25.0886 11.723 25.153 11.9485C25.2496 12.3349 25.2013 12.6892 24.9758 12.9791C24.4122 13.7037 22.9952 13.7359 22.8341 13.7359C22.6731 13.7359 21.256 13.7198 20.6924 12.9791C20.467 12.6892 20.4187 12.351 20.5153 11.9485C20.5797 11.7391 20.6602 11.5137 20.7407 11.2882C20.934 10.789 21.0145 10.4831 20.9984 10.2898L20.9823 10.1127L20.8373 10.0322C20.6602 9.93558 20.3865 9.88727 20 9.88727C18.2126 9.88727 17.2625 10.2093 17.1014 10.8857C17.037 11.1755 17.037 11.256 17.037 11.3204C17.037 11.3688 17.0531 11.401 17.0853 11.4815C17.1659 11.723 17.2947 12.1417 17.343 13.3655C17.3752 14.1707 17.2625 14.7021 16.9565 15.008C16.8277 15.1369 16.6022 15.2979 16.2319 15.2979C15.8615 15.2979 15.4589 15.153 15.1047 15.0241L15.0564 15.008C14.7987 14.9114 14.4927 14.7987 14.2834 14.7826L14.1385 14.7665L14.0258 14.8631C13.6232 15.2335 13.5427 15.8937 13.5266 16.2802V16.3285C13.5266 16.3446 13.4138 17.5523 14.0097 18.1159L14.1224 18.2126L14.2673 18.1964C14.4605 18.1803 14.7343 18.0837 15.0725 17.971L15.1047 17.9549C15.4589 17.8261 15.8615 17.6812 16.2319 17.6812C16.5378 17.6812 16.7794 17.7778 16.9565 17.971C17.2464 18.277 17.3752 18.7923 17.343 19.6135C17.2947 20.8535 17.1659 21.256 17.0692 21.5137C17.037 21.5942 17.037 21.6264 17.0209 21.6747C17.0209 21.723 17.0209 21.8196 17.0853 22.1095C17.2464 22.7858 18.1964 23.1079 19.9839 23.1079C20.3704 23.1079 20.6602 23.0596 20.8373 22.963L20.9823 22.8824L20.9984 22.7053C21.0306 22.496 20.934 22.2061 20.7407 21.7069C20.6602 21.4976 20.5797 21.2721 20.5153 21.0467C20.4187 20.6602 20.467 20.306 20.6924 20.0161C21.256 19.2915 22.6731 19.2593 22.8341 19.2593C22.9952 19.2593 24.4283 19.2754 24.9919 20.0161C25.2174 20.306 25.2657 20.6441 25.1691 21.0467C25.1047 21.2721 25.0241 21.4976 24.9436 21.7069C24.7504 22.2061 24.6699 22.496 24.686 22.7053L24.7021 22.8824L24.847 22.963C25.0241 23.0596 25.2979 23.1079 25.6844 23.1079C27.4718 23.1079 28.4219 22.7858 28.5829 22.1095C28.6473 21.8357 28.6473 21.7552 28.6473 21.6908V21.6586C28.6473 21.6264 28.6312 21.5942 28.599 21.5137C28.5185 21.2721 28.3897 20.8535 28.3414 19.6296C28.3092 18.8245 28.4219 18.2931 28.7278 17.9871C28.9211 17.7778 29.1787 17.6812 29.4686 17.6812Z" fill="#00D857"/>
<path d="M29.2271 31.0145L29.05 30.9984C29.0339 30.9984 29.0178 30.9984 28.9855 30.9984C28.744 30.9984 28.4541 31.1111 28.0516 31.2561C27.8422 31.3366 27.6168 31.4171 27.3913 31.4815C27.2625 31.5137 27.1498 31.5298 27.0371 31.5298C26.6184 31.5298 26.0709 31.3205 25.781 30.3382C25.62 29.7746 25.62 29.1949 25.62 29.1788C25.62 29.0821 25.6361 26.8116 27.0371 26.8116C27.1498 26.8116 27.2786 26.8277 27.3913 26.8599C27.6007 26.9243 27.8261 27.0048 28.0516 27.0854C28.3897 27.2142 28.7279 27.343 28.9855 27.343C29.0017 27.343 29.0178 27.343 29.0339 27.343L29.211 27.3269L29.3076 27.1659C29.4042 26.9887 29.4525 26.715 29.4525 26.3285C29.4525 24.5411 29.1305 23.591 28.4541 23.43C28.2126 23.3656 28.116 23.3656 28.0677 23.3656H28.0194C27.9872 23.3656 27.9388 23.3817 27.8583 23.4139C27.6168 23.4944 27.1981 23.6232 25.9743 23.6715C25.8938 23.6715 25.7971 23.6715 25.7327 23.6715C24.9598 23.6715 24.4767 23.4944 24.219 23.1401C23.8809 22.6409 24.1224 21.9807 24.3318 21.401C24.4606 21.0789 24.5572 20.7891 24.5572 20.5958V20.4509L24.4606 20.3382C24.0902 19.9356 23.43 19.8551 23.0435 19.839H22.9952C22.9791 19.839 22.8986 19.8229 22.7537 19.8229C22.4316 19.8229 21.6264 19.8712 21.2078 20.3221L21.1112 20.4348V20.5797C21.1273 20.773 21.2239 21.0628 21.3366 21.3849C21.5459 21.9646 21.8036 22.6409 21.4493 23.124C21.2078 23.4783 20.7086 23.6554 19.9356 23.6554C19.8551 23.6554 19.7746 23.6554 19.6941 23.6554C18.4702 23.6071 18.0516 23.4622 17.81 23.3978C17.7295 23.3656 17.6812 23.3656 17.6329 23.3494H17.6007C17.5524 23.3494 17.4558 23.3494 17.2142 23.4139C16.5379 23.5749 16.2158 24.525 16.2158 26.3124C16.2158 26.6989 16.2641 26.9887 16.3607 27.1498L16.4574 27.3108L16.6345 27.3269C16.6506 27.3269 16.6667 27.3269 16.6828 27.3269C16.9405 27.3269 17.2786 27.1981 17.6168 27.0693H17.6329C17.8422 26.9887 18.0677 26.9082 18.277 26.8599C18.4058 26.8277 18.5186 26.8116 18.6313 26.8116C19.05 26.8116 19.6297 27.037 19.9034 28.0676C20.0483 28.6152 20.0483 29.1627 20.0483 29.1788C20.0483 29.2754 20.0322 31.5459 18.6313 31.562C18.5186 31.562 18.3897 31.5459 18.277 31.5137C18.0516 31.4493 17.8261 31.3688 17.6168 31.2883C17.2142 31.1433 16.9083 31.0306 16.6828 31.0306C16.6667 31.0306 16.6506 31.0306 16.6345 31.0306L16.4574 31.0467L16.3607 31.2077C16.2641 31.3688 16.2158 31.6586 16.2158 32.0451C16.2158 33.8325 16.5379 34.7826 17.2142 34.9437C17.4558 35.0081 17.5524 35.0081 17.6007 35.0081H17.649C17.6812 35.0081 17.7134 34.992 17.81 34.9598C18.0516 34.8792 18.4702 34.7504 19.6941 34.7021C19.7746 34.7021 19.8712 34.7021 19.9356 34.7021C20.7086 34.7021 21.1917 34.8792 21.4493 35.2335C21.7875 35.7327 21.5459 36.3929 21.3366 36.9726C21.2078 37.2947 21.1112 37.5846 21.1112 37.7778V37.9227L21.2078 38.0354C21.6264 38.4863 22.4316 38.5346 22.7537 38.5346C22.8986 38.5346 22.9952 38.5185 22.9952 38.5185H23.0274C23.3978 38.5024 24.0741 38.4219 24.4606 38.0193L24.5572 37.9066V37.7617C24.5411 37.5846 24.4445 37.2947 24.3318 36.9565C24.1224 36.3768 23.8648 35.7005 24.219 35.2174C24.4606 34.8631 24.9598 34.686 25.7327 34.686C25.8132 34.686 25.8938 34.686 25.9743 34.686C27.182 34.7343 27.6007 34.8631 27.8583 34.9437C27.9388 34.9759 27.9711 34.9759 28.0194 34.992H28.0677C28.116 34.992 28.2126 34.992 28.4541 34.9276C29.1305 34.7665 29.4525 33.8164 29.4525 32.029C29.4525 31.6425 29.4042 31.3527 29.3076 31.1916L29.2271 31.0145Z" fill="#4C025E"/>
<path d="M3.4944 27.3108C3.5105 27.3108 3.5266 27.3108 3.54271 27.3108L3.71984 27.2947L3.81646 27.1336C3.91308 26.9565 3.96139 26.6828 3.96139 26.2963C3.96139 24.5088 3.63932 23.5588 2.963 23.3977C2.72145 23.3333 2.62483 23.3333 2.57652 23.3333H2.52821C2.4799 23.3333 2.4477 23.3494 2.36718 23.3816C2.14174 23.446 1.78747 23.5749 0.821289 23.6232C1.17556 24.7826 1.65865 25.8937 2.23836 26.9404C2.35108 26.9726 2.4638 27.0209 2.57652 27.0692C2.89858 27.1819 3.25285 27.3108 3.4944 27.3108Z" fill="#4C025E"/>
<path d="M46.86 23.1079C46.6184 23.4622 46.1192 23.6393 45.3463 23.6393C45.2658 23.6393 45.1852 23.6393 45.1047 23.6393C43.8809 23.591 43.4622 23.4622 43.2207 23.3816C43.1402 23.3494 43.0918 23.3494 43.0596 23.3333H43.0113C42.963 23.3333 42.8664 23.3333 42.6249 23.3977C41.9485 23.5588 41.6265 24.5088 41.6265 26.2963C41.6265 26.6828 41.6748 26.9726 41.7714 27.1336L41.8519 27.2786L42.029 27.2947C42.0451 27.2947 42.0612 27.2947 42.0935 27.2947C42.335 27.2947 42.6893 27.1658 43.0274 27.037C43.2368 26.9565 43.4622 26.876 43.6877 26.8116C43.8165 26.7794 43.9292 26.7633 44.0419 26.7633C44.4606 26.7633 45.0403 26.9887 45.3141 28.0193C45.459 28.5668 45.459 29.1304 45.459 29.1304C45.459 29.227 45.4429 31.5137 44.0419 31.5137C43.9292 31.5137 43.8004 31.4976 43.6877 31.4654C43.4622 31.4009 43.2368 31.3204 43.0274 31.2399C42.6249 31.095 42.3189 30.9823 42.0935 30.9823C42.0773 30.9823 42.0612 30.9823 42.0451 30.9823L41.868 30.9984L41.7714 31.1594C41.6748 31.3365 41.6265 31.6103 41.6265 31.9968C41.6265 33.7842 41.9485 34.7343 42.6249 34.8953C42.8664 34.9597 42.963 34.9597 43.0113 34.9597H43.0596C43.0918 34.9597 43.124 34.9436 43.2207 34.9114C43.4622 34.8309 43.8809 34.7021 45.1047 34.6538C45.1852 34.6538 45.2819 34.6538 45.3624 34.6538C45.9904 34.6538 46.4252 34.7665 46.6989 34.9919C46.715 34.9597 46.715 34.9114 46.7311 34.8792C46.393 34.5894 46.0226 34.3156 45.6683 34.0418C46.1997 33.5749 46.715 33.0918 47.182 32.5604C46.715 31.2077 46.4091 29.7745 46.2802 28.3092C47.0693 27.9388 47.8261 27.504 48.5508 27.0209C48.8084 26.9243 49.0339 26.7794 49.1949 26.57C49.4042 26.3124 49.517 26.0064 49.517 25.6522C49.517 25.5072 49.5009 25.3623 49.4525 25.2174C49.372 24.9758 49.2432 24.7665 49.0822 24.6055C48.4542 23.6232 47.7295 22.7053 46.9244 21.868C47.0532 22.3349 47.1015 22.7697 46.86 23.1079Z" fill="#4C025E"/>
<path d="M28.3414 38.6795C28.3897 37.4557 28.5185 37.037 28.599 36.7955V36.7794C28.6151 36.715 28.6312 36.6667 28.6312 36.6183C28.6312 36.5539 28.6312 36.4734 28.5668 36.1836C28.4058 35.5072 27.4557 35.1852 25.6683 35.1852C25.2818 35.1852 24.992 35.2335 24.8148 35.3301L24.6699 35.4106L24.6538 35.5878C24.6216 35.7971 24.7182 36.0869 24.9114 36.5861C24.992 36.7955 25.0725 37.0209 25.1369 37.2464C25.2335 37.6328 25.1852 37.9871 24.9597 38.277C24.3961 39.0016 22.9791 39.0338 22.818 39.0338C22.657 39.0338 21.2399 39.0177 20.6763 38.277C20.4509 37.9871 20.4026 37.6489 20.4992 37.2464C20.5636 37.0209 20.6441 36.7955 20.7246 36.5861C20.9179 36.0869 20.9984 35.7971 20.9823 35.5878L20.9662 35.4106L20.8213 35.3301C20.6602 35.2335 20.3704 35.1852 19.9678 35.1852C18.1804 35.1852 17.2303 35.5072 17.0692 36.1836C16.9887 36.4734 17.0048 36.57 17.0048 36.6183C17.0048 36.6667 17.0209 36.6989 17.037 36.7633V36.7794C17.1176 37.0209 17.2464 37.4396 17.2947 38.6634C17.3269 39.4686 17.2142 40 16.9082 40.3059C16.7794 40.4348 16.5539 40.5958 16.1836 40.5958C15.8132 40.5958 15.4106 40.4509 15.0564 40.322L15.0242 40.3059C14.7182 40.1932 14.4283 40.0966 14.2351 40.0805L14.0902 40.0644L13.9775 40.161C13.5749 40.5314 13.4944 41.1916 13.4783 41.562V41.6103C13.4783 41.6264 13.3655 42.8341 13.9775 43.3977L14.0902 43.4943L14.2351 43.4782C14.4283 43.4621 14.686 43.3816 15.0242 43.2528L15.0564 43.2367C15.4106 43.1079 15.8132 42.9629 16.1836 42.9629C16.5539 42.9629 16.7794 43.124 16.9082 43.2528C17.1981 43.5588 17.3269 44.074 17.2947 44.8953C17.2464 46.1191 17.1176 46.5378 17.037 46.7794C17.0048 46.8599 17.0048 46.9082 16.9887 46.9404C16.9887 46.9887 16.9726 47.0853 17.0531 47.3752C17.2142 48.0515 18.1643 48.3736 19.9517 48.3736C20.3382 48.3736 20.628 48.3252 20.8052 48.2286L20.9501 48.1481L20.9662 47.971C20.9984 47.7777 20.9018 47.4718 20.7085 46.9726C20.628 46.7633 20.5475 46.5378 20.4831 46.3124C20.3704 45.9259 20.4348 45.5716 20.6602 45.2818C21.2238 44.5571 22.6409 44.5249 22.8019 44.5249C22.963 44.5249 24.3961 44.541 24.9597 45.2818C25.1852 45.5716 25.2335 45.9098 25.1369 46.3124C25.0725 46.5378 24.992 46.7633 24.9114 46.9726C24.7182 47.4718 24.6377 47.7616 24.6538 47.971L24.6699 48.1481L24.8148 48.2286C24.9759 48.3252 25.2657 48.3736 25.6683 48.3736C27.4557 48.3736 28.4058 48.0515 28.5668 47.3752C28.6473 47.0853 28.6312 46.9887 28.6312 46.9404C28.6312 46.8921 28.6151 46.8599 28.5829 46.7633C28.5024 46.5217 28.3736 46.103 28.3253 44.8792C28.2931 44.0741 28.4058 43.5427 28.7118 43.2367C28.8406 43.1079 29.066 42.9468 29.4364 42.9468C29.8068 42.9468 30.2093 43.0918 30.5636 43.2206L30.5958 43.2367C30.8696 43.3333 31.1755 43.446 31.3849 43.4621L31.5298 43.4782L31.6425 43.3816C32.2383 42.818 32.1417 41.6103 32.1256 41.5942V41.562C32.1095 41.1916 32.029 40.5153 31.6264 40.1449L31.5137 40.0483H31.3688C31.1755 40.0644 30.9018 40.161 30.5797 40.2737L30.5475 40.2898C30.2093 40.4187 29.7907 40.5636 29.4203 40.5636C29.0499 40.5636 28.8245 40.4026 28.6957 40.2737C28.438 40 28.3092 39.4847 28.3414 38.6795Z" fill="#4C025E"/>
<path d="M13.2207 47.3269C14.4445 47.3752 14.8632 47.504 15.1047 47.5845C15.1852 47.6168 15.2335 47.6168 15.2819 47.6329H15.3141C15.3624 47.6329 15.459 47.6329 15.7005 47.5684C16.3769 47.4074 16.6989 46.4573 16.6989 44.6699C16.6989 44.2834 16.6506 43.9936 16.554 43.8325L16.4735 43.6715L16.2963 43.6554C16.2802 43.6554 16.2641 43.6554 16.2319 43.6554C15.9904 43.6554 15.7005 43.7681 15.2819 43.9131C15.0725 43.9936 14.8471 44.0741 14.6216 44.1385C14.4928 44.1707 14.3801 44.1868 14.2674 44.1868C13.8487 44.1868 13.3012 43.9775 13.0113 42.9952C12.8503 42.4477 12.8503 41.9002 12.8503 41.8358C12.8503 41.7391 12.8664 39.4686 14.2674 39.4686C14.3801 39.4686 14.5089 39.4847 14.6216 39.5169C14.8471 39.5813 15.0725 39.6618 15.2819 39.7424C15.62 39.8712 15.9582 40 16.2158 40C16.2319 40 16.248 40 16.2641 40L16.4574 39.9839L16.554 39.8229C16.6506 39.6457 16.6989 39.372 16.6989 38.9855C16.6989 37.1981 16.3769 36.248 15.7005 36.087C15.459 36.0225 15.3624 36.0225 15.3141 36.0225H15.2658C15.2174 36.0225 15.1852 36.0386 15.1047 36.0709C14.8632 36.1514 14.4445 36.2802 13.2207 36.3285C13.1401 36.3285 13.0435 36.3285 12.9791 36.3285C12.2062 36.3285 11.7231 36.1514 11.4654 35.7971C11.1273 35.2979 11.3688 34.6377 11.5782 34.058C11.6909 33.7359 11.8036 33.4461 11.8036 33.2528V33.1079L11.707 32.9952C11.3366 32.5926 10.6764 32.5121 10.2899 32.496H10.2255C10.1933 32.496 10.1128 32.496 10.0001 32.496C9.67799 32.496 8.87284 32.5443 8.45416 32.9952L8.35754 33.1079V33.2528C8.35754 33.4299 8.45416 33.6715 8.58299 34.058C8.79233 34.6377 9.04997 35.314 8.69571 35.7971C8.59909 35.942 8.45416 36.0547 8.29313 36.1353C9.38814 38.8889 10.0323 42.4316 8.16431 45.5073L11.3044 47.4879L11.6265 47.6973C11.9002 47.4718 12.335 47.3591 12.9469 47.3591C13.0596 47.3269 13.1401 47.3269 13.2207 47.3269Z" fill="#4C025E"/>
<path d="M42.1256 43.8164L42.0451 43.6554L41.868 43.6393C41.8519 43.6393 41.8358 43.6393 41.8036 43.6393C41.562 43.6393 41.2722 43.752 40.8535 43.897C40.6441 43.9775 40.4187 44.058 40.2093 44.1224C40.0805 44.1546 39.9678 44.1707 39.8551 44.1707C39.4364 44.1707 38.8889 43.9614 38.599 42.9791C38.438 42.4316 38.438 41.8841 38.438 41.8197C38.438 41.723 38.4541 39.4525 39.8551 39.4525C39.9678 39.4525 40.0966 39.4686 40.2093 39.5008C40.4348 39.5652 40.6602 39.6457 40.8696 39.7262C41.2077 39.8551 41.5459 39.9839 41.8036 39.9839C41.8197 39.9839 41.8358 39.9839 41.8519 39.9839L42.0451 39.9678L42.1417 39.8068C42.2383 39.6457 42.2866 39.3559 42.2866 38.9694C42.2866 37.182 41.9646 36.2319 41.2883 36.0708C41.0467 36.0064 40.9501 36.0064 40.9018 36.0064H40.8535C40.8052 36.0064 40.773 36.0225 40.6924 36.0547C40.4509 36.1353 40.0322 36.2641 38.8084 36.3124C38.7279 36.3124 38.6312 36.3124 38.5668 36.3124C37.7939 36.3124 37.3108 36.1353 37.0532 35.781C36.715 35.2818 36.9565 34.6216 37.1659 34.0419C37.3108 33.6715 37.3913 33.4138 37.3913 33.2367V33.0918L37.2947 32.9791C36.9243 32.5765 36.2641 32.496 35.8776 32.4799H35.8132C35.781 32.4799 35.7005 32.4799 35.5878 32.4799C35.2657 32.4799 34.4606 32.5282 34.0419 32.9791L33.9453 33.0918V33.2367C33.9453 33.4138 34.0419 33.6554 34.1707 34.0419C34.38 34.6216 34.6377 35.2979 34.2834 35.781C34.0419 36.1353 33.5427 36.3124 32.7697 36.3124C32.6892 36.3124 32.6087 36.3124 32.5282 36.3124C31.3044 36.2641 30.8857 36.1353 30.628 36.0386C30.5636 36.0225 30.5153 36.0064 30.467 35.9903H30.4348C30.3865 35.9903 30.2899 35.9903 30.0483 36.0547C29.372 36.2158 29.0499 37.1659 29.0499 38.9533C29.0499 39.3398 29.0982 39.6296 29.1949 39.7907L29.2915 39.9517L29.4686 39.9678C29.4847 39.9678 29.5008 39.9678 29.5169 39.9678C29.7424 39.9678 30.0483 39.8551 30.4509 39.7101L30.4831 39.694C30.6924 39.6135 30.9018 39.533 31.1111 39.4847C31.2399 39.4525 31.3527 39.4364 31.4654 39.4364C31.8841 39.4364 32.4477 39.6618 32.7375 40.6924C32.8825 41.2399 32.8825 41.8035 32.8825 41.8035C32.8825 41.9002 32.8664 44.1868 31.4654 44.1868C31.3527 44.1868 31.2238 44.1707 31.1111 44.1385C30.8857 44.0741 30.6602 43.9936 30.4509 43.9131C30.1127 43.7842 29.7746 43.6554 29.5169 43.6554C29.4847 43.6554 29.4686 43.6554 29.4525 43.6554L29.2754 43.6715L29.1949 43.8325C29.0982 43.9936 29.0499 44.2834 29.0499 44.6699C29.0499 46.4573 29.372 47.4074 30.0483 47.5685C30.2899 47.6329 30.3865 47.6329 30.4348 47.6329H30.4831C30.5153 47.6329 30.5475 47.6168 30.6441 47.5846C30.8857 47.504 31.3044 47.3752 32.5282 47.3269C32.6087 47.3269 32.7053 47.3269 32.7697 47.3269C33.5427 47.3269 34.0258 47.504 34.2834 47.8583C34.3478 47.9388 34.38 48.0354 34.4122 48.1321C35.314 46.8438 36.3768 45.6844 37.5684 44.686C38.5668 44.847 39.5813 44.9437 40.628 44.9437C41.1755 44.9437 41.723 44.9114 42.2705 44.8631C42.2705 44.7987 42.2705 44.7343 42.2705 44.6699C42.2705 44.2834 42.2222 43.9936 42.1256 43.8164Z" fill="#4C025E"/>
<path d="M46.2157 44.0579C46.409 43.9452 46.5861 43.8164 46.731 43.6554C47.1658 43.2206 47.4235 42.6248 47.4235 41.9646C47.4235 41.9162 47.4235 41.8679 47.4235 41.8357C47.4074 41.4976 47.3108 41.1755 47.1658 40.8856C46.9082 40.0322 46.5861 39.1948 46.2157 38.4058C46.2157 38.3736 46.2157 38.3575 46.2157 38.3253C46.1996 38.3092 46.1835 38.2931 46.1674 38.277C45.942 37.9871 45.8937 37.6489 45.9903 37.2464C46.0547 37.037 46.1352 36.8116 46.2157 36.5861C46.409 36.0869 46.4895 35.781 46.4734 35.5878L46.4573 35.4106L46.3124 35.3301C46.1513 35.2335 45.8615 35.1852 45.4589 35.1852C43.6715 35.1852 42.7214 35.5072 42.5603 36.1836C42.4798 36.4734 42.4959 36.57 42.4959 36.6183C42.4959 36.6667 42.512 36.6989 42.5442 36.7955C42.6248 37.0531 42.7536 37.4557 42.8019 38.6795C42.8341 39.4847 42.7214 40.0161 42.4154 40.322C42.2866 40.4509 42.0612 40.6119 41.6908 40.6119C41.3204 40.6119 40.9178 40.467 40.5636 40.3381L40.5314 40.322C40.2576 40.2254 39.9516 40.1127 39.7423 40.0966L39.5974 40.0805L39.4847 40.1771C39.0821 40.5475 39.0016 41.2077 38.9855 41.5781V41.6264C38.9855 41.6425 38.8727 42.8502 39.4847 43.4138L39.5974 43.5104L39.7423 43.4943C39.9355 43.4782 40.2093 43.3816 40.5314 43.2689L40.5636 43.2528C40.9017 43.124 41.3204 42.979 41.6908 42.979C41.9967 42.979 42.2383 43.0757 42.4154 43.2689C42.6892 43.5587 42.818 44.0418 42.8019 44.7826C43.6231 44.686 44.4283 44.541 45.2174 44.3317C45.5555 44.3317 45.9098 44.2351 46.2157 44.0579Z" fill="#4C025E"/>
<path d="M15.9098 49.372V49.3398C15.9098 49.2914 15.9098 49.1948 15.8454 48.9372C15.6843 48.2609 14.7342 47.9388 12.9468 47.9388C12.6408 47.9388 12.3832 47.971 12.2222 48.0354L12.8502 48.438L15.7165 50.2415C15.7648 49.839 15.8293 49.6457 15.8776 49.533C15.8937 49.4525 15.9098 49.3881 15.9098 49.372Z" fill="#4C025E"/>
<path d="M33.4783 49.3237C33.6715 48.8245 33.752 48.5185 33.7359 48.3253L33.7198 48.1481L33.5749 48.0676C33.3978 47.971 33.124 47.9227 32.7375 47.9227C30.9501 47.9227 30 48.2448 29.839 48.9211C29.7746 49.2109 29.7746 49.2915 29.7746 49.3559C29.7746 49.4042 29.7907 49.4364 29.8229 49.5169C29.9034 49.7584 30.0322 50.1771 30.0805 51.401C30.1127 52.2061 30 52.7375 29.6941 53.0435C29.5652 53.1723 29.3398 53.3333 28.9694 53.3333C28.5991 53.3333 28.1965 53.1884 27.8422 53.0596L27.81 53.0435C27.5363 52.9469 27.2464 52.8341 27.021 52.818L26.876 52.8019L26.7633 52.8985C26.3607 53.2689 26.2802 53.9291 26.2641 54.3156V54.3639C26.2641 54.38 26.1514 55.5878 26.7472 56.1514L26.8599 56.248H27.0048C27.1981 56.2319 27.4718 56.1353 27.81 56.0225L27.8422 56.0064C28.1965 55.8776 28.5991 55.7327 28.9694 55.7327C29.2754 55.7327 29.5169 55.8293 29.6941 56.0225C29.9839 56.3285 30.1127 56.8438 30.0805 57.665C30.0483 58.4541 29.9839 58.905 29.9195 59.1948L31.1916 60C31.1594 59.533 31.1433 59.066 31.1433 58.599C31.1433 56.248 31.5942 53.9936 32.3994 51.9324C32.657 51.2721 32.963 50.628 33.285 50.0161C33.285 50 33.285 50 33.285 49.9839C33.3173 49.7745 33.3978 49.5491 33.4783 49.3237Z" fill="#4C025E"/>
<path d="M29.3075 56.57L29.2109 56.409L29.0177 56.3929C29.0016 56.3929 29.0016 56.3929 28.9855 56.3929C28.7439 56.3929 28.4541 56.5056 28.0515 56.6506C27.8421 56.7311 27.6167 56.8116 27.3913 56.876C27.2624 56.9082 27.1497 56.9243 27.037 56.9243C26.6183 56.9243 26.0708 56.715 25.7809 55.7327C25.6199 55.1691 25.6199 54.5894 25.6199 54.5733C25.6199 54.4766 25.636 52.2061 27.037 52.2061C27.1497 52.2061 27.2785 52.2222 27.3913 52.2544C27.6006 52.3188 27.826 52.3993 28.0354 52.4638H28.0515C28.3896 52.5926 28.7278 52.7214 28.9855 52.7214C29.0016 52.7214 29.0177 52.7214 29.0177 52.7214L29.2109 52.7053L29.3075 52.5443C29.4041 52.3671 29.4524 52.0934 29.4524 51.7069C29.4524 49.9195 29.1304 48.9694 28.4541 48.8084C28.2125 48.744 28.1159 48.744 28.0676 48.744H28.0193C27.971 48.744 27.9388 48.7601 27.8582 48.7923C27.6167 48.8728 27.198 49.0016 25.9742 49.0499C25.8937 49.0499 25.797 49.0499 25.7326 49.0499C24.9597 49.0499 24.4766 48.8728 24.2189 48.5185C23.8808 48.0193 24.1223 47.3591 24.3317 46.7794C24.4444 46.4573 24.5571 46.1675 24.5571 45.9742V45.8293L24.4605 45.7166C24.0901 45.314 23.4299 45.2335 23.0434 45.2174H22.9951C22.9629 45.2174 22.8663 45.2013 22.7536 45.2013C22.4315 45.2013 21.6264 45.2496 21.2077 45.7005L21.1111 45.8132V45.9581C21.1111 46.1353 21.1916 46.3768 21.3365 46.7633C21.5458 47.343 21.8035 48.0193 21.4492 48.5024C21.2077 48.8567 20.7085 49.0338 19.9355 49.0338C19.855 49.0338 19.7745 49.0338 19.694 49.0338C18.4702 48.9855 18.0515 48.8406 17.8099 48.7762C17.7294 48.7439 17.6811 48.7278 17.6328 48.7278H17.6006C17.5523 48.7278 17.4557 48.7278 17.2141 48.7923C16.6988 48.9211 16.3768 49.5169 16.264 50.5958L16.9082 50.9984L18.8083 52.2061C19.0499 52.2383 19.3075 52.3671 19.533 52.6731L29.3236 58.8728C29.388 58.4702 29.4202 57.9871 29.4202 57.4235C29.4524 57.0209 29.4041 56.7311 29.3075 56.57Z" fill="#4C025E"/>
<path d="M66.9727 32.8663L62.6571 25.8293H60.1772V40.0161H62.8182V34.1385C62.8182 33.3333 62.802 32.5443 62.7859 31.8035C62.7698 31.4332 62.7537 31.0628 62.7215 30.6924L66.1354 36.0708H67.7135L71.224 30.6602C71.1918 31.0467 71.1757 31.4171 71.1596 31.7874C71.1273 32.5121 71.1112 33.3011 71.1112 34.1224V39.9839H73.7522V25.7971H71.385L66.9727 32.8663Z" fill="#00D857"/>
<path d="M84.0258 30.1771C83.7682 29.9356 83.4622 29.7262 83.1241 29.533C82.5444 29.1948 81.868 29.0338 81.1112 29.0338C80.1128 29.0338 79.1949 29.2754 78.4059 29.7423C77.6168 30.2093 76.9888 30.8857 76.5379 31.723C76.087 32.5604 75.8616 33.5266 75.8616 34.6055C75.8616 35.6844 76.087 36.6506 76.5218 37.504C76.9566 38.3414 77.5524 39.0177 78.2931 39.5008C79.0339 39.9839 79.8873 40.2254 80.7891 40.2254C81.6426 40.2254 82.3994 40.0161 83.0597 39.6135C83.4461 39.372 83.7682 39.1304 84.0419 38.8728V40.0161H86.6023V29.2432H84.0419V30.1771H84.0258ZM83.7521 32.963C83.9936 33.4461 84.1064 33.9936 84.1064 34.6055C84.1064 35.2174 83.9775 35.781 83.736 36.2641C83.4944 36.7472 83.1563 37.1337 82.7376 37.4074C82.3189 37.6812 81.8197 37.8261 81.24 37.8261C80.6925 37.8261 80.2094 37.6812 79.7907 37.4074C79.372 37.1337 79.0339 36.7472 78.7923 36.2641C78.5508 35.781 78.422 35.2174 78.422 34.6055C78.422 33.9936 78.5508 33.4299 78.7762 32.9469C79.0178 32.4799 79.3559 32.0934 79.7746 31.8196C80.1933 31.5459 80.6925 31.4171 81.2239 31.4171C81.7875 31.4171 82.2867 31.562 82.7215 31.8357C83.1724 32.0934 83.5105 32.4799 83.7521 32.963Z" fill="#00D857"/>
<path d="M96.7956 29.6457C96.2481 29.2432 95.4752 29.0338 94.4929 29.0338C93.7199 29.0338 92.9953 29.227 92.3673 29.6296C91.9969 29.8551 91.6748 30.1127 91.4011 30.3865V29.2432H88.8568V40.0161H91.4011V33.5427C91.4011 33.1562 91.4977 32.8019 91.7071 32.4799C91.9164 32.1578 92.2062 31.8841 92.5605 31.6908C92.9148 31.4976 93.3496 31.3849 93.8327 31.3849C94.3319 31.3527 94.7022 31.4332 94.9599 31.6103C95.2336 31.8035 95.4108 32.0612 95.5235 32.3994C95.6362 32.7536 95.7006 33.1723 95.7006 33.6393V40.0161H98.2449V33.4944C98.2449 32.6892 98.1322 31.9485 97.9228 31.2882C97.7296 30.6119 97.3431 30.0483 96.7956 29.6457Z" fill="#00D857"/>
<path d="M107.971 30.1771C107.713 29.9356 107.408 29.7262 107.069 29.533C106.49 29.1948 105.813 29.0338 105.056 29.0338C104.058 29.0338 103.14 29.2754 102.351 29.7423C101.562 30.2093 100.934 30.8857 100.483 31.723C100.032 32.5604 99.8069 33.5266 99.8069 34.6055C99.8069 35.6844 100.032 36.6506 100.467 37.504C100.902 38.3414 101.498 39.0177 102.238 39.5008C102.979 39.9839 103.833 40.2254 104.734 40.2254C105.588 40.2254 106.345 40.0161 107.005 39.6135C107.391 39.372 107.713 39.1304 107.987 38.8728V40.0161H110.548V29.2432H107.987V30.1771H107.971ZM107.697 32.963C107.939 33.4461 108.052 33.9936 108.052 34.6055C108.052 35.2174 107.923 35.781 107.681 36.2641C107.44 36.7472 107.102 37.1337 106.683 37.4074C106.264 37.6812 105.765 37.8261 105.185 37.8261C104.638 37.8261 104.155 37.6812 103.736 37.4074C103.317 37.1337 102.979 36.7472 102.738 36.2641C102.496 35.781 102.367 35.2174 102.367 34.6055C102.367 33.9936 102.496 33.4299 102.722 32.9469C102.963 32.4799 103.301 32.0934 103.72 31.8196C104.139 31.5459 104.638 31.4171 105.169 31.4171C105.733 31.4171 106.232 31.562 106.667 31.8357C107.118 32.0934 107.456 32.4799 107.697 32.963Z" fill="#00D857"/>
<path d="M120.644 30.2576C120.371 30.0161 120.048 29.7906 119.662 29.5652C119.018 29.1948 118.277 29.0177 117.456 29.0177C116.474 29.0177 115.572 29.2592 114.783 29.7423C113.978 30.2254 113.35 30.8857 112.883 31.723C112.416 32.5604 112.19 33.5266 112.19 34.6055C112.19 35.6683 112.432 36.6344 112.899 37.4879C113.366 38.3253 114.01 39.0016 114.815 39.4847C115.62 39.9678 116.538 40.2093 117.52 40.2093C118.052 40.2093 118.551 40.1127 119.034 39.9356C119.517 39.7584 119.936 39.5008 120.29 39.2109C120.419 39.1143 120.532 39.0016 120.628 38.8889V39.3559C120.628 40.3059 120.371 41.0145 119.871 41.4654C119.372 41.9323 118.615 42.1578 117.633 42.1578C117.102 42.1578 116.554 42.0773 115.991 41.9001C115.443 41.723 114.976 41.4976 114.606 41.2238L114.348 41.0306L113.382 43.0757L113.543 43.2045C114.01 43.591 114.622 43.8969 115.379 44.1385C116.119 44.38 116.876 44.4927 117.633 44.4927C118.599 44.4927 119.517 44.3156 120.338 43.9613C121.176 43.591 121.868 43.0113 122.383 42.2222C122.899 41.4332 123.156 40.3865 123.156 39.1304V29.2592H120.612V30.2576H120.644ZM120.354 32.9468C120.612 33.4299 120.741 33.9935 120.741 34.6216C120.741 35.2335 120.612 35.7971 120.354 36.2802C120.113 36.7633 119.759 37.1497 119.308 37.4074C118.873 37.6811 118.342 37.81 117.746 37.81C117.182 37.81 116.667 37.665 116.216 37.3913C115.765 37.1175 115.411 36.7311 115.153 36.248C114.895 35.7649 114.767 35.2174 114.767 34.6055C114.767 33.9935 114.895 33.4299 115.153 32.9468C115.411 32.4638 115.765 32.0773 116.216 31.8035C116.651 31.5298 117.166 31.3848 117.746 31.3848C118.342 31.3848 118.873 31.5298 119.308 31.8035C119.743 32.0773 120.097 32.4638 120.354 32.9468Z" fill="#00D857"/>
<path d="M132.818 29.6779C132.077 29.227 131.24 29.0016 130.338 29.0016C129.356 29.0016 128.438 29.227 127.617 29.694C126.78 30.1449 126.103 30.8212 125.604 31.6586C125.105 32.5121 124.847 33.5426 124.847 34.7343C124.847 35.781 125.089 36.7311 125.572 37.5523C126.055 38.3736 126.715 39.0338 127.569 39.5008C128.422 39.9678 129.404 40.2093 130.515 40.2093C131.337 40.2093 132.142 40.0483 132.899 39.7262C133.607 39.4203 134.187 39.066 134.622 38.6795H135.04L133.591 36.5539L133.366 36.7472C133.092 36.9887 132.738 37.2303 132.303 37.4879C131.9 37.7294 131.369 37.8422 130.709 37.8422C129.791 37.8422 129.018 37.5845 128.438 37.1014C127.907 36.6666 127.585 36.103 127.44 35.3784H135.234L135.266 34.2512C135.266 33.2206 135.04 32.3027 134.606 31.5298C134.139 30.7407 133.543 30.1288 132.818 29.6779ZM127.536 33.2367C127.714 32.6087 128.036 32.1578 128.47 31.884C129.002 31.562 129.63 31.3848 130.338 31.3848C130.725 31.3848 131.095 31.4654 131.433 31.6425C131.771 31.8196 132.061 32.0451 132.287 32.351C132.48 32.6087 132.609 32.8985 132.657 33.2367H127.536Z" fill="#00D857"/>
<path d="M143.543 29.2431C143.237 29.0982 142.834 29.0177 142.319 29.0177C141.627 29.0177 140.966 29.2431 140.338 29.6618C140 29.9034 139.71 30.1771 139.453 30.4831V29.227H136.892V40H139.453V34.0741C139.453 33.591 139.565 33.1562 139.807 32.8019C140.048 32.4477 140.354 32.1578 140.709 31.9646C141.063 31.7713 141.449 31.6747 141.82 31.6747C142.013 31.6747 142.19 31.6908 142.351 31.7391C142.512 31.7874 142.657 31.8357 142.77 31.884L143.076 32.029L143.736 29.3076L143.543 29.2431Z" fill="#00D857"/>
<path d="M66.7633 7.26248H56.3607V9.82287H60.1771V21.4493H62.818V9.82287H66.7633V7.26248Z" fill="#4C025E"/>
<path d="M73.8647 11.6103C73.6071 11.3688 73.3011 11.1594 72.9629 10.9662C72.3832 10.628 71.7069 10.467 70.9501 10.467C69.9517 10.467 69.0338 10.7086 68.2447 11.1755C67.4557 11.6425 66.8277 12.3189 66.3768 13.1562C65.9259 13.9936 65.7004 14.9598 65.7004 16.0387C65.7004 17.1176 65.9259 18.0838 66.3607 18.9372C66.7955 19.7746 67.3913 20.4509 68.132 20.934C68.8728 21.4171 69.7262 21.6586 70.628 21.6586C71.4815 21.6586 72.2383 21.4493 72.8985 21.0467C73.285 20.8052 73.6071 20.5636 73.8808 20.306V21.4493H76.4412V10.6764H73.8808V11.6103H73.8647ZM73.591 14.3962C73.8325 14.8792 73.9452 15.4268 73.9452 16.0387C73.9452 16.6506 73.8164 17.2142 73.5749 17.6973C73.3333 18.1804 72.9951 18.5668 72.5765 18.8406C72.1578 19.1144 71.6586 19.2593 71.0789 19.2593C70.5314 19.2593 70.0483 19.1144 69.6296 18.8406C69.2109 18.5668 68.8728 18.1804 68.6312 17.6973C68.3897 17.2142 68.2608 16.6506 68.2608 16.0387C68.2608 15.4268 68.3897 14.8631 68.6151 14.3801C68.8566 13.9131 69.1948 13.5266 69.6135 13.2528C70.0322 12.9791 70.5314 12.8503 71.0628 12.8503C71.6264 12.8503 72.1256 12.9952 72.5604 13.2689C73.0112 13.5427 73.3494 13.9131 73.591 14.3962Z" fill="#4C025E"/>
<path d="M81.2559 7.26248H78.7117V21.4493H81.2559V7.26248Z" fill="#4C025E"/>
<path d="M90.7247 11.1111C89.9839 10.6602 89.1466 10.4348 88.2448 10.4348C87.2625 10.4348 86.3446 10.6602 85.5234 11.1272C84.686 11.5781 84.0097 12.2544 83.5105 13.0918C83.0113 13.9453 82.7537 14.9758 82.7537 16.1675C82.7537 17.2142 82.9952 18.1643 83.4783 18.9855C83.9614 19.8068 84.6216 20.467 85.4751 20.934C86.3285 21.401 87.3108 21.6425 88.4219 21.6425C89.2432 21.6425 90.0483 21.4815 90.8052 21.1594C91.5137 20.8535 92.0934 20.4992 92.5282 20.1127H92.9469L91.4976 17.9871L91.2722 18.1804C90.9984 18.4219 90.6442 18.6634 90.2094 18.9211C89.8068 19.1626 89.2754 19.2754 88.6152 19.2754C87.6973 19.2754 86.9244 19.0177 86.3446 18.5346C85.8132 18.0998 85.4912 17.5201 85.3463 16.8116H93.1401L93.1723 15.6844C93.1723 14.6538 92.9469 13.7359 92.5121 12.963C92.0612 12.1739 91.4654 11.562 90.7247 11.1111ZM88.2448 12.818C88.6313 12.818 89.0016 12.8986 89.3398 13.0757C89.678 13.2528 89.9678 13.4783 90.1933 13.7842C90.3865 14.0419 90.5153 14.3317 90.5636 14.6699H85.459C85.6361 14.0419 85.9582 13.591 86.3929 13.3172C86.9082 12.9952 87.5363 12.818 88.2448 12.818Z" fill="#4C025E"/>
<path d="M102.738 11.0789C102.19 10.6764 101.417 10.467 100.435 10.467C99.662 10.467 98.9373 10.6602 98.3093 11.0628C97.9389 11.2883 97.6169 11.5459 97.3431 11.8197V10.6764H94.7988V21.4493H97.3431V14.9759C97.3431 14.5894 97.4397 14.2351 97.6491 13.9131C97.8584 13.591 98.1483 13.3173 98.5025 13.124C98.8568 12.9308 99.2916 12.8181 99.7747 12.8181C100.274 12.7859 100.644 12.8664 100.902 13.0435C101.176 13.2367 101.353 13.4944 101.465 13.8326C101.578 14.1868 101.643 14.6055 101.643 15.0725V21.4493H104.187V14.9437C104.187 14.1385 104.074 13.3978 103.865 12.7375C103.688 12.0451 103.301 11.4815 102.738 11.0789Z" fill="#4C025E"/>
<path d="M110.225 10.6763V8.06764V7.26248H107.681V8.06764V10.6763H105.556V13.1562H107.681V21.4493H110.225V13.1562H112.593V10.6763H110.225Z" fill="#4C025E"/>
<path d="M63.0275 48.7923H61.9003V52.6409H60.9502V48.7923H60.1772V47.9227H60.9502V47.2947C60.9502 46.876 61.079 46.5378 61.3528 46.2802C61.6104 46.0226 61.9647 45.8776 62.3834 45.8776C62.6249 45.8776 62.8343 45.9259 62.9953 46.0226C63.1563 46.1192 63.269 46.1997 63.3495 46.2802L63.0275 47.0048C62.9631 46.9404 62.8826 46.8921 62.7859 46.8438C62.6893 46.7955 62.5927 46.7633 62.4961 46.7633C62.2706 46.7633 62.1257 46.8116 62.0452 46.9243C61.9647 47.0209 61.9164 47.1498 61.9164 47.3108V47.9388H63.0436V48.7923H63.0275Z" fill="#252525"/>
<path d="M68.4219 50.2415C68.4219 50.7246 68.3092 51.1594 68.0999 51.5298C67.8905 51.9002 67.5846 52.19 67.2303 52.4155C66.8599 52.6248 66.4574 52.7375 65.9904 52.7375C65.5395 52.7375 65.1208 52.6248 64.7505 52.4155C64.3801 52.2061 64.0902 51.9163 63.8648 51.5298C63.6554 51.1594 63.5427 50.7246 63.5427 50.2415C63.5427 49.7585 63.6554 49.3237 63.8648 48.9533C64.0741 48.5829 64.3801 48.2931 64.7505 48.0676C65.1208 47.8583 65.5395 47.7456 65.9904 47.7456C66.4413 47.7456 66.8599 47.8583 67.2303 48.0676C67.6007 48.277 67.8905 48.5668 68.0999 48.9533C68.3253 49.3237 68.4219 49.7585 68.4219 50.2415ZM67.4719 50.2415C67.4719 49.9195 67.4236 49.6296 67.2786 49.3881C67.1498 49.1465 66.9727 48.9533 66.7472 48.8084C66.5218 48.6635 66.2641 48.599 65.9904 48.599C65.7166 48.599 65.459 48.6635 65.2335 48.8084C65.0081 48.9533 64.831 49.1304 64.7021 49.3881C64.5733 49.6296 64.5089 49.9195 64.5089 50.2415C64.5089 50.5636 64.5572 50.8374 64.7021 51.0789C64.831 51.3205 65.0081 51.5137 65.2335 51.6586C65.459 51.8035 65.7166 51.868 65.9904 51.868C66.2641 51.868 66.5218 51.8035 66.7472 51.6586C66.9727 51.5137 67.1498 51.3205 67.2786 51.0789C67.4075 50.8374 67.4719 50.5636 67.4719 50.2415Z" fill="#252525"/>
<path d="M72.1419 48.8567C72.0775 48.8245 72.0131 48.8084 71.9164 48.7762C71.8359 48.7601 71.7393 48.744 71.6427 48.744C71.4494 48.744 71.2562 48.7923 71.063 48.8889C70.8697 48.9855 70.7248 49.1304 70.596 49.3237C70.4671 49.5169 70.4027 49.7262 70.4027 49.9839V52.6248H69.4526V47.8261H70.4027V48.7279C70.5316 48.438 70.7409 48.1965 71.0146 48.0032C71.2884 47.81 71.5622 47.7134 71.8681 47.7134C72.0936 47.7134 72.2707 47.7456 72.3834 47.81L72.1419 48.8567Z" fill="#252525"/>
<path d="M76.1675 50.7246C76.4091 51.0789 76.6828 51.3688 76.9405 51.562C77.2142 51.7552 77.5685 51.8519 78.0033 51.8519C78.2126 51.8519 78.4059 51.8196 78.5991 51.7552C78.7923 51.6908 78.9373 51.5942 79.0661 51.4654C79.1949 51.3366 79.2432 51.1916 79.2432 51.0145C79.2432 50.7085 79.1144 50.467 78.8567 50.306C78.5991 50.1288 78.2287 50 77.7617 49.9195C77.1659 49.7907 76.6828 49.5813 76.3447 49.2915C75.9904 48.9855 75.8133 48.5507 75.8133 47.9871C75.8133 47.6168 75.9099 47.3108 76.1192 47.037C76.3286 46.7633 76.5862 46.5701 76.9244 46.409C77.2625 46.2641 77.6168 46.1836 78.0033 46.1836C78.5025 46.1836 78.9373 46.2802 79.3076 46.4734C79.678 46.6667 79.9517 46.9404 80.1611 47.3108L79.4687 48.0032C79.3076 47.7295 79.0983 47.504 78.8406 47.343C78.583 47.1659 78.2931 47.0854 77.9711 47.0854C77.6329 47.0854 77.3592 47.1659 77.1337 47.3108C76.9083 47.4718 76.7955 47.6812 76.7955 47.9549C76.7955 48.2609 76.9083 48.4863 77.1498 48.6312C77.3914 48.7762 77.7134 48.8889 78.0999 48.9694C78.4542 49.0499 78.7923 49.1626 79.1305 49.3076C79.4526 49.4525 79.7102 49.6618 79.9195 49.9034C80.1289 50.1449 80.2255 50.4348 80.2255 50.7729C80.2255 51.3849 80.0162 51.868 79.5975 52.2222C79.1788 52.5765 78.6152 52.7536 77.8906 52.7536C77.3914 52.7536 76.9405 52.657 76.5379 52.4638C76.1353 52.2705 75.7811 51.9485 75.4751 51.5137L76.1675 50.7246Z" fill="#252525"/>
<path d="M81.9809 50.2415C81.9809 50.5636 82.0453 50.8374 82.1902 51.0789C82.3351 51.3205 82.5284 51.5137 82.7538 51.6586C82.9954 51.8035 83.2369 51.868 83.5107 51.868C83.8166 51.868 84.0743 51.7874 84.2997 51.6264C84.5252 51.4654 84.7023 51.3043 84.8472 51.1272L85.3625 51.7713C85.2498 51.9324 85.0888 52.0934 84.8955 52.2383C84.7023 52.3833 84.4608 52.496 84.2031 52.5926C83.9455 52.6731 83.6717 52.7214 83.398 52.7214C82.9632 52.7214 82.5606 52.6087 82.2063 52.3994C81.852 52.1739 81.5783 51.8841 81.3689 51.4976C81.1596 51.1272 81.063 50.6924 81.063 50.2254C81.063 49.7585 81.1596 49.3237 81.3689 48.9533C81.5783 48.5829 81.852 48.277 82.2063 48.0676C82.5606 47.8422 82.9632 47.7456 83.398 47.7456C83.8488 47.7456 84.2353 47.8422 84.5896 48.0193C84.9439 48.1965 85.2015 48.438 85.3625 48.7118L84.8472 49.3559C84.7023 49.1465 84.5091 48.9694 84.2514 48.8245C83.9938 48.6796 83.7361 48.599 83.4946 48.599C83.2047 48.599 82.9471 48.6634 82.7216 48.8084C82.4962 48.9533 82.3029 49.1465 82.1741 49.3881C82.0614 49.6457 81.9809 49.9195 81.9809 50.2415Z" fill="#252525"/>
<path d="M88.7762 47.7456C89.211 47.7456 89.5492 47.8261 89.7746 48.0032C90.0162 48.1804 90.1772 48.4219 90.2738 48.7118C90.3704 49.0177 90.4188 49.3398 90.4188 49.7101V52.6248H89.4848V49.7585C89.4848 49.533 89.4526 49.3237 89.3882 49.1304C89.3237 48.9533 89.2271 48.8084 89.0822 48.6957C88.9373 48.599 88.7279 48.5507 88.4703 48.5668C88.2287 48.5668 88.0033 48.6151 87.8262 48.7279C87.6329 48.8245 87.488 48.9694 87.3753 49.1465C87.2626 49.3237 87.2142 49.5008 87.2142 49.7101V52.6087H86.2803V45.8454H87.2142V48.5668C87.3592 48.3414 87.5685 48.1481 87.8584 47.971C88.1321 47.8422 88.4381 47.7456 88.7762 47.7456Z" fill="#252525"/>
<path d="M96.2965 50.2415C96.2965 50.7246 96.1837 51.1594 95.9744 51.5298C95.7651 51.9002 95.4591 52.19 95.1048 52.4155C94.7345 52.6248 94.3319 52.7375 93.8649 52.7375C93.414 52.7375 92.9953 52.6248 92.625 52.4155C92.2546 52.2061 91.9647 51.9163 91.7393 51.5298C91.53 51.1594 91.4172 50.7246 91.4172 50.2415C91.4172 49.7585 91.53 49.3237 91.7393 48.9533C91.9486 48.5829 92.2546 48.2931 92.625 48.0676C92.9953 47.8583 93.414 47.7456 93.8649 47.7456C94.3158 47.7456 94.7345 47.8583 95.1048 48.0676C95.4752 48.277 95.7651 48.5668 95.9744 48.9533C96.1837 49.3237 96.2965 49.7585 96.2965 50.2415ZM95.3464 50.2415C95.3464 49.9195 95.2981 49.6296 95.1532 49.3881C95.0243 49.1465 94.8472 48.9533 94.6217 48.8084C94.3963 48.6635 94.1387 48.599 93.8649 48.599C93.5912 48.599 93.3335 48.6635 93.1081 48.8084C92.8826 48.9533 92.7055 49.1304 92.5767 49.3881C92.4478 49.6296 92.3834 49.9195 92.3834 50.2415C92.3834 50.5636 92.4317 50.8374 92.5767 51.0789C92.7055 51.3205 92.8826 51.5137 93.1081 51.6586C93.3335 51.8035 93.5912 51.868 93.8649 51.868C94.1387 51.868 94.3963 51.8035 94.6217 51.6586C94.8472 51.5137 95.0243 51.3205 95.1532 51.0789C95.282 50.8374 95.3464 50.5636 95.3464 50.2415Z" fill="#252525"/>
<path d="M101.916 50.2415C101.916 50.7246 101.804 51.1594 101.594 51.5298C101.385 51.9002 101.079 52.19 100.725 52.4155C100.354 52.6248 99.9519 52.7375 99.4849 52.7375C99.034 52.7375 98.6153 52.6248 98.245 52.4155C97.8746 52.2061 97.5847 51.9163 97.3593 51.5298C97.15 51.1594 97.0372 50.7246 97.0372 50.2415C97.0372 49.7585 97.15 49.3237 97.3593 48.9533C97.5686 48.5829 97.8746 48.2931 98.245 48.0676C98.6153 47.8583 99.034 47.7456 99.4849 47.7456C99.9358 47.7456 100.354 47.8583 100.725 48.0676C101.095 48.277 101.385 48.5668 101.594 48.9533C101.804 49.3237 101.916 49.7585 101.916 50.2415ZM100.95 50.2415C100.95 49.9195 100.902 49.6296 100.757 49.3881C100.628 49.1465 100.451 48.9533 100.226 48.8084C100 48.6635 99.7426 48.599 99.4688 48.599C99.195 48.599 98.9374 48.6635 98.712 48.8084C98.4865 48.9533 98.3094 49.1304 98.1806 49.3881C98.0517 49.6296 97.9873 49.9195 97.9873 50.2415C97.9873 50.5636 98.0356 50.8374 98.1806 51.0789C98.3094 51.3205 98.4865 51.5137 98.712 51.6586C98.9374 51.8035 99.195 51.868 99.4688 51.868C99.7426 51.868 100 51.8035 100.226 51.6586C100.451 51.5137 100.628 51.3205 100.757 51.0789C100.902 50.8374 100.966 50.5636 100.95 50.2415Z" fill="#252525"/>
<path d="M102.931 52.6409V45.8776H103.865V52.6409H102.931Z" fill="#252525"/>
<path d="M107.987 49.1143C107.81 48.9372 107.617 48.8084 107.407 48.6956C107.198 48.5829 106.989 48.5346 106.812 48.5346C106.683 48.5346 106.554 48.5507 106.425 48.5829C106.296 48.6151 106.2 48.6634 106.103 48.744C106.023 48.8245 105.974 48.9533 105.974 49.0982C105.974 49.3237 106.087 49.4686 106.264 49.5652C106.441 49.6618 106.699 49.7423 106.989 49.8068C107.246 49.8712 107.488 49.9517 107.713 50.0644C107.939 50.1771 108.148 50.306 108.309 50.4992C108.47 50.6924 108.535 50.9662 108.535 51.3043C108.535 51.6103 108.454 51.8518 108.277 52.0773C108.116 52.2866 107.891 52.4477 107.633 52.5604C107.375 52.6731 107.085 52.7214 106.796 52.7214C106.441 52.7214 106.103 52.657 105.765 52.5282C105.427 52.3994 105.137 52.19 104.895 51.8841L105.54 51.3365C105.701 51.5298 105.894 51.6747 106.103 51.7874C106.312 51.9002 106.57 51.9485 106.876 51.9485C106.989 51.9485 107.102 51.9324 107.23 51.8841C107.343 51.8519 107.44 51.7874 107.52 51.6908C107.601 51.6103 107.649 51.4815 107.649 51.3365C107.649 51.1916 107.601 51.0789 107.52 50.9984C107.44 50.9179 107.311 50.8535 107.166 50.8051C107.021 50.7568 106.86 50.7085 106.683 50.6602C106.425 50.5797 106.168 50.4992 105.91 50.3865C105.652 50.2737 105.443 50.1288 105.282 49.9356C105.121 49.7423 105.024 49.4686 105.024 49.1304C105.024 48.8406 105.105 48.599 105.266 48.3897C105.427 48.1804 105.636 48.0354 105.894 47.9227C106.151 47.81 106.441 47.7617 106.731 47.7617C107.021 47.7617 107.327 47.8261 107.665 47.9388C108.003 48.0676 108.277 48.2609 108.502 48.5185L107.987 49.1143Z" fill="#252525"/>
</g>
<defs>
<clipPath id="clip0">
<rect width="143.72" height="60" fill="white"/>
</clipPath>
</defs>
</svg>
