<svg width="144" height="60" viewBox="0 0 144 60" fill="none" xmlns="http://www.w3.org/2000/svg">
<path d="M42.7053 18.4541C42.657 18.2931 42.6087 18.1481 42.5282 18.0354C42.5604 18.1803 42.6248 18.3253 42.7053 18.4541Z" fill="white"/>
<path d="M18.8245 52.1578L19.5491 52.6248C19.3237 52.3189 19.066 52.2061 18.8245 52.1578Z" fill="white"/>
<path d="M4.57329 6.84378C4.52498 8.14813 4.38006 8.5346 4.31564 8.76005C4.29954 8.82446 4.28344 8.85667 4.26733 8.90497V8.92108C4.26733 8.96939 4.26733 9.06601 4.33175 9.33976C4.49278 10.0161 5.44286 10.3381 7.2303 10.3381C7.61677 10.3381 7.90662 10.2898 8.06765 10.1932L8.21258 10.1127L8.22868 9.93557C8.26089 9.72623 8.16427 9.43638 7.97104 8.93718L7.95493 8.90497C7.87442 8.69563 7.7939 8.48629 7.74559 8.27696C7.64897 7.89048 7.69728 7.53621 7.92273 7.24636C8.48633 6.52172 9.9034 6.48952 10.0644 6.48952C10.2255 6.48952 11.6586 6.50562 12.2222 7.24636C12.4477 7.53621 12.496 7.87438 12.3994 8.27696C12.335 8.5024 12.2544 8.72784 12.1739 8.93718C11.9807 9.43638 11.9002 9.72623 11.9163 9.93557L11.9324 10.1127L12.0773 10.1932C12.2544 10.2898 12.5282 10.3381 12.9308 10.3381C14.7182 10.3381 15.6683 10.0161 15.8293 9.33976C15.8937 9.09821 15.8937 9.00159 15.8937 8.96939V8.90497C15.8937 8.88887 15.8776 8.82446 15.8454 8.76005C15.781 8.56681 15.6361 8.16423 15.5878 6.85989C15.5556 6.03863 15.6683 5.50723 15.9581 5.21737C16.1353 5.02414 16.3929 4.92752 16.6828 4.92752C17.0532 4.92752 17.4557 5.07245 17.81 5.20127L17.8422 5.21737C18.1643 5.3462 18.438 5.42671 18.6474 5.44282H18.8406L18.9533 5.3462C19.5491 4.78259 19.4525 3.57486 19.4364 3.55876V3.52655C19.4203 3.15618 19.3398 2.47985 18.9372 2.10948L18.8245 2.01286H18.6796C18.4863 2.02897 18.2126 2.12558 17.8744 2.23831L17.8422 2.25441C17.4879 2.38323 17.0854 2.52816 16.715 2.52816C16.409 2.52816 16.1675 2.43154 15.9904 2.23831C15.7005 1.93235 15.5717 1.41705 15.6039 0.611897C15.6039 0.450866 15.62 0.289835 15.6361 0.161011C11.24 0.772927 7.35912 2.96294 4.55719 6.13525C4.57329 6.34459 4.57329 6.57003 4.57329 6.84378Z" fill="white"/>
<path d="M29.6779 2.23823C29.5491 2.36705 29.3237 2.52808 28.9533 2.52808C28.5829 2.52808 28.1804 2.38315 27.8261 2.25433L27.7778 2.23823C27.5201 2.14161 27.2142 2.02889 26.9887 2.01278L26.8438 1.99668L26.7311 2.0933C26.3285 2.46367 26.248 3.12389 26.2319 3.51037V3.55868C26.2319 3.57478 26.1192 4.78251 26.715 5.34612L26.8277 5.44273L26.9726 5.42663C27.1659 5.41053 27.4396 5.31391 27.7778 5.20119L27.81 5.18509C28.1642 5.05626 28.5668 4.91133 28.9372 4.91133C29.3076 4.91133 29.533 5.07236 29.6618 5.20119C29.9517 5.50715 30.0805 6.02244 30.0483 6.8437C30 8.08364 29.8712 8.48621 29.7907 8.72776C29.7585 8.82438 29.7584 8.85658 29.7423 8.88879C29.7423 8.9371 29.7423 9.03372 29.8068 9.32357C29.9678 9.9999 30.9179 10.322 32.7053 10.322C33.0918 10.322 33.3816 10.2737 33.5588 10.177L33.7037 10.0965L33.7198 9.91938C33.752 9.71004 33.6554 9.42019 33.4622 8.92099C33.3816 8.71165 33.3011 8.48621 33.2367 8.26077C33.124 7.8743 33.1884 7.52003 33.4138 7.23017C33.9774 6.50554 35.3945 6.47333 35.5555 6.47333C35.7166 6.47333 37.1497 6.48943 37.7134 7.23017C37.9388 7.52003 37.9871 7.85819 37.8905 8.26077C37.8261 8.48621 37.7456 8.69555 37.665 8.92099C37.4718 9.42019 37.3913 9.71004 37.4074 9.91938L37.4235 10.0965L37.5684 10.177C37.7456 10.2737 38.0193 10.322 38.4058 10.322C40.0161 10.322 40.9501 10.0482 41.2399 9.5007C41.0467 9.14644 40.8534 8.80827 40.6441 8.47011C38.9694 5.7809 36.57 3.55868 33.7198 2.06109C32.5604 1.44918 31.3365 0.966084 30.0483 0.611816C30.0805 1.41697 29.9678 1.93227 29.6779 2.23823Z" fill="white"/>
<path d="M16.3607 1.70692L16.4574 1.86795L16.6345 1.88406C16.6506 1.88406 16.6667 1.88406 16.6828 1.88406C16.9405 1.88406 17.2786 1.75523 17.6329 1.62641C17.8422 1.54589 18.0677 1.46538 18.277 1.40097C18.4058 1.36876 18.5186 1.35266 18.6313 1.35266C19.05 1.35266 19.6297 1.5781 19.9034 2.6087C20.0483 3.1562 20.0483 3.7037 20.0483 3.71981C20.0483 3.81642 20.0322 6.08696 18.6313 6.10306C18.5186 6.10306 18.3897 6.08696 18.277 6.05475C18.0516 5.99034 17.8261 5.90982 17.6168 5.82931C17.2142 5.68438 16.9083 5.57166 16.6828 5.57166C16.6667 5.57166 16.6506 5.57166 16.6345 5.57166L16.4574 5.58776L16.3607 5.74879C16.2641 5.90982 16.2158 6.19968 16.2158 6.58615C16.2158 8.37359 16.5379 9.32367 17.2142 9.4847C17.4558 9.54911 17.5524 9.54911 17.6007 9.54911H17.649C17.6973 9.54911 17.7295 9.53301 17.81 9.5008C18.0516 9.42029 18.4702 9.29146 19.6941 9.24316C19.7746 9.24316 19.8551 9.24316 19.9356 9.24316C20.7086 9.24316 21.1917 9.42029 21.4493 9.77456C21.7875 10.2738 21.5459 10.934 21.3366 11.5137C21.2078 11.8357 21.1112 12.1256 21.1112 12.3188V12.4638L21.2078 12.5765C21.6264 13.0274 22.4316 13.0757 22.7537 13.0757C22.8986 13.0757 22.9952 13.0596 22.9952 13.0596H23.0274C23.3978 13.0435 24.0741 12.963 24.4606 12.5604L24.5572 12.4477V12.3027C24.5411 12.1095 24.4445 11.8357 24.3318 11.4976C24.1224 10.9179 23.8648 10.2415 24.219 9.75845C24.4606 9.40419 24.9598 9.22705 25.7327 9.22705C25.8132 9.22705 25.8938 9.22705 25.9743 9.22705C27.182 9.27536 27.6007 9.40419 27.8583 9.5008C27.9388 9.53301 27.9711 9.53301 28.0194 9.54911H28.0677C28.116 9.54911 28.2126 9.54911 28.4541 9.4847C29.1305 9.32367 29.4525 8.37359 29.4525 6.58615C29.4525 6.19968 29.4042 5.90982 29.3076 5.74879L29.211 5.58776L29.0178 5.57166C29.0016 5.57166 29.0016 5.57166 28.9855 5.57166C28.744 5.57166 28.4541 5.68438 28.0516 5.82931C27.8422 5.90982 27.6168 5.99034 27.3913 6.05475C27.2625 6.08696 27.1498 6.10306 27.0371 6.10306C26.6184 6.10306 26.0709 5.89372 25.781 4.91143C25.62 4.34783 25.62 3.76812 25.62 3.75201C25.62 3.65539 25.6361 1.38486 27.0371 1.38486C27.1498 1.38486 27.2786 1.40097 27.3913 1.43317C27.6007 1.49758 27.8261 1.5781 28.0516 1.65862C28.3897 1.78744 28.744 1.91626 28.9855 1.91626C29.0016 1.91626 29.0178 1.91626 29.0339 1.91626L29.211 1.90016L29.3076 1.73913C29.4042 1.562 29.4525 1.28824 29.4525 0.901771C29.4525 0.756844 29.4525 0.611916 29.4525 0.483092C28.0999 0.161031 26.6989 0 25.2657 0H24.6538H18.2126C17.5524 0 16.8921 0.0322061 16.248 0.112721C16.2319 0.354267 16.2158 0.611916 16.2158 0.901771C16.2158 1.25604 16.2641 1.54589 16.3607 1.70692Z" fill="white"/>
<path d="M2.51201 9.54907H2.56032C2.60863 9.54907 2.70525 9.54907 2.9468 9.48465C3.59092 9.32362 3.91298 8.45406 3.94519 6.84375C3.30106 7.66501 2.70525 8.53457 2.20605 9.46855C2.25436 9.48466 2.30267 9.50076 2.35098 9.51686C2.4315 9.53296 2.47981 9.54907 2.51201 9.54907Z" fill="white"/>
<path d="M3.12399 21.9806C3.18841 21.7391 3.18841 21.6425 3.18841 21.5941V21.5297C3.18841 21.4975 3.1723 21.4653 3.1401 21.3848C3.07568 21.1755 2.93076 20.7729 2.88245 19.4846C2.85024 18.6634 2.96296 18.132 3.25282 17.8421C3.38164 17.7133 3.60709 17.5523 3.97746 17.5523C4.34783 17.5523 4.7504 17.6972 5.10467 17.826H5.12077C5.44283 17.9549 5.71659 18.0354 5.92593 18.0515L6.07085 18.0676L6.18358 17.971C6.77939 17.4073 6.68277 16.1996 6.66667 16.1835V16.1513C6.65056 15.7809 6.57005 15.1046 6.16747 14.7342L6.05475 14.6376H5.90982C5.71659 14.6537 5.45894 14.7342 5.08857 14.8631L5.05636 14.8792C4.70209 15.008 4.29952 15.1529 3.92915 15.1529C3.62319 15.1529 3.38164 15.0563 3.20451 14.8631C2.91465 14.5571 2.80193 14.0418 2.83414 13.2367C2.88245 11.9323 3.02738 11.5458 3.09179 11.3204C3.12399 11.2399 3.12399 11.2077 3.1401 11.1755V11.1433C3.1401 11.0949 3.1401 10.9983 3.07568 10.7407C2.97907 10.3381 2.59259 10.0644 1.93237 9.90332C0.708535 12.3993 0 15.2012 0 18.1803C0 19.8389 0.225443 21.4492 0.644122 22.979C2.15781 22.9307 2.97907 22.6086 3.12399 21.9806Z" fill="white"/>
<path d="M16.5701 18.4059L16.4895 18.2449L16.3124 18.2288C16.2963 18.2288 16.2802 18.2288 16.248 18.2288C16.0226 18.2288 15.7166 18.3415 15.314 18.4864C15.1047 18.5669 14.8792 18.6474 14.6538 18.7118C14.525 18.7441 14.4122 18.7602 14.2995 18.7602C13.8808 18.7602 13.3333 18.5508 13.0435 17.5685C12.8825 17.021 12.8825 16.4735 12.8825 16.4091C12.8825 16.3125 12.8986 14.042 14.2995 14.042C14.4122 14.042 14.5411 14.0581 14.6538 14.0903C14.8792 14.1547 15.1047 14.2352 15.314 14.3157C15.6522 14.4445 15.9903 14.5734 16.248 14.5734C16.2641 14.5734 16.2802 14.5734 16.2963 14.5734L16.4734 14.5573L16.5701 14.3962C16.6667 14.2191 16.715 13.9453 16.715 13.5589C16.715 11.7714 16.3929 10.8213 15.7166 10.6603C15.475 10.5959 15.3784 10.5959 15.3301 10.5959H15.2818C15.2496 10.5959 15.2013 10.612 15.1208 10.6442C14.8792 10.7247 14.4606 10.8536 13.2367 10.9019C13.1562 10.9019 13.0596 10.9019 12.9952 10.9019C12.2222 10.9019 11.7391 10.7247 11.4815 10.3705C11.1433 9.87127 11.3849 9.21104 11.5942 8.63133C11.7069 8.30927 11.8197 8.01942 11.8197 7.82618V7.68125L11.723 7.56853C11.3527 7.16595 10.6924 7.08544 10.306 7.06934H10.2416C10.2093 7.06934 10.1288 7.06934 10.0161 7.06934C9.69405 7.06934 8.8889 7.11765 8.47022 7.56853L8.3736 7.64905V7.79397C8.3736 7.97111 8.47022 8.21265 8.59904 8.59913C8.80838 9.17884 9.06603 9.85516 8.71177 10.3383C8.47022 10.6925 7.97102 10.8697 7.19808 10.8697C7.11756 10.8697 7.03705 10.8697 6.95653 10.8697C5.7327 10.8213 5.31402 10.6925 5.07247 10.612C4.99196 10.5798 4.94365 10.5798 4.89534 10.5637H4.86313C4.81483 10.5637 4.71821 10.5637 4.47666 10.6281C3.80033 10.7891 3.47827 11.7392 3.47827 13.5267C3.47827 13.9131 3.52658 14.203 3.6232 14.364L3.71982 14.5251L3.91305 14.5412C3.92916 14.5412 3.94526 14.5412 3.96136 14.5412C4.18681 14.5412 4.49276 14.4284 4.89534 14.2835H4.91144C5.12078 14.203 5.34623 14.1225 5.55557 14.0742C5.68439 14.042 5.79711 14.0259 5.90983 14.0259C6.32851 14.0259 6.89212 14.2513 7.18197 15.2819C7.3269 15.8294 7.3269 16.393 7.3269 16.393C7.3269 16.4896 7.3108 18.7763 5.90983 18.7763C5.79711 18.7763 5.66829 18.7602 5.55557 18.7279C5.33012 18.6635 5.12078 18.583 4.89534 18.5025C4.55718 18.3737 4.21901 18.2449 3.96136 18.2449C3.94526 18.2449 3.92916 18.2449 3.91305 18.2449L3.71982 18.261L3.6232 18.422C3.52658 18.583 3.47827 18.8729 3.47827 19.2593C3.47827 21.0468 3.80033 21.9969 4.47666 22.1579C4.71821 22.2223 4.81483 22.2223 4.86313 22.2223H4.91144C4.95975 22.2223 4.99196 22.2062 5.07247 22.174C5.31402 22.0935 5.7327 21.9647 6.95653 21.9164C7.03705 21.9164 7.13367 21.9164 7.19808 21.9164C7.97102 21.9164 8.45412 22.0935 8.71177 22.4478C9.04993 22.9469 8.80838 23.6072 8.59904 24.1869C8.48632 24.5089 8.3736 24.7988 8.3736 24.992V25.137L8.47022 25.2497C8.8889 25.7006 9.69405 25.7489 10.0161 25.7489C10.1288 25.7489 10.2093 25.7489 10.2416 25.7489H10.2899C10.6602 25.7328 11.3366 25.6523 11.7069 25.2497L11.8036 25.137V24.992C11.8036 24.8149 11.7069 24.5573 11.5781 24.1869C11.3688 23.6072 11.1111 22.9308 11.4654 22.4478C11.7069 22.0935 12.2061 21.9164 12.9791 21.9164C13.0596 21.9164 13.1401 21.9164 13.2206 21.9164C14.4445 21.9647 14.8631 22.0935 15.1047 22.174C15.1852 22.2062 15.2335 22.2223 15.2818 22.2223H15.314C15.3623 22.2223 15.4589 22.2223 15.7005 22.1579C16.3768 21.9969 16.6989 21.0468 16.6989 19.2593C16.715 18.8568 16.6667 18.5669 16.5701 18.4059Z" fill="white"/>
<path d="M29.2753 14.5251L29.4686 14.5412C29.4847 14.5412 29.5008 14.5412 29.5008 14.5412C29.7262 14.5412 30.0322 14.4284 30.4348 14.2835L30.467 14.2674C30.6763 14.1869 30.8856 14.1064 31.095 14.0581C31.2238 14.0259 31.3365 14.0098 31.4493 14.0098C31.8679 14.0098 32.4315 14.2352 32.7214 15.2658C32.8663 15.8133 32.8663 16.3769 32.8663 16.3769C32.8663 16.4735 32.8502 18.7602 31.4493 18.7602C31.3365 18.7602 31.2077 18.7441 31.095 18.7118C30.8695 18.6474 30.6441 18.5669 30.4348 18.4864C30.0966 18.3576 29.7584 18.2288 29.5008 18.2288C29.4847 18.2288 29.4686 18.2288 29.4525 18.2288L29.2592 18.2449L29.1626 18.4059C29.066 18.5669 29.0177 18.8568 29.0177 19.2432C29.0177 21.0307 29.3397 21.9808 30.0161 22.1418C30.2576 22.2062 30.3542 22.2062 30.4026 22.2062H30.4509C30.4992 22.2062 30.5314 22.1901 30.6119 22.1579C30.8534 22.0774 31.2721 21.9486 32.496 21.9002C32.5765 21.9002 32.6731 21.9002 32.7375 21.9002C33.5104 21.9002 33.9935 22.0774 34.2512 22.4316C34.5893 22.9308 34.3478 23.5911 34.1385 24.1708C34.0257 24.4928 33.913 24.7827 33.913 24.9759V25.1209L34.0096 25.2336C34.4283 25.6845 35.2335 25.7328 35.5555 25.7328C35.6683 25.7328 35.7488 25.7328 35.781 25.7328H35.8293C36.1997 25.7167 36.876 25.6362 37.2464 25.2336L37.343 25.1209V24.9759C37.343 24.7988 37.2464 24.5573 37.1175 24.1708C36.9082 23.5911 36.6505 22.9147 37.0048 22.4316C37.2464 22.0774 37.7455 21.9002 38.5185 21.9002C38.599 21.9002 38.6795 21.9002 38.76 21.9002C39.9839 21.9486 40.4026 22.0774 40.6441 22.1579C40.7246 22.1901 40.7729 22.2062 40.8212 22.2062H40.8534C40.9017 22.2062 40.9984 22.2062 41.2399 22.1418C41.9162 21.9808 42.2383 21.0307 42.2383 19.2432C42.2383 18.8568 42.19 18.5669 42.0934 18.4059L42.0129 18.2449L41.8357 18.2288C41.8196 18.2288 41.8035 18.2288 41.7713 18.2288C41.5459 18.2288 41.2399 18.3415 40.8373 18.4864C40.628 18.5669 40.4026 18.6474 40.1771 18.7118C40.0483 18.7441 39.9356 18.7602 39.8228 18.7602C39.4042 18.7602 38.8567 18.5508 38.5668 17.5685C38.4058 17.021 38.4058 16.4735 38.4058 16.4091C38.4058 16.3125 38.4219 14.042 39.8228 14.042C39.9356 14.042 40.0644 14.0581 40.1771 14.0903C40.4026 14.1547 40.628 14.2352 40.8373 14.3157C41.1755 14.4445 41.5137 14.5734 41.7713 14.5734C41.7874 14.5734 41.8035 14.5734 41.8196 14.5734L41.9968 14.5573L42.0934 14.3962C42.19 14.2191 42.2383 13.9453 42.2383 13.5589C42.2383 11.7714 41.9162 10.8213 41.2399 10.6603C40.9984 10.5959 40.9017 10.5959 40.8534 10.5959H40.8051C40.7729 10.5959 40.7246 10.612 40.6441 10.6442C40.4026 10.7247 39.9839 10.8536 38.76 10.9019C38.6795 10.9019 38.5829 10.9019 38.5185 10.9019C37.7455 10.9019 37.2625 10.7247 37.0048 10.3705C36.6666 9.87127 36.9082 9.21104 37.1175 8.63133C37.2625 8.26096 37.343 8.00331 37.343 7.82618V7.68125L37.2464 7.56853C36.876 7.16595 36.2158 7.08544 35.8293 7.06934H35.7649C35.7327 7.06934 35.6521 7.06934 35.5394 7.06934C35.2174 7.06934 34.4122 7.11765 33.9935 7.56853L33.8969 7.68125V7.82618C33.8969 8.00331 33.9935 8.24486 34.1224 8.63133C34.3317 9.21104 34.5893 9.88737 34.2351 10.3705C33.9935 10.7247 33.4943 10.9019 32.7214 10.9019C32.6409 10.9019 32.5604 10.9019 32.4798 10.9019C31.256 10.8536 30.8373 10.7247 30.5958 10.6442C30.5153 10.612 30.467 10.612 30.4187 10.5959H30.3864C30.3381 10.5959 30.2415 10.5959 30 10.6603C29.3236 10.8213 29.0016 11.7714 29.0016 13.5589C29.0016 13.9453 29.0499 14.2352 29.1465 14.3962L29.2753 14.5251Z" fill="white"/>
<path d="M43.446 19.0176C43.2528 18.8888 43.0595 18.776 42.8502 18.6633C42.8019 18.5989 42.7536 18.5345 42.7053 18.454C42.7697 18.7277 42.8019 19.082 42.7858 19.5007C42.7375 20.7245 42.6086 21.1432 42.512 21.3847C42.4798 21.4652 42.4798 21.4975 42.4637 21.5458C42.4637 21.6102 42.4476 21.6907 42.5281 21.9805C42.6892 22.6569 43.6392 22.9789 45.4267 22.9789C45.8132 22.9789 46.103 22.9306 46.264 22.834L46.4251 22.7535L46.4412 22.5764C46.4734 22.367 46.3768 22.0772 46.1835 21.578V21.5619C46.103 21.3525 46.0386 21.1432 45.9742 20.95C45.2334 20.2736 44.4283 19.6456 43.5748 19.0981C43.5426 19.082 43.4943 19.0498 43.446 19.0176Z" fill="white"/>
<path d="M42.3994 14.8953C42.2706 15.0241 42.0452 15.1852 41.6748 15.1852C41.3044 15.1852 40.9019 15.0402 40.5476 14.9114H40.5315C40.2094 14.7826 39.9357 14.7021 39.7424 14.686L39.5975 14.6699L39.4848 14.7665C39.0822 15.1369 39.0017 15.7971 38.9856 16.1675V16.2158C38.9856 16.2319 38.8729 17.4396 39.4848 18.0032L39.5975 18.0998L39.7424 18.0837C39.9357 18.0676 40.1933 17.9871 40.5315 17.8583L40.5637 17.8422C40.9019 17.7134 41.3205 17.5684 41.6909 17.5684C41.9969 17.5684 42.2384 17.665 42.4155 17.8583C42.4639 17.9066 42.5122 17.971 42.5444 18.0354C42.5283 17.9549 42.5122 17.8583 42.5122 17.7617C42.5122 17.7295 42.5122 17.7134 42.5122 17.6811C42.5122 17.0692 42.8825 16.5539 43.3978 16.3285C43.2851 15.2818 43.0919 14.2512 42.8181 13.2528C42.8181 14.0741 42.7054 14.5894 42.3994 14.8953Z" fill="white"/>
<path d="M8.24479 35.3303C8.27699 35.137 8.18037 34.8311 7.98714 34.3319L7.97103 34.2997C7.89052 34.0903 7.81 33.881 7.76169 33.6716C7.66507 33.2852 7.71338 32.9309 7.93883 32.641C8.50243 31.9164 9.9195 31.8842 10.0805 31.8842C10.2416 31.8842 11.6747 31.9003 12.2383 32.641C12.4638 32.9309 12.5121 33.2691 12.4155 33.6716C12.3511 33.8971 12.2705 34.1225 12.19 34.3319C11.9968 34.8311 11.9163 35.1209 11.9324 35.3303L11.9485 35.5074L12.0934 35.5879C12.2544 35.6845 12.5443 35.7328 12.9469 35.7328C14.7343 35.7328 15.6844 35.4108 15.8454 34.7344C15.9098 34.4607 15.9098 34.3802 15.9098 34.3641V34.2997C15.9098 34.2836 15.8937 34.2191 15.8615 34.1547C15.7971 33.9615 15.6522 33.5589 15.6039 32.2546C15.5717 31.4333 15.6844 30.9019 15.9743 30.6121C16.1514 30.4188 16.409 30.3222 16.6989 30.3222C17.0693 30.3222 17.4718 30.4671 17.8261 30.596L17.8583 30.6121C18.1321 30.7087 18.438 30.8214 18.6635 30.8375L18.8084 30.8536L18.9211 30.757C19.5169 30.1934 19.4203 28.9856 19.4042 28.9695V28.9373C19.3881 28.567 19.3076 27.8906 18.905 27.5203L18.7923 27.4237H18.6474C18.4541 27.4398 18.1804 27.5364 17.8422 27.6491L17.81 27.6652C17.4557 27.794 17.0532 27.9389 16.6828 27.9389C16.3768 27.9389 16.1353 27.8423 15.9581 27.6491C15.6683 27.3431 15.5556 26.8278 15.5878 26.0227C15.6361 24.7183 15.781 24.3319 15.8454 24.1064C15.8615 24.0581 15.8776 23.9776 15.8937 23.9615V23.9293C15.8937 23.881 15.8937 23.7844 15.8293 23.5267C15.6683 22.8504 14.7182 22.5283 12.9308 22.5283C12.5443 22.5283 12.2544 22.5766 12.0773 22.6732L11.9324 22.7538L11.9163 22.9309C11.8841 23.1402 11.9807 23.4301 12.1739 23.9293C12.2544 24.1386 12.335 24.3641 12.3994 24.5895C12.496 24.976 12.4477 25.3303 12.2222 25.6201C11.723 26.2803 10.5475 26.3608 10.0644 26.377C9.53303 26.3931 8.40582 26.2481 7.93883 25.6201C7.71338 25.3303 7.66507 24.9921 7.76169 24.5895C7.81 24.3802 7.89052 24.1547 7.97103 23.9454V23.9293C8.16427 23.4301 8.24478 23.1241 8.22868 22.9309L8.21258 22.7538L8.06765 22.6732C7.89052 22.5766 7.61677 22.5283 7.23029 22.5283C5.44285 22.5283 4.49277 22.8504 4.33174 23.5267C4.26733 23.7844 4.26733 23.881 4.26733 23.9293V23.9615C4.26733 23.9937 4.28343 24.0259 4.31564 24.1064C4.39615 24.3158 4.52498 24.7344 4.57329 26.0066C4.60549 26.8278 4.49277 27.3592 4.20292 27.6491C4.07409 27.7779 3.84865 27.9389 3.47828 27.9389C3.23673 27.9389 2.97908 27.8745 2.72144 27.794C3.5749 29.1628 4.58939 30.4027 5.76491 31.4977C5.76491 31.4977 5.76491 31.4977 5.78102 31.5138C5.89374 31.6588 7.11757 33.3013 8.09986 35.5879L8.21258 35.5235L8.24479 35.3303Z" fill="white"/>
<path d="M42.2061 30.306C42.5765 30.306 42.9791 30.4509 43.3334 30.5797L43.3656 30.5958C43.6393 30.6924 43.9292 30.8052 44.1546 30.8213L44.2995 30.8374L44.4123 30.7408C45.0081 30.1771 44.8953 28.9694 44.8953 28.9533V28.9211C44.8792 28.5507 44.7987 27.8744 44.3962 27.504L44.2834 27.4074L44.1385 27.4235C43.9453 27.4396 43.6715 27.5362 43.3495 27.649L43.3172 27.6651C42.963 27.7939 42.5604 27.9388 42.19 27.9388C41.8197 27.9388 41.5942 27.7778 41.4654 27.649C41.1755 27.343 41.0467 26.8277 41.0789 26.0064C41.1272 24.7826 41.2561 24.3639 41.3366 24.1224C41.3688 24.0258 41.3688 23.9936 41.3849 23.9453C41.3849 23.8808 41.3849 23.8003 41.3205 23.5105C41.1594 22.8341 40.2094 22.5121 38.4219 22.5121C38.0354 22.5121 37.7456 22.5604 37.5685 22.657L37.4235 22.7375L37.4074 22.9147C37.3752 23.1079 37.4718 23.3978 37.6651 23.9131C37.7456 24.1224 37.8261 24.3478 37.8905 24.5733C37.9871 24.9598 37.9388 25.314 37.7134 25.6039C37.1498 26.3285 35.7327 26.3607 35.5717 26.3607C35.4106 26.3607 33.9936 26.3446 33.43 25.6039C33.2045 25.314 33.1562 24.9759 33.2528 24.5733C33.3172 24.3639 33.3978 24.1385 33.4783 23.9131C33.6715 23.4139 33.752 23.1079 33.7359 22.9147L33.7198 22.7375L33.5749 22.657C33.3978 22.5604 33.124 22.5121 32.7375 22.5121C30.9501 22.5121 30 22.8341 29.839 23.5105C29.7746 23.8003 29.7746 23.8808 29.7746 23.9453C29.7746 23.9936 29.7907 24.0258 29.8229 24.1063C29.9034 24.3478 30.0322 24.7665 30.0805 25.9903C30.1127 26.7955 30 27.3269 29.6941 27.6329C29.5652 27.7617 29.3398 27.9227 28.9694 27.9227C28.5991 27.9227 28.1965 27.7778 27.8422 27.649L27.7939 27.6329C27.5363 27.5362 27.2303 27.4235 27.021 27.4074L26.876 27.3913L26.7633 27.4879C26.3607 27.8583 26.2802 28.5185 26.2641 28.905V28.9533C26.2641 28.9694 26.1514 30.1771 26.7472 30.7408L26.8599 30.8374L27.0048 30.8213C27.1981 30.8052 27.4718 30.7085 27.81 30.5958L27.8422 30.5797C28.1965 30.4509 28.5991 30.306 28.9694 30.306C29.2754 30.306 29.5169 30.4026 29.6941 30.5958C29.9839 30.9018 30.1127 31.4171 30.0805 32.2383C30.0322 33.4783 29.9034 33.8808 29.8068 34.1385C29.7746 34.219 29.7746 34.2512 29.7585 34.2995C29.7585 34.3478 29.7585 34.4445 29.8229 34.7343C29.9839 35.4106 30.934 35.7327 32.7214 35.7327C33.1079 35.7327 33.3978 35.6844 33.5749 35.5878L33.7198 35.5073L33.7359 35.3301C33.7681 35.1208 33.6715 34.8309 33.4783 34.3317C33.3978 34.1224 33.3172 33.8969 33.2528 33.6715C33.1562 33.285 33.2045 32.9308 33.43 32.6409C33.9936 31.9163 35.4106 31.8841 35.5717 31.8841C35.7327 31.8841 37.1659 31.9002 37.7295 32.6409C37.9549 32.9308 38.0032 33.2689 37.9066 33.6715C37.8422 33.8969 37.7617 34.1224 37.6812 34.3317C37.4879 34.8309 37.4074 35.1208 37.4235 35.3301L37.4396 35.5073L37.5846 35.5878C37.7617 35.6844 38.0354 35.7327 38.4219 35.7327C40.2094 35.7327 41.1594 35.4106 41.3205 34.7343C41.3849 34.4606 41.3849 34.38 41.3849 34.3156V34.2834C41.3849 34.2512 41.3688 34.219 41.3366 34.1385C41.2561 33.8969 41.1272 33.4783 41.0789 32.2544C41.0467 31.4493 41.1594 30.9179 41.4654 30.6119C41.6586 30.4026 41.9163 30.306 42.2061 30.306Z" fill="white"/>
<path d="M29.4686 17.649C29.839 17.649 30.2415 17.7939 30.5958 17.9227L30.628 17.9388C30.9018 18.0355 31.1916 18.1482 31.4171 18.1643L31.562 18.1804L31.6747 18.0838C32.2705 17.5202 32.1578 16.3124 32.1578 16.2963V16.2641C32.1417 15.8937 32.0612 15.2174 31.6586 14.847L31.5459 14.7504L31.401 14.7665C31.2077 14.7826 30.934 14.8793 30.6119 14.992L30.5797 15.0081C30.2254 15.1369 29.8229 15.2818 29.4525 15.2818C29.0821 15.2818 28.8567 15.1208 28.7278 14.992C28.438 14.686 28.3092 14.1707 28.3414 13.3495C28.3897 12.1256 28.5185 11.707 28.599 11.4654C28.6312 11.3688 28.6312 11.3366 28.6473 11.2883C28.6473 11.2239 28.6473 11.1433 28.5829 10.8535C28.4219 10.1772 27.4718 9.8551 25.6844 9.8551C25.2979 9.8551 25.008 9.90341 24.8309 10L24.686 10.0805L24.6699 10.2577C24.6377 10.4509 24.7343 10.7408 24.9275 11.2561C25.008 11.4654 25.0886 11.6908 25.153 11.9163C25.2496 12.3028 25.2013 12.657 24.9758 12.9469C24.4122 13.6715 22.9952 13.7037 22.8341 13.7037C22.6731 13.7037 21.256 13.6876 20.6924 12.9469C20.467 12.657 20.4187 12.3189 20.5153 11.9163C20.5797 11.707 20.6602 11.4815 20.7407 11.2561C20.934 10.7569 21.0145 10.4509 20.9984 10.2577L20.9823 10.0805L20.8373 10C20.6602 9.90341 20.3865 9.8551 20 9.8551C18.2126 9.8551 17.2625 10.1772 17.1014 10.8535C17.037 11.1433 17.037 11.2239 17.037 11.2883C17.037 11.3366 17.0531 11.3688 17.0853 11.4493C17.1659 11.6909 17.2947 12.1095 17.343 13.3334C17.3752 14.1385 17.2625 14.6699 16.9565 14.9759C16.8277 15.1047 16.6022 15.2657 16.2319 15.2657C15.8615 15.2657 15.4589 15.1208 15.1047 14.992L15.0564 14.9759C14.7987 14.8793 14.4927 14.7665 14.2834 14.7504L14.1385 14.7343L14.0258 14.8309C13.6232 15.2013 13.5427 15.8615 13.5266 16.248V16.2963C13.5266 16.3124 13.4138 17.5202 14.0097 18.0838L14.1224 18.1804L14.2673 18.1643C14.4605 18.1482 14.7343 18.0516 15.0725 17.9388L15.1047 17.9227C15.4589 17.7939 15.8615 17.649 16.2319 17.649C16.5378 17.649 16.7794 17.7456 16.9565 17.9388C17.2464 18.2448 17.3752 18.7601 17.343 19.5813C17.2947 20.8213 17.1659 21.2239 17.0692 21.4815C17.037 21.562 17.037 21.5942 17.0209 21.6425C17.0209 21.6908 17.0209 21.7875 17.0853 22.0773C17.2464 22.7536 18.1964 23.0757 19.9839 23.0757C20.3704 23.0757 20.6602 23.0274 20.8373 22.9308L20.9823 22.8503L20.9984 22.6731C21.0306 22.4638 20.934 22.1739 20.7407 21.6747C20.6602 21.4654 20.5797 21.24 20.5153 21.0145C20.4187 20.628 20.467 20.2738 20.6924 19.9839C21.256 19.2593 22.6731 19.2271 22.8341 19.2271C22.9952 19.2271 24.4283 19.2432 24.9919 19.9839C25.2174 20.2738 25.2657 20.6119 25.1691 21.0145C25.1047 21.24 25.0241 21.4654 24.9436 21.6747C24.7504 22.1739 24.6699 22.4638 24.686 22.6731L24.7021 22.8503L24.847 22.9308C25.0241 23.0274 25.2979 23.0757 25.6844 23.0757C27.4718 23.0757 28.4219 22.7536 28.5829 22.0773C28.6473 21.8036 28.6473 21.7231 28.6473 21.6586V21.6264C28.6473 21.5942 28.6312 21.562 28.599 21.4815C28.5185 21.24 28.3897 20.8213 28.3414 19.5974C28.3092 18.7923 28.4219 18.2609 28.7278 17.9549C28.9211 17.7456 29.1787 17.649 29.4686 17.649Z" fill="#00D857"/>
<path d="M29.2271 30.9824L29.05 30.9663C29.0339 30.9663 29.0178 30.9663 28.9855 30.9663C28.744 30.9663 28.4541 31.079 28.0516 31.2239C27.8422 31.3045 27.6168 31.385 27.3913 31.4494C27.2625 31.4816 27.1498 31.4977 27.0371 31.4977C26.6184 31.4977 26.0709 31.2884 25.781 30.3061C25.62 29.7425 25.62 29.1627 25.62 29.1466C25.62 29.05 25.6361 26.7795 27.0371 26.7795C27.1498 26.7795 27.2786 26.7956 27.3913 26.8278C27.6007 26.8922 27.8261 26.9727 28.0516 27.0532C28.3897 27.1821 28.7279 27.3109 28.9855 27.3109C29.0016 27.3109 29.0178 27.3109 29.0339 27.3109L29.211 27.2948L29.3076 27.1338C29.4042 26.9566 29.4525 26.6829 29.4525 26.2964C29.4525 24.509 29.1305 23.5589 28.4541 23.3979C28.2126 23.3334 28.116 23.3334 28.0677 23.3334H28.0194C27.9872 23.3334 27.9388 23.3495 27.8583 23.3818C27.6168 23.4623 27.1981 23.5911 25.9743 23.6394C25.8938 23.6394 25.7971 23.6394 25.7327 23.6394C24.9598 23.6394 24.4767 23.4623 24.219 23.108C23.8809 22.6088 24.1224 21.9486 24.3318 21.3689C24.4606 21.0468 24.5572 20.757 24.5572 20.5637V20.4188L24.4606 20.3061C24.0902 19.9035 23.43 19.823 23.0435 19.8069H22.9952C22.9791 19.8069 22.8986 19.7908 22.7537 19.7908C22.4316 19.7908 21.6264 19.8391 21.2078 20.29L21.1112 20.4027V20.5476C21.1273 20.7409 21.2239 21.0307 21.3366 21.3528C21.5459 21.9325 21.8036 22.6088 21.4493 23.0919C21.2078 23.4462 20.7086 23.6233 19.9356 23.6233C19.8551 23.6233 19.7746 23.6233 19.6941 23.6233C18.4702 23.575 18.0516 23.4301 17.81 23.3657C17.7295 23.3334 17.6812 23.3334 17.6329 23.3173H17.6007C17.5524 23.3173 17.4558 23.3173 17.2142 23.3818C16.5379 23.5428 16.2158 24.4929 16.2158 26.2803C16.2158 26.6668 16.2641 26.9566 16.3607 27.1177L16.4574 27.2787L16.6345 27.2948C16.6506 27.2948 16.6667 27.2948 16.6828 27.2948C16.9405 27.2948 17.2786 27.166 17.6168 27.0371H17.6329C17.8422 26.9566 18.0677 26.8761 18.277 26.8278C18.4058 26.7956 18.5186 26.7795 18.6313 26.7795C19.05 26.7795 19.6297 27.0049 19.9034 28.0355C20.0483 28.583 20.0483 29.1305 20.0483 29.1466C20.0483 29.2433 20.0322 31.5138 18.6313 31.5299C18.5186 31.5299 18.3897 31.5138 18.277 31.4816C18.0516 31.4172 17.8261 31.3367 17.6168 31.2561C17.2142 31.1112 16.9083 30.9985 16.6828 30.9985C16.6667 30.9985 16.6506 30.9985 16.6345 30.9985L16.4574 31.0146L16.3607 31.1756C16.2641 31.3367 16.2158 31.6265 16.2158 32.013C16.2158 33.8004 16.5379 34.7505 17.2142 34.9115C17.4558 34.976 17.5524 34.976 17.6007 34.976H17.649C17.6812 34.976 17.7134 34.9599 17.81 34.9276C18.0516 34.8471 18.4702 34.7183 19.6941 34.67C19.7746 34.67 19.8712 34.67 19.9356 34.67C20.7086 34.67 21.1917 34.8471 21.4493 35.2014C21.7875 35.7006 21.5459 36.3608 21.3366 36.9405C21.2078 37.2626 21.1112 37.5524 21.1112 37.7457V37.8906L21.2078 38.0033C21.6264 38.4542 22.4316 38.5025 22.7537 38.5025C22.8986 38.5025 22.9952 38.4864 22.9952 38.4864H23.0274C23.3978 38.4703 24.0741 38.3898 24.4606 37.9872L24.5572 37.8745V37.7296C24.5411 37.5524 24.4445 37.2626 24.3318 36.9244C24.1224 36.3447 23.8648 35.6684 24.219 35.1853C24.4606 34.831 24.9598 34.6539 25.7327 34.6539C25.8132 34.6539 25.8938 34.6539 25.9743 34.6539C27.182 34.7022 27.6007 34.831 27.8583 34.9115C27.9388 34.9437 27.9711 34.9437 28.0194 34.9598H28.0677C28.116 34.9598 28.2126 34.9598 28.4541 34.8954C29.1305 34.7344 29.4525 33.7843 29.4525 31.9969C29.4525 31.6104 29.4042 31.3206 29.3076 31.1595L29.2271 30.9824Z" fill="white"/>
<path d="M3.4944 27.2786C3.5105 27.2786 3.5266 27.2786 3.54271 27.2786L3.71984 27.2625L3.81646 27.1015C3.91308 26.9243 3.96139 26.6506 3.96139 26.2641C3.96139 24.4767 3.63932 23.5266 2.963 23.3656C2.72145 23.3011 2.62483 23.3011 2.57652 23.3011H2.52821C2.4799 23.3011 2.4477 23.3173 2.36718 23.3495C2.14174 23.4139 1.78747 23.5427 0.821289 23.591C1.17556 24.7504 1.65865 25.8615 2.23836 26.9082C2.35108 26.9404 2.4638 26.9887 2.57652 27.0371C2.89858 27.1498 3.25285 27.2786 3.4944 27.2786Z" fill="white"/>
<path d="M46.86 23.0756C46.6184 23.4299 46.1192 23.607 45.3463 23.607C45.2658 23.607 45.1852 23.607 45.1047 23.607C43.8809 23.5587 43.4622 23.4299 43.2207 23.3494C43.1402 23.3172 43.0918 23.3172 43.0596 23.3011H43.0113C42.963 23.3011 42.8664 23.3011 42.6249 23.3655C41.9485 23.5265 41.6265 24.4766 41.6265 26.264C41.6265 26.6505 41.6748 26.9404 41.7714 27.1014L41.8519 27.2463L42.029 27.2624C42.0451 27.2624 42.0612 27.2624 42.0935 27.2624C42.335 27.2624 42.6893 27.1336 43.0274 27.0048C43.2368 26.9243 43.4622 26.8437 43.6877 26.7793C43.8165 26.7471 43.9292 26.731 44.0419 26.731C44.4606 26.731 45.0403 26.9565 45.3141 27.9871C45.459 28.5346 45.459 29.0982 45.459 29.0982C45.459 29.1948 45.4429 31.4814 44.0419 31.4814C43.9292 31.4814 43.8004 31.4653 43.6877 31.4331C43.4622 31.3687 43.2368 31.2882 43.0274 31.2077C42.6249 31.0627 42.3189 30.95 42.0935 30.95C42.0773 30.95 42.0612 30.95 42.0451 30.95L41.868 30.9661L41.7714 31.1272C41.6748 31.3043 41.6265 31.578 41.6265 31.9645C41.6265 33.752 41.9485 34.702 42.6249 34.8631C42.8664 34.9275 42.963 34.9275 43.0113 34.9275H43.0596C43.0918 34.9275 43.124 34.9114 43.2207 34.8792C43.4622 34.7987 43.8809 34.6698 45.1047 34.6215C45.1852 34.6215 45.2819 34.6215 45.3624 34.6215C45.9904 34.6215 46.4252 34.7342 46.6989 34.9597C46.715 34.9275 46.715 34.8792 46.7311 34.847C46.393 34.5571 46.0226 34.2834 45.6683 34.0096C46.1997 33.5426 46.715 33.0595 47.182 32.5281C46.715 31.1755 46.4091 29.7423 46.2802 28.2769C47.0693 27.9065 47.8261 27.4718 48.5508 26.9887C48.8084 26.8921 49.0339 26.7471 49.1949 26.5378C49.4042 26.2801 49.517 25.9742 49.517 25.6199C49.517 25.475 49.5009 25.3301 49.4525 25.1851C49.372 24.9436 49.2432 24.7342 49.0822 24.5732C48.4542 23.5909 47.7295 22.6731 46.9244 21.8357C47.0532 22.3027 47.1015 22.7375 46.86 23.0756Z" fill="white"/>
<path d="M28.3414 38.6473C28.3897 37.4235 28.5185 37.0048 28.599 36.7633V36.7472C28.6151 36.6827 28.6312 36.6344 28.6312 36.5861C28.6312 36.5217 28.6312 36.4412 28.5668 36.1513C28.4058 35.475 27.4557 35.153 25.6683 35.153C25.2818 35.153 24.992 35.2013 24.8148 35.2979L24.6699 35.3784L24.6538 35.5555C24.6216 35.7649 24.7182 36.0547 24.9114 36.5539C24.992 36.7633 25.0725 36.9887 25.1369 37.2141C25.2335 37.6006 25.1852 37.9549 24.9597 38.2447C24.3961 38.9694 22.9791 39.0016 22.818 39.0016C22.657 39.0016 21.2399 38.9855 20.6763 38.2447C20.4509 37.9549 20.4026 37.6167 20.4992 37.2141C20.5636 36.9887 20.6441 36.7633 20.7246 36.5539C20.9179 36.0547 20.9984 35.7649 20.9823 35.5555L20.9662 35.3784L20.8213 35.2979C20.6602 35.2013 20.3704 35.153 19.9678 35.153C18.1804 35.153 17.2303 35.475 17.0692 36.1513C16.9887 36.4412 17.0048 36.5378 17.0048 36.5861C17.0048 36.6344 17.0209 36.6666 17.037 36.7311V36.7472C17.1176 36.9887 17.2464 37.4074 17.2947 38.6312C17.3269 39.4364 17.2142 39.9678 16.9082 40.2737C16.7794 40.4026 16.5539 40.5636 16.1836 40.5636C15.8132 40.5636 15.4106 40.4187 15.0564 40.2898L15.0242 40.2737C14.7182 40.161 14.4283 40.0644 14.2351 40.0483L14.0902 40.0322L13.9775 40.1288C13.5749 40.4992 13.4944 41.1594 13.4783 41.5298V41.5781C13.4783 41.5942 13.3655 42.8019 13.9775 43.3655L14.0902 43.4621L14.2351 43.446C14.4283 43.4299 14.686 43.3494 15.0242 43.2206L15.0564 43.2045C15.4106 43.0757 15.8132 42.9307 16.1836 42.9307C16.5539 42.9307 16.7794 43.0918 16.9082 43.2206C17.1981 43.5265 17.3269 44.0418 17.2947 44.8631C17.2464 46.0869 17.1176 46.5056 17.037 46.7472C17.0048 46.8277 17.0048 46.876 16.9887 46.9082C16.9887 46.9565 16.9726 47.0531 17.0531 47.343C17.2142 48.0193 18.1643 48.3414 19.9517 48.3414C20.3382 48.3414 20.628 48.2931 20.8052 48.1964L20.9501 48.1159L20.9662 47.9388C20.9984 47.7455 20.9018 47.4396 20.7085 46.9404C20.628 46.7311 20.5475 46.5056 20.4831 46.2802C20.3704 45.8937 20.4348 45.5394 20.6602 45.2496C21.2238 44.5249 22.6409 44.4927 22.8019 44.4927C22.963 44.4927 24.3961 44.5088 24.9597 45.2496C25.1852 45.5394 25.2335 45.8776 25.1369 46.2802C25.0725 46.5056 24.992 46.7311 24.9114 46.9404C24.7182 47.4396 24.6377 47.7294 24.6538 47.9388L24.6699 48.1159L24.8148 48.1964C24.9759 48.2931 25.2657 48.3414 25.6683 48.3414C27.4557 48.3414 28.4058 48.0193 28.5668 47.343C28.6473 47.0531 28.6312 46.9565 28.6312 46.9082C28.6312 46.8599 28.6151 46.8277 28.5829 46.7311C28.5024 46.4895 28.3736 46.0708 28.3253 44.847C28.2931 44.0418 28.4058 43.5104 28.7118 43.2045C28.8406 43.0757 29.066 42.9146 29.4364 42.9146C29.8068 42.9146 30.2093 43.0596 30.5636 43.1884L30.5958 43.2045C30.8696 43.3011 31.1755 43.4138 31.3849 43.4299L31.5298 43.446L31.6425 43.3494C32.2383 42.7858 32.1417 41.5781 32.1256 41.562V41.5298C32.1095 41.1594 32.029 40.4831 31.6264 40.1127L31.5137 40.0161H31.3688C31.1755 40.0322 30.9018 40.1288 30.5797 40.2415L30.5475 40.2576C30.2093 40.3864 29.7907 40.5314 29.4203 40.5314C29.0499 40.5314 28.8245 40.3703 28.6957 40.2415C28.438 39.9678 28.3092 39.4525 28.3414 38.6473Z" fill="white"/>
<path d="M13.2205 47.2946C14.4444 47.343 14.8631 47.4718 15.1046 47.5523C15.1851 47.5845 15.2334 47.5845 15.2817 47.6006H15.3139C15.3622 47.6006 15.4589 47.6006 15.7004 47.5362C16.3767 47.3752 16.6988 46.4251 16.6988 44.6376C16.6988 44.2512 16.6505 43.9613 16.5539 43.8003L16.4734 43.6393L16.2962 43.6232C16.2801 43.6232 16.264 43.6232 16.2318 43.6232C15.9903 43.6232 15.7004 43.7359 15.2817 43.8808C15.0724 43.9613 14.847 44.0418 14.6215 44.1062C14.4927 44.1385 14.38 44.1546 14.2672 44.1546C13.8486 44.1546 13.3011 43.9452 13.0112 42.9629C12.8502 42.4154 12.8502 41.8679 12.8502 41.8035C12.8502 41.7069 12.8663 39.4364 14.2672 39.4364C14.38 39.4364 14.5088 39.4525 14.6215 39.4847C14.847 39.5491 15.0724 39.6296 15.2817 39.7101C15.6199 39.8389 15.9581 39.9678 16.2157 39.9678C16.2318 39.9678 16.2479 39.9678 16.264 39.9678L16.4573 39.9517L16.5539 39.7906C16.6505 39.6135 16.6988 39.3397 16.6988 38.9533C16.6988 37.1658 16.3767 36.2158 15.7004 36.0547C15.4589 35.9903 15.3622 35.9903 15.3139 35.9903H15.2656C15.2173 35.9903 15.1851 36.0064 15.1046 36.0386C14.8631 36.1191 14.4444 36.248 13.2205 36.2963C13.14 36.2963 13.0434 36.2963 12.979 36.2963C12.206 36.2963 11.723 36.1191 11.4653 35.7649C11.1271 35.2657 11.3687 34.6054 11.578 34.0257C11.6908 33.7037 11.8035 33.4138 11.8035 33.2206V33.0757L11.7069 32.9629C11.3365 32.5604 10.6763 32.4798 10.2898 32.4637H10.2254C10.1932 32.4637 10.1127 32.4637 9.99993 32.4637C9.67787 32.4637 8.87272 32.5121 8.45404 32.9629L8.35742 33.0757V33.2206C8.35742 33.3977 8.45404 33.6393 8.58286 34.0257C8.7922 34.6054 9.04985 35.2818 8.69559 35.7649C8.59897 35.9098 8.45404 36.0225 8.29301 36.103C9.38802 38.8567 10.0321 42.3993 8.16418 45.475L11.3043 47.4557L11.6263 47.665C11.9001 47.4396 12.3349 47.3269 12.9468 47.3269C13.0595 47.2946 13.14 47.2946 13.2205 47.2946Z" fill="white"/>
<path d="M42.1256 43.7842L42.0451 43.6231L41.868 43.607C41.8519 43.607 41.8358 43.607 41.8036 43.607C41.562 43.607 41.2721 43.7198 40.8535 43.8647C40.6441 43.9452 40.4187 44.0257 40.2093 44.0901C40.0805 44.1223 39.9678 44.1384 39.8551 44.1384C39.4364 44.1384 38.8889 43.9291 38.599 42.9468C38.438 42.3993 38.438 41.8518 38.438 41.7874C38.438 41.6908 38.4541 39.4203 39.8551 39.4203C39.9678 39.4203 40.0966 39.4364 40.2093 39.4686C40.4348 39.533 40.6602 39.6135 40.8696 39.694C41.2077 39.8228 41.5459 39.9517 41.8036 39.9517C41.8197 39.9517 41.8358 39.9517 41.8519 39.9517L42.0451 39.9355L42.1417 39.7745C42.2383 39.6135 42.2866 39.3236 42.2866 38.9372C42.2866 37.1497 41.9646 36.1996 41.2883 36.0386C41.0467 35.9742 40.9501 35.9742 40.9018 35.9742H40.8535C40.8052 35.9742 40.773 35.9903 40.6924 36.0225C40.4509 36.103 40.0322 36.2318 38.8084 36.2802C38.7279 36.2802 38.6312 36.2802 38.5668 36.2802C37.7939 36.2802 37.3108 36.103 37.0531 35.7488C36.715 35.2496 36.9565 34.5893 37.1659 34.0096C37.3108 33.6393 37.3913 33.3816 37.3913 33.2045V33.0595L37.2947 32.9468C36.9243 32.5443 36.2641 32.4637 35.8776 32.4476H35.8132C35.781 32.4476 35.7005 32.4476 35.5878 32.4476C35.2657 32.4476 34.4606 32.4959 34.0419 32.9468L33.9453 33.0595V33.2045C33.9453 33.3816 34.0419 33.6232 34.1707 34.0096C34.38 34.5893 34.6377 35.2657 34.2834 35.7488C34.0419 36.103 33.5427 36.2802 32.7697 36.2802C32.6892 36.2802 32.6087 36.2802 32.5282 36.2802C31.3044 36.2318 30.8857 36.103 30.628 36.0064C30.5636 35.9903 30.5153 35.9742 30.467 35.9581H30.4348C30.3865 35.9581 30.2899 35.9581 30.0483 36.0225C29.372 36.1835 29.0499 37.1336 29.0499 38.9211C29.0499 39.3075 29.0982 39.5974 29.1949 39.7584L29.2915 39.9194L29.4686 39.9355C29.4847 39.9355 29.5008 39.9355 29.5169 39.9355C29.7424 39.9355 30.0483 39.8228 30.4509 39.6779L30.4831 39.6618C30.6924 39.5813 30.9018 39.5008 31.1111 39.4525C31.2399 39.4203 31.3527 39.4041 31.4654 39.4041C31.8841 39.4041 32.4477 39.6296 32.7375 40.6602C32.8825 41.2077 32.8825 41.7713 32.8825 41.7713C32.8825 41.8679 32.8664 44.1545 31.4654 44.1545C31.3527 44.1545 31.2238 44.1384 31.1111 44.1062C30.8857 44.0418 30.6602 43.9613 30.4509 43.8808C30.1127 43.752 29.7746 43.6231 29.5169 43.6231C29.4847 43.6231 29.4686 43.6231 29.4525 43.6231L29.2754 43.6393L29.1949 43.8003C29.0982 43.9613 29.0499 44.2512 29.0499 44.6376C29.0499 46.4251 29.372 47.3752 30.0483 47.5362C30.2899 47.6006 30.3865 47.6006 30.4348 47.6006H30.4831C30.5153 47.6006 30.5475 47.5845 30.6441 47.5523C30.8857 47.4718 31.3044 47.3429 32.5282 47.2946C32.6087 47.2946 32.7053 47.2946 32.7697 47.2946C33.5427 47.2946 34.0258 47.4718 34.2834 47.826C34.3478 47.9066 34.38 48.0032 34.4122 48.0998C35.314 46.8115 36.3768 45.6521 37.5684 44.6537C38.5668 44.8148 39.5813 44.9114 40.628 44.9114C41.1755 44.9114 41.723 44.8792 42.2705 44.8309C42.2705 44.7665 42.2705 44.7021 42.2705 44.6376C42.2705 44.2512 42.2222 43.9613 42.1256 43.7842Z" fill="white"/>
<path d="M46.2159 44.0257C46.4091 43.913 46.5862 43.7842 46.7312 43.6232C47.166 43.1884 47.4236 42.5926 47.4236 41.9323C47.4236 41.884 47.4236 41.8357 47.4236 41.8035C47.4075 41.4654 47.3109 41.1433 47.1659 40.8534C46.9083 40 46.5862 39.1626 46.2159 38.3736C46.2159 38.3414 46.2159 38.3253 46.2159 38.2931C46.1998 38.2769 46.1837 38.2608 46.1676 38.2447C45.9421 37.9549 45.8938 37.6167 45.9904 37.2141C46.0548 37.0048 46.1354 36.7794 46.2159 36.5539C46.4091 36.0547 46.4896 35.7488 46.4735 35.5555L46.4574 35.3784L46.3125 35.2979C46.1515 35.2013 45.8616 35.153 45.459 35.153C43.6716 35.153 42.7215 35.475 42.5605 36.1513C42.48 36.4412 42.4961 36.5378 42.4961 36.5861C42.4961 36.6344 42.5122 36.6666 42.5444 36.7633C42.6249 37.0209 42.7537 37.4235 42.802 38.6473C42.8342 39.4525 42.7215 39.9839 42.4155 40.2898C42.2867 40.4187 42.0613 40.5797 41.6909 40.5797C41.3205 40.5797 40.918 40.4348 40.5637 40.3059L40.5315 40.2898C40.2577 40.1932 39.9518 40.0805 39.7424 40.0644L39.5975 40.0483L39.4848 40.1449C39.0822 40.5153 39.0017 41.1755 38.9856 41.5459V41.5942C38.9856 41.6103 38.8729 42.818 39.4848 43.3816L39.5975 43.4782L39.7424 43.4621C39.9357 43.446 40.2094 43.3494 40.5315 43.2367L40.5637 43.2206C40.9019 43.0918 41.3205 42.9468 41.6909 42.9468C41.9969 42.9468 42.2384 43.0435 42.4155 43.2367C42.6893 43.5265 42.8181 44.0096 42.802 44.7504C43.6233 44.6538 44.4284 44.5088 45.2175 44.2995C45.5556 44.2995 45.9099 44.2029 46.2159 44.0257Z" fill="white"/>
<path d="M15.9098 49.3398V49.3076C15.9098 49.2593 15.9098 49.1627 15.8454 48.905C15.6843 48.2287 14.7342 47.9066 12.9468 47.9066C12.6408 47.9066 12.3832 47.9388 12.2222 48.0032L12.8502 48.4058L15.7165 50.2094C15.7648 49.8068 15.8293 49.6135 15.8776 49.5008C15.8937 49.4203 15.9098 49.3559 15.9098 49.3398Z" fill="white"/>
<path d="M33.4783 49.2916C33.6715 48.7924 33.752 48.4864 33.7359 48.2932L33.7198 48.1161L33.5749 48.0356C33.3978 47.9389 33.124 47.8906 32.7375 47.8906C30.9501 47.8906 30 48.2127 29.839 48.889C29.7746 49.1789 29.7746 49.2594 29.7746 49.3238C29.7746 49.3721 29.7907 49.4043 29.8229 49.4848C29.9034 49.7264 30.0322 50.1451 30.0805 51.3689C30.1127 52.174 30 52.7054 29.6941 53.0114C29.5652 53.1402 29.3398 53.3013 28.9694 53.3013C28.5991 53.3013 28.1965 53.1563 27.8422 53.0275L27.81 53.0114C27.5363 52.9148 27.2464 52.8021 27.021 52.786L26.876 52.7698L26.7633 52.8665C26.3607 53.2368 26.2802 53.8971 26.2641 54.2835V54.3318C26.2641 54.348 26.1514 55.5557 26.7472 56.1193L26.8599 56.2159H27.0048C27.1981 56.1998 27.4718 56.1032 27.81 55.9905L27.8422 55.9744C28.1965 55.8455 28.5991 55.7006 28.9694 55.7006C29.2754 55.7006 29.5169 55.7972 29.6941 55.9905C29.9839 56.2964 30.1127 56.8117 30.0805 57.633C30.0483 58.422 29.9839 58.8729 29.9195 59.1628L31.1916 59.9679C31.1594 59.5009 31.1433 59.0339 31.1433 58.5669C31.1433 56.2159 31.5942 53.9615 32.3994 51.9003C32.657 51.2401 32.963 50.5959 33.285 49.984C33.285 49.9679 33.285 49.9679 33.285 49.9518C33.3173 49.7425 33.3978 49.517 33.4783 49.2916Z" fill="white"/>
<path d="M29.3075 56.5378L29.2109 56.3768L29.0177 56.3607C29.0016 56.3607 29.0016 56.3607 28.9855 56.3607C28.7439 56.3607 28.4541 56.4734 28.0515 56.6183C27.8421 56.6989 27.6167 56.7794 27.3913 56.8438C27.2624 56.876 27.1497 56.8921 27.037 56.8921C26.6183 56.8921 26.0708 56.6828 25.7809 55.7005C25.6199 55.1369 25.6199 54.5571 25.6199 54.541C25.6199 54.4444 25.636 52.1739 27.037 52.1739C27.1497 52.1739 27.2785 52.19 27.3913 52.2222C27.6006 52.2866 27.826 52.3671 28.0354 52.4315H28.0515C28.3896 52.5604 28.7278 52.6892 28.9855 52.6892C29.0016 52.6892 29.0177 52.6892 29.0177 52.6892L29.2109 52.6731L29.3075 52.5121C29.4041 52.3349 29.4524 52.0612 29.4524 51.6747C29.4524 49.8873 29.1304 48.9372 28.4541 48.7762C28.2125 48.7117 28.1159 48.7117 28.0676 48.7117H28.0193C27.971 48.7117 27.9388 48.7278 27.8582 48.76C27.6167 48.8406 27.198 48.9694 25.9742 49.0177C25.8937 49.0177 25.797 49.0177 25.7326 49.0177C24.9597 49.0177 24.4766 48.8406 24.2189 48.4863C23.8808 47.9871 24.1223 47.3269 24.3317 46.7472C24.4444 46.4251 24.5571 46.1352 24.5571 45.942V45.7971L24.4605 45.6844C24.0901 45.2818 23.4299 45.2013 23.0434 45.1852H22.9951C22.9629 45.1852 22.8663 45.1691 22.7536 45.1691C22.4315 45.1691 21.6264 45.2174 21.2077 45.6683L21.1111 45.781V45.9259C21.1111 46.103 21.1916 46.3446 21.3365 46.7311C21.5458 47.3108 21.8035 47.9871 21.4492 48.4702C21.2077 48.8245 20.7085 49.0016 19.9355 49.0016C19.855 49.0016 19.7745 49.0016 19.694 49.0016C18.4702 48.9533 18.0515 48.8084 17.8099 48.7439C17.7294 48.7117 17.6811 48.6956 17.6328 48.6956H17.6006C17.5523 48.6956 17.4557 48.6956 17.2141 48.76C16.6988 48.8889 16.3768 49.4847 16.264 50.5636L16.9082 50.9662L18.8083 52.1739C19.0499 52.2061 19.3075 52.3349 19.533 52.6409L29.3236 58.8406C29.388 58.438 29.4202 57.9549 29.4202 57.3913C29.4524 56.9887 29.4041 56.6989 29.3075 56.5378Z" fill="white"/>
<path d="M66.9726 32.8341L62.657 25.7971H60.1771V39.9839H62.818V34.1063C62.818 33.3011 62.8019 32.5121 62.7858 31.7713C62.7697 31.401 62.7536 31.0306 62.7214 30.6602L66.1352 36.0386H67.7133L71.2238 30.628C71.1916 31.0145 71.1755 31.3849 71.1594 31.7552C71.1272 32.4799 71.1111 33.2689 71.1111 34.0902V39.9517H73.752V25.7649H71.3848L66.9726 32.8341Z" fill="#00D857"/>
<path d="M84.0258 30.1449C83.7681 29.9034 83.4622 29.694 83.124 29.5008C82.5443 29.1626 81.868 29.0016 81.1112 29.0016C80.1128 29.0016 79.1949 29.2431 78.4058 29.7101C77.6168 30.1771 76.9888 30.8534 76.5379 31.6908C76.087 32.5282 75.8616 33.4943 75.8616 34.5732C75.8616 35.6521 76.087 36.6183 76.5218 37.4718C76.9566 38.3092 77.5524 38.9855 78.2931 39.4686C79.0339 39.9517 79.8873 40.1932 80.7891 40.1932C81.6426 40.1932 82.3994 39.9839 83.0596 39.5813C83.4461 39.3398 83.7682 39.0982 84.0419 38.8406V39.9839H86.6023V29.2109H84.0419V30.1449H84.0258ZM83.752 32.9307C83.9936 33.4138 84.1063 33.9613 84.1063 34.5732C84.1063 35.1852 83.9775 35.7488 83.7359 36.2319C83.4944 36.715 83.1562 37.1014 82.7376 37.3752C82.3189 37.6489 81.8197 37.7939 81.24 37.7939C80.6925 37.7939 80.2094 37.6489 79.7907 37.3752C79.372 37.1014 79.0339 36.715 78.7923 36.2319C78.5508 35.7488 78.422 35.1852 78.422 34.5732C78.422 33.9613 78.5508 33.3977 78.7762 32.9146C79.0178 32.4476 79.3559 32.0612 79.7746 31.7874C80.1933 31.5137 80.6925 31.3848 81.2239 31.3848C81.7875 31.3848 82.2867 31.5298 82.7215 31.8035C83.1723 32.0612 83.5105 32.4476 83.752 32.9307Z" fill="#00D857"/>
<path d="M96.7955 29.6135C96.248 29.2109 95.475 29.0016 94.4928 29.0016C93.7198 29.0016 92.9952 29.1948 92.3672 29.5974C91.9968 29.8228 91.6747 30.0805 91.401 30.3542V29.2109H88.8567V39.9839H91.401V33.5104C91.401 33.124 91.4976 32.7697 91.7069 32.4476C91.9163 32.1256 92.2061 31.8518 92.5604 31.6586C92.9147 31.4654 93.3494 31.3526 93.8325 31.3526C94.3317 31.3204 94.7021 31.4009 94.9598 31.5781C95.2335 31.7713 95.4106 32.029 95.5234 32.3671C95.6361 32.7214 95.7005 33.1401 95.7005 33.6071V39.9839H98.2448V33.4621C98.2448 32.657 98.132 31.9162 97.9227 31.256C97.7295 30.5797 97.343 30.0161 96.7955 29.6135Z" fill="#00D857"/>
<path d="M107.971 30.1449C107.713 29.9034 107.407 29.694 107.069 29.5008C106.49 29.1626 105.813 29.0016 105.056 29.0016C104.058 29.0016 103.14 29.2431 102.351 29.7101C101.562 30.1771 100.934 30.8534 100.483 31.6908C100.032 32.5282 99.8068 33.4943 99.8068 34.5732C99.8068 35.6521 100.032 36.6183 100.467 37.4718C100.902 38.3092 101.498 38.9855 102.238 39.4686C102.979 39.9517 103.833 40.1932 104.734 40.1932C105.588 40.1932 106.345 39.9839 107.005 39.5813C107.391 39.3398 107.713 39.0982 107.987 38.8406V39.9839H110.548V29.2109H107.987V30.1449H107.971ZM107.697 32.9307C107.939 33.4138 108.052 33.9613 108.052 34.5732C108.052 35.1852 107.923 35.7488 107.681 36.2319C107.44 36.715 107.101 37.1014 106.683 37.3752C106.264 37.6489 105.765 37.7939 105.185 37.7939C104.638 37.7939 104.155 37.6489 103.736 37.3752C103.317 37.1014 102.979 36.715 102.738 36.2319C102.496 35.7488 102.367 35.1852 102.367 34.5732C102.367 33.9613 102.496 33.3977 102.721 32.9146C102.963 32.4476 103.301 32.0612 103.72 31.7874C104.138 31.5137 104.638 31.3848 105.169 31.3848C105.733 31.3848 106.232 31.5298 106.667 31.8035C107.118 32.0612 107.456 32.4476 107.697 32.9307Z" fill="#00D857"/>
<path d="M120.644 30.2254C120.37 29.9839 120.048 29.7584 119.662 29.533C119.018 29.1626 118.277 28.9855 117.456 28.9855C116.473 28.9855 115.572 29.227 114.783 29.7101C113.977 30.1932 113.349 30.8534 112.882 31.6908C112.416 32.5281 112.19 33.4943 112.19 34.5732C112.19 35.636 112.432 36.6022 112.899 37.4557C113.366 38.293 114.01 38.9694 114.815 39.4525C115.62 39.9355 116.538 40.1771 117.52 40.1771C118.052 40.1771 118.551 40.0805 119.034 39.9033C119.517 39.7262 119.936 39.4686 120.29 39.1787C120.419 39.0821 120.531 38.9694 120.628 38.8566V39.3236C120.628 40.2737 120.37 40.9822 119.871 41.4331C119.372 41.9001 118.615 42.1256 117.633 42.1256C117.101 42.1256 116.554 42.045 115.99 41.8679C115.443 41.6908 114.976 41.4653 114.606 41.1916L114.348 40.9983L113.382 43.0434L113.543 43.1723C114.01 43.5587 114.622 43.8647 115.378 44.1062C116.119 44.3478 116.876 44.4605 117.633 44.4605C118.599 44.4605 119.517 44.2834 120.338 43.9291C121.176 43.5587 121.868 42.979 122.383 42.19C122.899 41.4009 123.156 40.3542 123.156 39.0982V29.227H120.612V30.2254H120.644ZM120.354 32.9146C120.612 33.3977 120.741 33.9613 120.741 34.5893C120.741 35.2012 120.612 35.7649 120.354 36.2479C120.113 36.731 119.759 37.1175 119.308 37.3752C118.873 37.6489 118.341 37.7777 117.746 37.7777C117.182 37.7777 116.667 37.6328 116.216 37.3591C115.765 37.0853 115.411 36.6988 115.153 36.2157C114.895 35.7327 114.767 35.1851 114.767 34.5732C114.767 33.9613 114.895 33.3977 115.153 32.9146C115.411 32.4315 115.765 32.0451 116.216 31.7713C116.651 31.4975 117.166 31.3526 117.746 31.3526C118.341 31.3526 118.873 31.4975 119.308 31.7713C119.742 32.0451 120.097 32.4315 120.354 32.9146Z" fill="#00D857"/>
<path d="M132.818 29.6458C132.077 29.1949 131.24 28.9695 130.338 28.9695C129.356 28.9695 128.438 29.1949 127.617 29.6619C126.779 30.1128 126.103 30.7891 125.604 31.6265C125.105 32.4799 124.847 33.5105 124.847 34.7022C124.847 35.7489 125.089 36.6989 125.572 37.5202C126.055 38.3415 126.715 39.0017 127.568 39.4687C128.422 39.9357 129.404 40.1772 130.515 40.1772C131.337 40.1772 132.142 40.0162 132.899 39.6941C133.607 39.3882 134.187 39.0339 134.622 38.6474H135.04L133.591 36.5218L133.366 36.7151C133.092 36.9566 132.738 37.1981 132.303 37.4558C131.9 37.6973 131.369 37.8101 130.709 37.8101C129.791 37.8101 129.018 37.5524 128.438 37.0693C127.907 36.6345 127.585 36.0709 127.44 35.3463H135.234L135.266 34.2191C135.266 33.1885 135.04 32.2706 134.606 31.4977C134.139 30.7086 133.543 30.0967 132.818 29.6458ZM127.536 33.2046C127.713 32.5766 128.035 32.1257 128.47 31.8519C129.002 31.5299 129.63 31.3527 130.338 31.3527C130.725 31.3527 131.095 31.4332 131.433 31.6104C131.771 31.7875 132.061 32.013 132.287 32.3189C132.48 32.5766 132.609 32.8664 132.657 33.2046H127.536Z" fill="#00D857"/>
<path d="M143.543 29.2109C143.237 29.066 142.834 28.9855 142.319 28.9855C141.626 28.9855 140.966 29.2109 140.338 29.6296C140 29.8711 139.71 30.1449 139.452 30.4509V29.1948H136.892V39.9678H139.452V34.0418C139.452 33.5587 139.565 33.124 139.807 32.7697C140.048 32.4154 140.354 32.1256 140.708 31.9323C141.063 31.7391 141.449 31.6425 141.82 31.6425C142.013 31.6425 142.19 31.6586 142.351 31.7069C142.512 31.7552 142.657 31.8035 142.77 31.8518L143.076 31.9967L143.736 29.2753L143.543 29.2109Z" fill="#00D857"/>
<path d="M66.7633 7.23035H56.3607V9.79073H60.1771V21.4171H62.818V9.79073H66.7633V7.23035Z" fill="white"/>
<path d="M73.8647 11.5783C73.6071 11.3367 73.3011 11.1274 72.9629 10.9341C72.3832 10.596 71.7069 10.4349 70.9501 10.4349C69.9517 10.4349 69.0338 10.6765 68.2447 11.1435C67.4557 11.6105 66.8277 12.2868 66.3768 13.1241C65.9259 13.9615 65.7004 14.9277 65.7004 16.0066C65.7004 17.0855 65.9259 18.0517 66.3607 18.9051C66.7955 19.7425 67.3913 20.4188 68.132 20.9019C68.8728 21.385 69.7262 21.6266 70.628 21.6266C71.4815 21.6266 72.2383 21.4172 72.8985 21.0146C73.285 20.7731 73.6071 20.5316 73.8808 20.2739V21.4172H76.4412V10.6443H73.8808V11.5783H73.8647ZM73.591 14.3641C73.8325 14.8472 73.9452 15.3947 73.9452 16.0066C73.9452 16.6185 73.8164 17.1821 73.5749 17.6652C73.3333 18.1483 72.9951 18.5348 72.5765 18.8085C72.1578 19.0823 71.6586 19.2272 71.0789 19.2272C70.5314 19.2272 70.0483 19.0823 69.6296 18.8085C69.2109 18.5348 68.8728 18.1483 68.6312 17.6652C68.3897 17.1821 68.2608 16.6185 68.2608 16.0066C68.2608 15.3947 68.3897 14.8311 68.6151 14.348C68.8566 13.881 69.1948 13.4945 69.6135 13.2208C70.0322 12.947 70.5314 12.8182 71.0628 12.8182C71.6264 12.8182 72.1256 12.9631 72.5604 13.2369C73.0112 13.5106 73.3494 13.881 73.591 14.3641Z" fill="white"/>
<path d="M81.2561 7.23035H78.7118V21.4171H81.2561V7.23035Z" fill="white"/>
<path d="M90.7247 11.079C89.9839 10.6282 89.1466 10.4027 88.2448 10.4027C87.2625 10.4027 86.3446 10.6282 85.5234 11.0951C84.686 11.546 84.0097 12.2224 83.5105 13.0597C83.0113 13.9132 82.7537 14.9438 82.7537 16.1354C82.7537 17.1821 82.9952 18.1322 83.4783 18.9534C83.9614 19.7747 84.6216 20.4349 85.4751 20.9019C86.3285 21.3689 87.3108 21.6104 88.4219 21.6104C89.2432 21.6104 90.0483 21.4494 90.8052 21.1273C91.5137 20.8214 92.0934 20.4671 92.5282 20.0807H92.9469L91.4976 17.955L91.2722 18.1483C90.9984 18.3898 90.6442 18.6314 90.2094 18.889C89.8068 19.1306 89.2754 19.2433 88.6152 19.2433C87.6973 19.2433 86.9244 18.9856 86.3446 18.5025C85.8132 18.0678 85.4912 17.4881 85.3463 16.7795H93.1401L93.1723 15.6523C93.1723 14.6217 92.9469 13.7038 92.5121 12.9309C92.0612 12.1418 91.4654 11.5299 90.7247 11.079ZM88.2448 12.786C88.6313 12.786 89.0016 12.8665 89.3398 13.0436C89.678 13.2207 89.9678 13.4462 90.1933 13.7521C90.3865 14.0098 90.5153 14.2997 90.5636 14.6378H85.459C85.6361 14.0098 85.9582 13.5589 86.3929 13.2852C86.9082 12.9631 87.5363 12.786 88.2448 12.786Z" fill="white"/>
<path d="M102.738 11.0469C102.19 10.6443 101.417 10.4349 100.435 10.4349C99.6618 10.4349 98.9372 10.6282 98.3092 11.0307C97.9388 11.2562 97.6167 11.5138 97.343 11.7876V10.6443H94.7987V21.4172H97.343V14.9438C97.343 14.5573 97.4396 14.2031 97.649 13.881C97.8583 13.5589 98.1481 13.2852 98.5024 13.0919C98.8567 12.8987 99.2915 12.786 99.7746 12.786C100.274 12.7538 100.644 12.8343 100.902 13.0114C101.176 13.2047 101.353 13.4623 101.465 13.8005C101.578 14.1547 101.643 14.5734 101.643 15.0404V21.4172H104.187V14.9116C104.187 14.1064 104.074 13.3657 103.865 12.7055C103.688 12.013 103.301 11.4494 102.738 11.0469Z" fill="white"/>
<path d="M110.225 10.6442V8.0355V7.23035H107.681V8.0355V10.6442H105.556V13.1241H107.681V21.4171H110.225V13.1241H112.593V10.6442H110.225Z" fill="white"/>
<path d="M63.0274 48.7601H61.9001V52.6087H60.9501V48.7601H60.1771V47.8905H60.9501V47.2625C60.9501 46.8439 61.0789 46.5057 61.3526 46.248C61.6103 45.9904 61.9646 45.8455 62.3832 45.8455C62.6248 45.8455 62.8341 45.8938 62.9952 45.9904C63.1562 46.087 63.2689 46.1675 63.3494 46.248L63.0274 46.9727C62.963 46.9083 62.8824 46.86 62.7858 46.8116C62.6892 46.7633 62.5926 46.7311 62.496 46.7311C62.2705 46.7311 62.1256 46.7794 62.0451 46.8922C61.9646 46.9888 61.9163 47.1176 61.9163 47.2786V47.9067H63.0435V48.7601H63.0274Z" fill="white"/>
<path d="M68.4219 50.2094C68.4219 50.6924 68.3092 51.1272 68.0999 51.4976C67.8905 51.868 67.5846 52.1578 67.2303 52.3833C66.86 52.5926 66.4574 52.7053 65.9904 52.7053C65.5395 52.7053 65.1208 52.5926 64.7505 52.3833C64.3801 52.1739 64.0902 51.8841 63.8648 51.4976C63.6554 51.1272 63.5427 50.6924 63.5427 50.2094C63.5427 49.7263 63.6554 49.2915 63.8648 48.9211C64.0741 48.5507 64.3801 48.2609 64.7505 48.0354C65.1208 47.8261 65.5395 47.7134 65.9904 47.7134C66.4413 47.7134 66.86 47.8261 67.2303 48.0354C67.6007 48.2448 67.8905 48.5346 68.0999 48.9211C68.3253 49.2915 68.4219 49.7263 68.4219 50.2094ZM67.4719 50.2094C67.4719 49.8873 67.4236 49.5974 67.2786 49.3559C67.1498 49.1143 66.9727 48.9211 66.7472 48.7762C66.5218 48.6313 66.2641 48.5668 65.9904 48.5668C65.7166 48.5668 65.459 48.6313 65.2335 48.7762C65.0081 48.9211 64.831 49.0982 64.7021 49.3559C64.5733 49.5974 64.5089 49.8873 64.5089 50.2094C64.5089 50.5314 64.5572 50.8052 64.7021 51.0467C64.831 51.2883 65.0081 51.4815 65.2335 51.6264C65.459 51.7713 65.7166 51.8358 65.9904 51.8358C66.2641 51.8358 66.5218 51.7713 66.7472 51.6264C66.9727 51.4815 67.1498 51.2883 67.2786 51.0467C67.4075 50.8052 67.4719 50.5314 67.4719 50.2094Z" fill="white"/>
<path d="M72.1417 48.8246C72.0773 48.7924 72.0129 48.7763 71.9163 48.7441C71.8357 48.728 71.7391 48.7119 71.6425 48.7119C71.4493 48.7119 71.256 48.7602 71.0628 48.8568C70.8696 48.9534 70.7246 49.0983 70.5958 49.2916C70.467 49.4848 70.4026 49.6942 70.4026 49.9518V52.5927H69.4525V47.794H70.4026V48.6958C70.5314 48.4059 70.7407 48.1644 71.0145 47.9711C71.2882 47.7779 71.562 47.6813 71.868 47.6813C72.0934 47.6813 72.2705 47.7135 72.3832 47.7779L72.1417 48.8246Z" fill="white"/>
<path d="M76.1675 50.6926C76.4091 51.0468 76.6828 51.3367 76.9405 51.5299C77.2142 51.7232 77.5685 51.8198 78.0033 51.8198C78.2126 51.8198 78.4059 51.7876 78.5991 51.7231C78.7923 51.6587 78.9373 51.5621 79.0661 51.4333C79.1949 51.3045 79.2432 51.1595 79.2432 50.9824C79.2432 50.6764 79.1144 50.4349 78.8567 50.2739C78.5991 50.0967 78.2287 49.9679 77.7617 49.8874C77.1659 49.7586 76.6828 49.5492 76.3447 49.2594C75.9904 48.9534 75.8133 48.5186 75.8133 47.955C75.8133 47.5847 75.9099 47.2787 76.1192 47.005C76.3286 46.7312 76.5862 46.538 76.9244 46.3769C77.2625 46.232 77.6168 46.1515 78.0033 46.1515C78.5025 46.1515 78.9373 46.2481 79.3076 46.4413C79.678 46.6346 79.9517 46.9083 80.1611 47.2787L79.4687 47.9711C79.3076 47.6974 79.0983 47.4719 78.8406 47.3109C78.583 47.1338 78.2931 47.0533 77.9711 47.0533C77.6329 47.0533 77.3592 47.1338 77.1337 47.2787C76.9083 47.4397 76.7955 47.6491 76.7955 47.9228C76.7955 48.2288 76.9083 48.4542 77.1498 48.5992C77.3914 48.7441 77.7134 48.8568 78.0999 48.9373C78.4542 49.0178 78.7923 49.1306 79.1305 49.2755C79.4526 49.4204 79.7102 49.6298 79.9195 49.8713C80.1289 50.1128 80.2255 50.4027 80.2255 50.7409C80.2255 51.3528 80.0162 51.8359 79.5975 52.1901C79.1788 52.5444 78.6152 52.7215 77.8906 52.7215C77.3914 52.7215 76.9405 52.6249 76.5379 52.4317C76.1353 52.2384 75.7811 51.9164 75.4751 51.4816L76.1675 50.6926Z" fill="white"/>
<path d="M81.9806 50.2094C81.9806 50.5314 82.045 50.8052 82.19 51.0467C82.3349 51.2883 82.5281 51.4815 82.7536 51.6264C82.9951 51.7713 83.2367 51.8358 83.5104 51.8358C83.8164 51.8358 84.074 51.7552 84.2995 51.5942C84.5249 51.4332 84.7021 51.2722 84.847 51.095L85.3623 51.7391C85.2496 51.9002 85.0885 52.0612 84.8953 52.2061C84.7021 52.3511 84.4605 52.4638 84.2029 52.5604C83.9452 52.6409 83.6715 52.6892 83.3977 52.6892C82.9629 52.6892 82.5603 52.5765 82.2061 52.3672C81.8518 52.1417 81.578 51.8519 81.3687 51.4654C81.1594 51.095 81.0627 50.6602 81.0627 50.1932C81.0627 49.7263 81.1594 49.2915 81.3687 48.9211C81.578 48.5507 81.8518 48.2448 82.2061 48.0354C82.5603 47.81 82.9629 47.7134 83.3977 47.7134C83.8486 47.7134 84.2351 47.81 84.5893 47.9871C84.9436 48.1643 85.2013 48.4058 85.3623 48.6796L84.847 49.3237C84.7021 49.1143 84.5088 48.9372 84.2512 48.7923C83.9935 48.6474 83.7359 48.5668 83.4943 48.5668C83.2045 48.5668 82.9468 48.6313 82.7214 48.7762C82.4959 48.9211 82.3027 49.1143 82.1739 49.3559C82.0611 49.6135 81.9806 49.8873 81.9806 50.2094Z" fill="white"/>
<path d="M88.7761 47.7134C89.2109 47.7134 89.5491 47.7939 89.7745 47.971C90.0161 48.1482 90.1771 48.3897 90.2737 48.6796C90.3703 48.9855 90.4186 49.3076 90.4186 49.678V52.5926H89.4847V49.7263C89.4847 49.5008 89.4525 49.2915 89.388 49.0983C89.3236 48.9211 89.227 48.7762 89.0821 48.6635C88.9372 48.5669 88.7278 48.5185 88.4702 48.5346C88.2286 48.5346 88.0032 48.583 87.8261 48.6957C87.6328 48.7923 87.4879 48.9372 87.3752 49.1144C87.2624 49.2915 87.2141 49.4686 87.2141 49.678V52.5765H86.2802V45.8132H87.2141V48.5346C87.3591 48.3092 87.5684 48.116 87.8582 47.9388C88.132 47.81 88.438 47.7134 88.7761 47.7134Z" fill="white"/>
<path d="M96.2963 50.2094C96.2963 50.6924 96.1836 51.1272 95.9743 51.4976C95.7649 51.868 95.459 52.1578 95.1047 52.3833C94.7343 52.5926 94.3318 52.7053 93.8648 52.7053C93.4139 52.7053 92.9952 52.5926 92.6248 52.3833C92.2545 52.1739 91.9646 51.8841 91.7392 51.4976C91.5298 51.1272 91.4171 50.6924 91.4171 50.2094C91.4171 49.7263 91.5298 49.2915 91.7392 48.9211C91.9485 48.5507 92.2545 48.2609 92.6248 48.0354C92.9952 47.8261 93.4139 47.7134 93.8648 47.7134C94.3157 47.7134 94.7343 47.8261 95.1047 48.0354C95.4751 48.2448 95.7649 48.5346 95.9743 48.9211C96.1836 49.2915 96.2963 49.7263 96.2963 50.2094ZM95.3463 50.2094C95.3463 49.8873 95.298 49.5974 95.153 49.3559C95.0242 49.1143 94.8471 48.9211 94.6216 48.7762C94.3962 48.6313 94.1385 48.5668 93.8648 48.5668C93.591 48.5668 93.3334 48.6313 93.1079 48.7762C92.8825 48.9211 92.7054 49.0982 92.5765 49.3559C92.4477 49.5974 92.3833 49.8873 92.3833 50.2094C92.3833 50.5314 92.4316 50.8052 92.5765 51.0467C92.7054 51.2883 92.8825 51.4815 93.1079 51.6264C93.3334 51.7713 93.591 51.8358 93.8648 51.8358C94.1385 51.8358 94.3962 51.7713 94.6216 51.6264C94.8471 51.4815 95.0242 51.2883 95.153 51.0467C95.2819 50.8052 95.3463 50.5314 95.3463 50.2094Z" fill="white"/>
<path d="M101.916 50.2094C101.916 50.6924 101.803 51.1272 101.594 51.4976C101.385 51.868 101.079 52.1578 100.725 52.3833C100.354 52.5926 99.9516 52.7053 99.4847 52.7053C99.0338 52.7053 98.6151 52.5926 98.2447 52.3833C97.8743 52.1739 97.5845 51.8841 97.359 51.4976C97.1497 51.1272 97.037 50.6924 97.037 50.2094C97.037 49.7263 97.1497 49.2915 97.359 48.9211C97.5684 48.5507 97.8743 48.2609 98.2447 48.0354C98.6151 47.8261 99.0338 47.7134 99.4847 47.7134C99.9355 47.7134 100.354 47.8261 100.725 48.0354C101.095 48.2448 101.385 48.5346 101.594 48.9211C101.803 49.2915 101.916 49.7263 101.916 50.2094ZM100.95 50.2094C100.95 49.8873 100.902 49.5974 100.757 49.3559C100.628 49.1143 100.451 48.9211 100.225 48.7762C100 48.6313 99.7423 48.5668 99.4686 48.5668C99.1948 48.5668 98.9371 48.6313 98.7117 48.7762C98.4863 48.9211 98.3091 49.0982 98.1803 49.3559C98.0515 49.5974 97.9871 49.8873 97.9871 50.2094C97.9871 50.5314 98.0354 50.8052 98.1803 51.0467C98.3091 51.2883 98.4863 51.4815 98.7117 51.6264C98.9371 51.7713 99.1948 51.8358 99.4686 51.8358C99.7423 51.8358 100 51.7713 100.225 51.6264C100.451 51.4815 100.628 51.2883 100.757 51.0467C100.902 50.8052 100.966 50.5314 100.95 50.2094Z" fill="white"/>
<path d="M102.931 52.6087V45.8455H103.865V52.6087H102.931Z" fill="white"/>
<path d="M107.987 49.0823C107.81 48.9051 107.617 48.7763 107.407 48.6636C107.198 48.5509 106.989 48.5026 106.812 48.5026C106.683 48.5026 106.554 48.5187 106.425 48.5509C106.296 48.5831 106.2 48.6314 106.103 48.7119C106.022 48.7924 105.974 48.9212 105.974 49.0662C105.974 49.2916 106.087 49.4365 106.264 49.5332C106.441 49.6298 106.699 49.7103 106.989 49.7747C107.246 49.8391 107.488 49.9196 107.713 50.0323C107.939 50.1451 108.148 50.2739 108.309 50.4671C108.47 50.6604 108.535 50.9341 108.535 51.2723C108.535 51.5782 108.454 51.8198 108.277 52.0452C108.116 52.2546 107.89 52.4156 107.633 52.5283C107.375 52.641 107.085 52.6894 106.795 52.6894C106.441 52.6894 106.103 52.6249 105.765 52.4961C105.427 52.3673 105.137 52.158 104.895 51.852L105.539 51.3045C105.7 51.4977 105.894 51.6427 106.103 51.7554C106.312 51.8681 106.57 51.9164 106.876 51.9164C106.989 51.9164 107.101 51.9003 107.23 51.852C107.343 51.8198 107.44 51.7554 107.52 51.6588C107.601 51.5782 107.649 51.4494 107.649 51.3045C107.649 51.1596 107.601 51.0468 107.52 50.9663C107.44 50.8858 107.311 50.8214 107.166 50.7731C107.021 50.7248 106.86 50.6765 106.683 50.6282C106.425 50.5476 106.167 50.4671 105.91 50.3544C105.652 50.2417 105.443 50.0968 105.282 49.9035C105.121 49.7103 105.024 49.4365 105.024 49.0984C105.024 48.8085 105.105 48.567 105.266 48.3576C105.427 48.1483 105.636 48.0034 105.894 47.8906C106.151 47.7779 106.441 47.7296 106.731 47.7296C107.021 47.7296 107.327 47.794 107.665 47.9067C108.003 48.0356 108.277 48.2288 108.502 48.4865L107.987 49.0823Z" fill="white"/>
</svg>
