<svg width="20" height="20" viewBox="0 0 20 20" fill="none" xmlns="http://www.w3.org/2000/svg">
<path d="M18.2035 17.3748L16.1052 14.6772C16.7851 14.4741 17.3724 14.0393 17.7652 13.4483C18.2593 12.5941 18.0359 11.5517 17.8197 10.5448C17.6889 10.0276 17.6107 9.49845 17.5862 8.96552C17.6106 8.43211 17.6888 7.9025 17.8197 7.38483C18.0345 6.37724 18.2593 5.33552 17.7652 4.48276C17.2535 3.59862 16.2231 3.27138 15.2266 2.95552C14.7305 2.81884 14.25 2.63069 13.7931 2.39414C13.3785 2.12517 12.9935 1.8131 12.6445 1.4631C11.9052 0.776897 11.0669 0 10 0C8.93311 0 8.09483 0.776897 7.35518 1.46276C7.00634 1.81284 6.62143 2.12504 6.2069 2.39414C5.75 2.63022 5.2697 2.81789 4.7738 2.95414C3.77724 3.27 2.7469 3.59724 2.23518 4.48138C1.74104 5.33552 1.96449 6.37793 2.18069 7.38483C2.31143 7.90254 2.38953 8.43211 2.4138 8.96552C2.3894 9.49892 2.31121 10.0285 2.18035 10.5462C1.96552 11.5538 1.74069 12.5955 2.23483 13.4483C2.62811 14.0395 3.21608 14.4742 3.89656 14.6769L1.79656 17.3745C1.67966 17.5248 1.70677 17.7415 1.85716 17.8584C1.9294 17.9145 2.02095 17.9397 2.11173 17.9283L4.57724 17.6203L5.18587 19.75C5.22151 19.8748 5.32427 19.9691 5.45173 19.9938C5.47332 19.9979 5.49526 20 5.51724 20C5.62371 20.0001 5.72427 19.9509 5.78966 19.8669L7.99173 17.0345C8.53362 17.562 9.24543 17.8798 10 17.931C10.7546 17.8798 11.4664 17.562 12.0083 17.0345L14.2103 19.8659C14.2755 19.9503 14.3761 19.9998 14.4828 20C14.5047 20 14.5267 19.9979 14.5483 19.9938C14.6757 19.9691 14.7785 19.8748 14.8141 19.75L15.4228 17.6207L17.8883 17.9286C18.0772 17.9523 18.2497 17.8184 18.2734 17.6294C18.2847 17.5386 18.2596 17.4471 18.2035 17.3748ZM5.66207 18.9072L5.15897 17.1466C5.1122 16.9832 4.95341 16.8783 4.78483 16.8993L2.8538 17.1407L4.58449 14.9159L4.77518 14.9769C5.27061 15.1132 5.75043 15.3009 6.2069 15.5369C6.62155 15.8059 7.00655 16.1179 7.35552 16.4679L7.47414 16.5776L5.66207 18.9072ZM10 17.2414C9.20345 17.2414 8.53345 16.6207 7.8238 15.9628C7.43772 15.577 7.01125 15.2341 6.55173 14.9397C6.05177 14.6779 5.52548 14.4699 4.98173 14.319C4.07035 14.0297 3.20931 13.7566 2.83138 13.1034C2.47069 12.4797 2.6569 11.6103 2.85449 10.6897C2.99668 10.125 3.08013 9.54729 3.10345 8.96552C3.08026 8.38375 2.99694 7.80599 2.85483 7.24138C2.65724 6.32103 2.47104 5.45172 2.83173 4.82759C3.21104 4.17448 4.07069 3.90138 4.98207 3.61207C5.52574 3.46112 6.05186 3.25306 6.55173 2.99138C7.01112 2.69698 7.4375 2.35397 7.82345 1.96828C8.53345 1.31034 9.20345 0.689655 10 0.689655C10.7966 0.689655 11.4666 1.31034 12.1762 1.96828C12.5623 2.35401 12.9888 2.69698 13.4483 2.99138C13.9482 3.2531 14.4745 3.46116 15.0183 3.61207C15.9297 3.90138 16.7907 4.17448 17.1686 4.82759C17.5293 5.45138 17.3431 6.32069 17.1455 7.24138C17.0033 7.80599 16.9199 8.38375 16.8966 8.96552C16.9197 9.54729 17.0031 10.125 17.1452 10.6897C17.3428 11.61 17.529 12.4793 17.1683 13.1034C16.789 13.7566 15.9293 14.0297 15.0179 14.319C14.4743 14.4699 13.9481 14.678 13.4483 14.9397C12.9889 15.2341 12.5625 15.5771 12.1766 15.9628C11.4666 16.6207 10.7966 17.2414 10 17.2414ZM15.2169 16.8993C15.0483 16.8783 14.8895 16.9832 14.8428 17.1466L14.3379 18.9072L12.5262 16.5779L12.6448 16.4683C12.9937 16.1182 13.3786 15.806 13.7931 15.5369C14.25 15.3008 14.7303 15.1131 15.2262 14.9769L15.4169 14.9159L17.1479 17.1407L15.2169 16.8993Z" fill="white"/>
<path d="M9.99999 2.75867C6.57201 2.75867 3.79309 5.53759 3.79309 8.96556C3.79309 12.3935 6.57201 15.1725 9.99999 15.1725C13.428 15.1725 16.2069 12.3935 16.2069 8.96556C16.2029 5.53923 13.4263 2.76268 9.99999 2.75867ZM9.99999 14.4828C6.95292 14.4828 4.48275 12.0126 4.48275 8.96556C4.48275 5.9185 6.95292 3.44832 9.99999 3.44832C13.0471 3.44832 15.5172 5.9185 15.5172 8.96556C15.5136 12.0112 13.0456 14.4792 9.99999 14.4828Z" fill="white"/>
</svg>
