<svg width="20" height="20" viewBox="0 0 20 20" fill="none" xmlns="http://www.w3.org/2000/svg">
<path d="M18.2034 17.3748L16.1051 14.6772C16.785 14.4741 17.3724 14.0393 17.7651 13.4483C18.2593 12.5941 18.0358 11.5517 17.8196 10.5448C17.6889 10.0276 17.6106 9.49845 17.5861 8.96552C17.6105 8.43211 17.6887 7.9025 17.8196 7.38483C18.0344 6.37724 18.2593 5.33552 17.7651 4.48276C17.2534 3.59862 16.223 3.27138 15.2265 2.95552C14.7304 2.81884 14.25 2.63069 13.793 2.39414C13.3784 2.12517 12.9934 1.8131 12.6444 1.4631C11.9051 0.776897 11.0668 0 9.99994 0C8.93305 0 8.09477 0.776897 7.35511 1.46276C7.00628 1.81284 6.62136 2.12504 6.20684 2.39414C5.74994 2.63022 5.26964 2.81789 4.77374 2.95414C3.77718 3.27 2.74684 3.59724 2.23511 4.48138C1.74098 5.33552 1.96443 6.37793 2.18063 7.38483C2.31136 7.90254 2.38947 8.43211 2.41374 8.96552C2.38934 9.49892 2.31115 10.0285 2.18029 10.5462C1.96546 11.5538 1.74063 12.5955 2.23477 13.4483C2.62805 14.0395 3.21602 14.4742 3.89649 14.6769L1.79649 17.3745C1.6796 17.5248 1.70671 17.7415 1.8571 17.8584C1.92934 17.9145 2.02089 17.9397 2.11167 17.9283L4.57718 17.6203L5.1858 19.75C5.22145 19.8748 5.32421 19.9691 5.45167 19.9938C5.47326 19.9979 5.4952 20 5.51718 20C5.62365 20.0001 5.72421 19.9509 5.7896 19.8669L7.99167 17.0345C8.53356 17.562 9.24537 17.8798 9.99994 17.931C10.7545 17.8798 11.4663 17.562 12.0082 17.0345L14.2103 19.8659C14.2755 19.9503 14.376 19.9998 14.4827 20C14.5047 20 14.5266 19.9979 14.5482 19.9938C14.6757 19.9691 14.7784 19.8748 14.8141 19.75L15.4227 17.6207L17.8882 17.9286C18.0772 17.9523 18.2496 17.8184 18.2733 17.6294C18.2847 17.5386 18.2596 17.4471 18.2034 17.3748ZM5.66201 18.9072L5.15891 17.1466C5.11214 16.9832 4.95335 16.8783 4.78477 16.8993L2.85374 17.1407L4.58443 14.9159L4.77511 14.9769C5.27055 15.1132 5.75037 15.3009 6.20684 15.5369C6.62149 15.8059 7.00649 16.1179 7.35546 16.4679L7.47408 16.5776L5.66201 18.9072ZM9.99994 17.2414C9.20339 17.2414 8.53339 16.6207 7.82373 15.9628C7.43766 15.577 7.01119 15.2341 6.55167 14.9397C6.05171 14.6779 5.52542 14.4699 4.98167 14.319C4.07029 14.0297 3.20925 13.7566 2.83132 13.1034C2.47063 12.4797 2.65684 11.6103 2.85443 10.6897C2.99662 10.125 3.08007 9.54729 3.10339 8.96552C3.0802 8.38375 2.99688 7.80599 2.85477 7.24138C2.65718 6.32103 2.47098 5.45172 2.83167 4.82759C3.21098 4.17448 4.07063 3.90138 4.98201 3.61207C5.52568 3.46112 6.0518 3.25306 6.55167 2.99138C7.01106 2.69698 7.43744 2.35397 7.82339 1.96828C8.53339 1.31034 9.20339 0.689655 9.99994 0.689655C10.7965 0.689655 11.4665 1.31034 12.1761 1.96828C12.5622 2.35401 12.9887 2.69698 13.4482 2.99138C13.9482 3.2531 14.4745 3.46116 15.0182 3.61207C15.9296 3.90138 16.7906 4.17448 17.1686 4.82759C17.5293 5.45138 17.343 6.32069 17.1455 7.24138C17.0033 7.80599 16.9198 8.38375 16.8965 8.96552C16.9197 9.54729 17.003 10.125 17.1451 10.6897C17.3427 11.61 17.5289 12.4793 17.1682 13.1034C16.7889 13.7566 15.9293 14.0297 15.0179 14.319C14.4742 14.4699 13.9481 14.678 13.4482 14.9397C12.9888 15.2341 12.5624 15.5771 12.1765 15.9628C11.4665 16.6207 10.7965 17.2414 9.99994 17.2414ZM15.2168 16.8993C15.0483 16.8783 14.8895 16.9832 14.8427 17.1466L14.3379 18.9072L12.5261 16.5779L12.6448 16.4683C12.9936 16.1182 13.3785 15.806 13.793 15.5369C14.2499 15.3008 14.7302 15.1131 15.2261 14.9769L15.4168 14.9159L17.1479 17.1407L15.2168 16.8993Z" fill="#252525"/>
<path d="M9.99999 2.75864C6.57201 2.75864 3.79309 5.53756 3.79309 8.96553C3.79309 12.3935 6.57201 15.1724 9.99999 15.1724C13.428 15.1724 16.2069 12.3935 16.2069 8.96553C16.2029 5.5392 13.4263 2.76265 9.99999 2.75864ZM9.99999 14.4828C6.95292 14.4828 4.48275 12.0126 4.48275 8.96553C4.48275 5.91846 6.95292 3.44829 9.99999 3.44829C13.0471 3.44829 15.5172 5.91846 15.5172 8.96553C15.5136 12.0111 13.0456 14.4792 9.99999 14.4828Z" fill="#252525"/>
<path d="M13.9787 7.52516C13.8489 7.34693 13.6419 7.24146 13.4214 7.24137H11.3104L10.6552 5.23206C10.5363 4.87021 10.1466 4.67331 9.78471 4.79224C9.57656 4.86064 9.41328 5.02392 9.34488 5.23206L8.69143 7.24137H6.57867C6.19777 7.2412 5.88884 7.54978 5.88867 7.93068C5.88854 8.15137 5.99406 8.35874 6.17246 8.48861L7.88143 9.72999L7.22867 11.7393C7.11091 12.1015 7.30915 12.4906 7.67134 12.6084C7.88139 12.6766 8.11139 12.6402 8.29005 12.5103L10 11.2693L11.7094 12.5107C11.9501 12.6896 12.2796 12.6896 12.5204 12.5107C12.7647 12.337 12.8665 12.0237 12.7707 11.7396L12.118 9.72999L13.8269 8.48861C14.1349 8.26447 14.2028 7.8331 13.9787 7.52516ZM11.5097 9.31965C11.3888 9.40753 11.3382 9.56335 11.3845 9.70551L12.1149 11.9531L10.2028 10.5641C10.082 10.4764 9.91846 10.4764 9.79764 10.5641L7.88557 11.9531L8.61557 9.70551C8.66173 9.56344 8.61121 9.40784 8.4904 9.31999L6.57867 7.93103H8.94177C9.09117 7.93103 9.22354 7.83482 9.26971 7.69275L10 5.44517L10.7304 7.69241C10.7766 7.83447 10.9089 7.93068 11.0583 7.93068L13.4214 7.93103L11.5097 9.31965Z" fill="#252525"/>
</svg>
