<svg width="17" height="15" viewBox="0 0 17 15" fill="none" xmlns="http://www.w3.org/2000/svg">
<g clip-path="url(#clip0)">
<path d="M12.4395 6.73828C12.7954 6.73828 13.084 6.47595 13.084 6.15234C13.084 5.82874 12.7954 5.56641 12.4395 5.56641C12.0835 5.56641 11.7949 5.82874 11.7949 6.15234C11.7949 6.47595 12.0835 6.73828 12.4395 6.73828Z" fill="#252525"/>
<path d="M13.9219 1.17188H13.084V0.585938C13.084 0.262324 12.7954 0 12.4395 0C12.0835 0 11.7949 0.262324 11.7949 0.585938V1.17188H8.8623V0.585938C8.8623 0.262324 8.57375 0 8.21777 0C7.8618 0 7.57324 0.262324 7.57324 0.585938V1.17188H4.67285V0.585938C4.67285 0.262324 4.38429 0 4.02832 0C3.67235 0 3.38379 0.262324 3.38379 0.585938V1.17188H2.57812C1.15655 1.17188 0 2.22328 0 3.51562V12.6562C0 13.9486 1.15655 15 2.57812 15H7.50879C7.86476 15 8.15332 14.7377 8.15332 14.4141C8.15332 14.0904 7.86476 13.8281 7.50879 13.8281H2.57812C1.86734 13.8281 1.28906 13.3024 1.28906 12.6562V3.51562C1.28906 2.86945 1.86734 2.34375 2.57812 2.34375H3.38379V2.92969C3.38379 3.2533 3.67235 3.51562 4.02832 3.51562C4.38429 3.51562 4.67285 3.2533 4.67285 2.92969V2.34375H7.57324V2.92969C7.57324 3.2533 7.8618 3.51562 8.21777 3.51562C8.57375 3.51562 8.8623 3.2533 8.8623 2.92969V2.34375H11.7949V2.92969C11.7949 3.2533 12.0835 3.51562 12.4395 3.51562C12.7954 3.51562 13.084 3.2533 13.084 2.92969V2.34375H13.9219C14.6327 2.34375 15.2109 2.86945 15.2109 3.51562V6.85547C15.2109 7.17908 15.4995 7.44141 15.8555 7.44141C16.2114 7.44141 16.5 7.17908 16.5 6.85547V3.51562C16.5 2.22328 15.3435 1.17188 13.9219 1.17188Z" fill="#252525"/>
<path d="M12.6006 7.91016C10.4504 7.91016 8.70117 9.50039 8.70117 11.4551C8.70117 13.4098 10.4504 15 12.6006 15C14.7507 15 16.5 13.4098 16.5 11.4551C16.5 9.50039 14.7507 7.91016 12.6006 7.91016ZM12.6006 13.8281C11.1613 13.8281 9.99023 12.7636 9.99023 11.4551C9.99023 10.1466 11.1613 9.08203 12.6006 9.08203C14.0399 9.08203 15.2109 10.1466 15.2109 11.4551C15.2109 12.7636 14.0399 13.8281 12.6006 13.8281Z" fill="#252525"/>
<path d="M13.5352 10.8691H13.2451V10.2539C13.2451 9.93029 12.9566 9.66797 12.6006 9.66797C12.2446 9.66797 11.9561 9.93029 11.9561 10.2539V11.4551C11.9561 11.7787 12.2446 12.041 12.6006 12.041H13.5352C13.8911 12.041 14.1797 11.7787 14.1797 11.4551C14.1797 11.1315 13.8911 10.8691 13.5352 10.8691Z" fill="#252525"/>
<path d="M9.63574 6.73828C9.99171 6.73828 10.2803 6.47595 10.2803 6.15234C10.2803 5.82874 9.99171 5.56641 9.63574 5.56641C9.27978 5.56641 8.99121 5.82874 8.99121 6.15234C8.99121 6.47595 9.27978 6.73828 9.63574 6.73828Z" fill="#252525"/>
<path d="M6.83203 9.28711C7.188 9.28711 7.47656 9.02478 7.47656 8.70117C7.47656 8.37757 7.188 8.11523 6.83203 8.11523C6.47607 8.11523 6.1875 8.37757 6.1875 8.70117C6.1875 9.02478 6.47607 9.28711 6.83203 9.28711Z" fill="#252525"/>
<path d="M4.02832 6.73828C4.38429 6.73828 4.67285 6.47595 4.67285 6.15234C4.67285 5.82874 4.38429 5.56641 4.02832 5.56641C3.67236 5.56641 3.38379 5.82874 3.38379 6.15234C3.38379 6.47595 3.67236 6.73828 4.02832 6.73828Z" fill="#252525"/>
<path d="M4.02832 9.28711C4.38429 9.28711 4.67285 9.02478 4.67285 8.70117C4.67285 8.37757 4.38429 8.11523 4.02832 8.11523C3.67236 8.11523 3.38379 8.37757 3.38379 8.70117C3.38379 9.02478 3.67236 9.28711 4.02832 9.28711Z" fill="#252525"/>
<path d="M4.02832 11.8359C4.38429 11.8359 4.67285 11.5736 4.67285 11.25C4.67285 10.9264 4.38429 10.6641 4.02832 10.6641C3.67236 10.6641 3.38379 10.9264 3.38379 11.25C3.38379 11.5736 3.67236 11.8359 4.02832 11.8359Z" fill="#252525"/>
<path d="M6.83203 11.8359C7.188 11.8359 7.47656 11.5736 7.47656 11.25C7.47656 10.9264 7.188 10.6641 6.83203 10.6641C6.47607 10.6641 6.1875 10.9264 6.1875 11.25C6.1875 11.5736 6.47607 11.8359 6.83203 11.8359Z" fill="#252525"/>
<path d="M6.83203 6.73828C7.188 6.73828 7.47656 6.47595 7.47656 6.15234C7.47656 5.82874 7.188 5.56641 6.83203 5.56641C6.47607 5.56641 6.1875 5.82874 6.1875 6.15234C6.1875 6.47595 6.47607 6.73828 6.83203 6.73828Z" fill="#252525"/>
</g>
<defs>
<clipPath id="clip0">
<rect width="16.5" height="15" fill="white"/>
</clipPath>
</defs>
</svg>
