<?xml version="1.0" encoding="utf-8"?>
<!-- Svg Vector Icons : http://www.onlinewebfonts.com/icon -->
<!DOCTYPE svg PUBLIC "-//W3C//DTD SVG 1.1//EN" "http://www.w3.org/Graphics/SVG/1.1/DTD/svg11.dtd">
<svg version="1.1" xmlns="http://www.w3.org/2000/svg" xmlns:xlink="http://www.w3.org/1999/xlink" x="0px" y="0px" viewBox="0 0 1000 1000" enable-background="new 0 0 1000 1000" xml:space="preserve">
<metadata> Svg Vector Icons : http://www.onlinewebfonts.com/icon </metadata>
<g><path d="M990,500c0-9.1-5.3-16.8-12.8-20.5l0.1-0.1l-144.9-70.7l144.9-70.7l-0.1-0.1c7.5-3.7,12.8-11.4,12.8-20.4c0-9.1-5.3-16.8-12.8-20.5l0.1-0.1l-467.8-228c-2.9-1.4-6.1-2.4-9.5-2.4c-3.4,0-6.6,0.9-9.5,2.4l-0.1-0.1L22.8,297c-7.5,3.7-12.8,11.4-12.8,20.4c0,9.1,5.3,16.8,12.8,20.5l-0.1,0.1l144.9,70.7L22.7,479.4l0.1,0.1C15.3,483.2,10,490.9,10,500c0,9.1,5.3,16.8,12.8,20.5l-0.1,0.1l144.9,70.7L22.7,661.9l0.1,0.1c-7.5,3.7-12.8,11.4-12.8,20.5c0,9.1,5.3,16.8,12.8,20.5l-0.1,0.1l467.8,228c2.9,1.4,6.1,2.4,9.5,2.4c3.4,0,6.6-0.9,9.5-2.4l0.1,0.1L977.2,703c7.5-3.7,12.8-11.4,12.8-20.5c0-9.1-5.3-16.8-12.8-20.4l0.1-0.1l-144.9-70.7l144.9-70.7l-0.1-0.1C984.7,516.8,990,509.1,990,500L990,500z M84.1,317.5L500,114.6l415.9,202.9L500,520.4L84.1,317.5L84.1,317.5z M915.9,682.5L500,885.4L84.1,682.5l135.3-66l271.1,132.1c2.9,1.4,6.1,2.4,9.5,2.4c3.4,0,6.6-0.9,9.5-2.4l0.1,0.1l271.1-132.2L915.9,682.5L915.9,682.5L915.9,682.5z M500,702.9L84.1,500l135.3-66l271.1,132.1c2.9,1.4,6.1,2.4,9.5,2.4c3.4,0,6.6-0.9,9.5-2.4l0.1,0.1L780.6,434l135.3,66L500,702.9L500,702.9z"/></g>
</svg>