<svg width="160" height="28" viewBox="0 0 160 28" fill="none" xmlns="http://www.w3.org/2000/svg">
<path d="M20.2609 20.2875L22.8006 25.3668C22.8006 25.3668 19.8659 27.7936 14.1939 27.7936C6.80067 27.7654 0 21.7548 0 14.2487C0 6.74256 6.77245 0.619141 14.1939 0.619141C19.8659 0.619141 22.8006 3.04594 22.8006 3.04594L20.2609 8.12527C18.7507 7.08281 16.9602 6.52206 15.1251 6.51682C9.11459 6.51682 6.49026 10.6932 6.49026 14.1923C6.49026 17.6914 9.11459 21.8959 15.1251 21.8959C16.9602 21.8907 18.7507 21.3299 20.2609 20.2875Z" fill="white"/>
<path d="M31.2943 4.29072C31.2943 4.94929 31.0991 5.59308 30.7332 6.14066C30.3673 6.68824 29.8472 7.11502 29.2388 7.36705C28.6304 7.61907 27.9609 7.68501 27.3149 7.55653C26.669 7.42805 26.0757 7.11092 25.61 6.64524C25.1444 6.17956 24.8272 5.58625 24.6987 4.94033C24.5703 4.29442 24.6362 3.62491 24.8882 3.01647C25.1403 2.40803 25.567 1.88799 26.1146 1.52211C26.6622 1.15623 27.306 0.960938 27.9646 0.960938C28.8477 0.960938 29.6946 1.31175 30.3191 1.93621C30.9435 2.56067 31.2943 3.40761 31.2943 4.29072ZM25.0863 27.3171H30.7018V11.0067H25.0863V27.3171Z" fill="white"/>
<path d="M58.2143 4.29072C58.2143 4.94929 58.019 5.59308 57.6531 6.14066C57.2872 6.68824 56.7672 7.11502 56.1587 7.36705C55.5503 7.61907 54.8808 7.68501 54.2349 7.55653C53.589 7.42805 52.9956 7.11092 52.53 6.64524C52.0643 6.17956 51.7472 5.58625 51.6187 4.94033C51.4902 4.29442 51.5561 3.62491 51.8082 3.01647C52.0602 2.40803 52.487 1.88799 53.0345 1.52211C53.5821 1.15623 54.2259 0.960938 54.8845 0.960938C55.7676 0.960938 56.6145 1.31175 57.239 1.93621C57.8634 2.56067 58.2143 3.40761 58.2143 4.29072ZM52.0062 27.3171H57.6217V11.0067H52.0062V27.3171Z" fill="white"/>
<path d="M66.3682 19.132C66.357 19.6532 66.449 20.1714 66.639 20.6569C66.8289 21.1423 67.1131 21.5853 67.4751 21.9604C67.8371 22.3355 68.2697 22.6353 68.7481 22.8424C69.2265 23.0496 69.7411 23.16 70.2623 23.1673C71.2295 23.1853 72.1808 22.9205 72.9995 22.4054L74.9184 26.2996C74.9184 26.2996 73.0842 27.7669 69.444 27.7669C64.7315 27.7669 60.4141 23.9574 60.4141 19.1885C60.4141 14.4195 64.7033 10.5254 69.444 10.5254C73.056 10.5254 74.9184 12.0492 74.9184 12.0492L72.9995 15.8869C72.1808 15.3718 71.2295 15.107 70.2623 15.125C69.7435 15.1324 69.2312 15.2419 68.7547 15.4472C68.2782 15.6526 67.8469 15.9498 67.4852 16.3219C67.1236 16.694 66.8389 17.1337 66.6472 17.6159C66.4555 18.098 66.3607 18.6132 66.3682 19.132Z" fill="white"/>
<path d="M91.8241 22.0679H100.854V27.3166H85.8418V1.10156H91.8241V22.0679Z" fill="white"/>
<path d="M110.7 10.5547C112.901 10.5547 114.707 11.2884 116.034 12.5864V11.0062H121.649V27.3165H116.09V25.4541H116.034C115.353 26.1882 114.528 26.7729 113.61 27.1712C112.692 27.5695 111.701 27.7728 110.7 27.768C105.931 27.768 102.602 23.9303 102.602 19.1613C102.602 14.3924 105.931 10.5547 110.7 10.5547ZM112.393 22.9991C114.594 22.9991 116.175 21.4188 116.175 19.1896C116.175 18.183 115.775 17.2176 115.063 16.5058C114.351 15.794 113.386 15.3942 112.379 15.3942C111.373 15.3942 110.407 15.794 109.696 16.5058C108.984 17.2176 108.584 18.183 108.584 19.1896C108.584 21.3906 110.108 22.9991 112.393 22.9991Z" fill="white"/>
<path d="M136.412 27.767C135.411 27.7718 134.42 27.5686 133.502 27.1703C132.584 26.7719 131.759 26.1872 131.078 25.4531H131.022V27.2873H125.463V0H131.078V12.5855C132.405 11.2874 134.211 10.5537 136.412 10.5537C141.181 10.5537 144.51 14.4197 144.51 19.1886C144.51 23.9575 141.181 27.767 136.412 27.767ZM134.719 15.3227C134.215 15.3185 133.716 15.4165 133.251 15.6107C132.786 15.805 132.366 16.0915 132.015 16.4528C131.664 16.8142 131.39 17.243 131.21 17.7132C131.03 18.1834 130.946 18.6853 130.966 19.1886C130.966 21.4179 132.546 22.9981 134.747 22.9981C136.948 22.9981 138.556 21.3897 138.556 19.1886C138.576 18.6805 138.491 18.1738 138.307 17.6997C138.123 17.2257 137.844 16.7942 137.487 16.4321C137.13 16.0699 136.703 15.7846 136.232 15.5938C135.761 15.403 135.255 15.3107 134.747 15.3227H134.719Z" fill="white"/>
<path d="M159.688 11.8234L157.854 15.5201C157.854 15.5201 155.963 14.5042 154.242 14.5042C153 14.5042 152.492 14.73 152.492 15.4919C152.492 16.2538 153.649 16.5924 155.032 17.0439C157.176 17.7211 159.998 18.9063 159.998 22.2643C159.998 27.0615 155.624 27.8234 152.295 27.8234C150.003 27.8531 147.775 27.0737 146.002 25.6223L148.288 21.7846C148.288 21.7846 150.517 23.647 152.323 23.647C153.113 23.647 154.072 23.5624 154.072 22.4618C154.072 21.3613 152.295 21.192 150.46 20.2326C148.626 19.2731 147.159 18.2291 147.159 15.774C147.159 12.4443 149.981 10.5254 154.27 10.5254C156.151 10.5431 158.003 10.9869 159.688 11.8234Z" fill="white"/>
<path d="M33.0449 11.8242H48.3112V27.0622L33.0449 11.8242Z" fill="#FFCC00"/>
</svg>
