<svg id="Layer_1" data-name="Layer 1" xmlns="http://www.w3.org/2000/svg" viewBox="0 0 566.9 98.4"><defs><style>.cls-1{fill:#fc0;}</style></defs><title>Civic labs logo</title><path d="M71.8,71.9l9,18s-10.4,8.6-30.5,8.6C24.1,98.4,0,77.1,0,50.5S24,2.2,50.3,2.2c20.1,0,30.5,8.6,30.5,8.6l-9,18a32.2,32.2,0,0,0-18.2-5.7C32.3,23.1,23,37.9,23,50.3s9.3,27.3,30.6,27.3A32.2,32.2,0,0,0,71.8,71.9Z"/><path d="M110.9,15.2A11.8,11.8,0,1,1,99.1,3.4,11.8,11.8,0,0,1,110.9,15.2ZM88.9,96.8h19.9V39H88.9Z"/><path d="M206.3,15.2A11.8,11.8,0,1,1,194.5,3.4,11.8,11.8,0,0,1,206.3,15.2ZM184.3,96.8h19.9V39H184.3Z"/><path d="M235.2,67.8A14,14,0,0,0,249,82.1a17.6,17.6,0,0,0,9.7-2.7l6.8,13.8s-6.5,5.2-19.4,5.2c-16.7,0-32-13.5-32-30.4s15.2-30.7,32-30.7c12.8,0,19.4,5.4,19.4,5.4l-6.8,13.6a17.6,17.6,0,0,0-9.7-2.7A14,14,0,0,0,235.2,67.8Z"/><path d="M325.4,78.2h32V96.8H304.2V3.9h21.2Z"/><path d="M392.3,37.4c7.8,0,14.2,2.6,18.9,7.2V39h19.9V96.8H411.4V90.2h-.2a25.6,25.6,0,0,1-18.9,8.2c-16.9,0-28.7-13.6-28.7-30.5S375.4,37.4,392.3,37.4Zm6,44.1c7.8,0,13.4-5.6,13.4-13.5a13.4,13.4,0,1,0-26.9,0C384.8,75.8,390.2,81.5,398.3,81.5Z"/><path d="M483.4,98.4a25.6,25.6,0,0,1-18.9-8.2h-.2v6.5H444.6V0h19.9V44.6c4.7-4.6,11.1-7.2,18.9-7.2,16.9,0,28.7,13.7,28.7,30.6S500.3,98.4,483.4,98.4Zm-6-44.1A13.2,13.2,0,0,0,464.1,68c0,7.9,5.6,13.5,13.4,13.5S491,75.8,491,68A13.2,13.2,0,0,0,477.5,54.3Z"/><path d="M565.9,41.9l-6.5,13.1s-6.7-3.6-12.8-3.6c-4.4,0-6.2.8-6.2,3.5s4.1,3.9,9,5.5c7.6,2.4,17.6,6.6,17.6,18.5,0,17-15.5,19.7-27.3,19.7a34.5,34.5,0,0,1-22.3-7.8l8.1-13.6s7.9,6.6,14.3,6.6c2.8,0,6.2-.3,6.2-4.2s-6.3-4.5-12.8-7.9-11.7-7.1-11.7-15.8c0-11.8,10-18.6,25.2-18.6A44.1,44.1,0,0,1,565.9,41.9Z"/><polygon class="cls-1" points="117.1 41.9 171.2 41.9 171.2 95.9 117.1 41.9"/></svg>