<svg width="160" height="35" viewBox="0 0 160 35" fill="none" xmlns="http://www.w3.org/2000/svg">
<path d="M21.12 6.41602H0V31.1215H1.728V8.40529H20.256C20.8815 8.47575 21.4592 8.77481 21.8787 9.24535C22.2983 9.71589 22.5302 10.3249 22.5302 10.9561C22.5302 11.5872 22.2983 12.1962 21.8787 12.6668C21.4592 13.1373 20.8815 13.4364 20.256 13.5068H3.42399V34.6188H21.12C22.014 34.6104 22.8686 34.2483 23.4978 33.6114C24.127 32.9745 24.48 32.1143 24.48 31.2178V9.81704C24.48 8.92056 24.127 8.06033 23.4978 7.42342C22.8686 6.78652 22.014 6.42447 21.12 6.41602Z" fill="white"/>
<path d="M19.2318 10.0762H3.42383V11.7895H19.2318V10.0762Z" fill="white"/>
<path d="M111.008 0.03125L111.104 0.127505C111.083 0.277236 111.072 0.426966 111.072 0.576697C111.072 0.726427 111.072 0.886853 111.072 1.05797H110.816C110.816 0.961718 110.816 0.897548 110.784 0.801292V0.512527L110.4 0.416271H109.376V0.576697C109.376 0.640867 109.376 0.726427 109.376 0.833378V2.02053H109.824C110.315 2.02053 110.56 1.8708 110.56 1.57133V1.50716H110.784C110.784 1.63551 110.784 1.75315 110.784 1.8601C110.784 1.96705 110.784 2.09539 110.784 2.24512C110.784 2.39485 110.784 2.52319 110.784 2.63014C110.784 2.7264 110.784 2.82265 110.784 2.91891H110.528V2.79057C110.528 2.49111 110.251 2.34138 109.696 2.34138H109.376V3.65687C109.376 3.99911 109.536 4.17023 109.856 4.17023H109.984V4.42691H107.904V4.17023H108.352C108.384 4.13814 108.416 4.04189 108.416 3.84938C108.416 3.65687 108.448 3.30393 108.448 2.7264V1.28257C108.448 1.2184 108.448 1.13284 108.448 1.02589C108.448 0.918938 108.448 0.844073 108.448 0.801292C108.468 0.655193 108.434 0.507015 108.352 0.384186C108.216 0.307145 108.06 0.273565 107.904 0.287931V0.03125H111.008Z" fill="white"/>
<path d="M112.832 0.03125H114.784V0.287931H114.72C114.653 0.27762 114.584 0.280822 114.518 0.297347C114.452 0.313873 114.39 0.343393 114.336 0.384186C114.257 0.543165 114.224 0.720826 114.24 0.897548V2.82265C114.215 3.16806 114.318 3.51064 114.528 3.78521C114.64 3.89881 114.775 3.98642 114.924 4.04186C115.074 4.0973 115.233 4.11921 115.392 4.10606C115.602 4.10921 115.809 4.06536 116 3.97772C116.172 3.90623 116.317 3.78288 116.416 3.62478C116.485 3.49548 116.529 3.35377 116.544 3.20768C116.575 2.89856 116.586 2.58773 116.576 2.27721V1.12214C116.597 0.882612 116.564 0.641374 116.48 0.416271C116.416 0.330711 116.288 0.287931 116.096 0.287931H116V0.03125H117.44V0.287931H117.376C117.316 0.280021 117.255 0.287671 117.199 0.310146C117.143 0.332621 117.094 0.369166 117.056 0.416271C116.978 0.620653 116.945 0.839622 116.96 1.05797V2.56597C116.965 2.85609 116.944 3.14605 116.896 3.43227C116.861 3.603 116.796 3.76605 116.704 3.91355C116.557 4.13457 116.344 4.30312 116.096 4.39482C115.789 4.51014 115.463 4.56462 115.136 4.55525C114.496 4.55525 114.037 4.4376 113.76 4.20231C113.483 3.96702 113.355 3.56061 113.376 2.98308V0.865463C113.395 0.709188 113.361 0.55108 113.28 0.416271C113.146 0.331583 112.991 0.287057 112.832 0.287931V0.03125Z" fill="white"/>
<path d="M119.298 0.03125H120.642L121.826 1.60342L123.234 3.27185V0.897548C123.254 0.723757 123.232 0.547686 123.17 0.384186C123.127 0.320016 123.02 0.287931 122.85 0.287931H122.69V0.03125H124.162V0.287931H123.81C123.782 0.291299 123.755 0.301968 123.733 0.318864C123.71 0.33576 123.693 0.358289 123.682 0.384186C123.642 0.638961 123.62 0.896327 123.618 1.15423C123.596 1.56064 123.586 2.06331 123.586 2.66223C123.586 3.26115 123.586 3.65687 123.586 3.84938C123.586 4.04189 123.596 4.26648 123.618 4.52316L123.17 4.45899C123.111 4.44766 123.056 4.4248 123.006 4.39175C122.957 4.3587 122.914 4.31612 122.882 4.26648L122.818 4.20231H122.786C122.039 3.3681 121.175 2.30929 120.194 1.02589V3.27185C120.194 3.52853 120.204 3.73173 120.226 3.88146C120.223 3.96817 120.234 4.05477 120.258 4.13814L120.386 4.20231H120.738V4.45899H119.266V4.20231H119.65L119.746 4.13814C119.78 4.03428 119.802 3.9265 119.81 3.81729C119.831 3.64617 119.842 3.44297 119.842 3.20768V0.961718C119.863 0.777386 119.841 0.590572 119.778 0.416271C119.714 0.352101 119.618 0.287931 119.426 0.287931H119.298V0.03125Z" fill="white"/>
<path d="M125.985 0.0326408H128.321C128.674 0.0203769 129.028 0.041864 129.377 0.096811C129.605 0.141552 129.822 0.228613 130.017 0.353492C130.254 0.512559 130.443 0.734769 130.561 0.995194C130.693 1.28744 130.758 1.60513 130.753 1.92566C130.78 2.27636 130.728 2.62864 130.6 2.95636C130.473 3.28407 130.274 3.57881 130.017 3.81868C129.526 4.24648 128.801 4.46038 127.841 4.46038H126.177V4.29996L126.305 4.23579L126.433 4.13953V3.85077C126.433 3.76521 126.433 3.70104 126.433 3.65826V0.866853C126.447 0.79874 126.446 0.728406 126.43 0.660693C126.415 0.592979 126.384 0.529494 126.342 0.474608C126.299 0.419722 126.245 0.374737 126.184 0.342751C126.122 0.310765 126.054 0.292537 125.985 0.289322H125.953L125.985 0.0326408ZM127.457 4.07536H127.937C128.218 4.08364 128.498 4.05122 128.769 3.97911C128.962 3.91248 129.137 3.80276 129.281 3.65826C129.471 3.46964 129.613 3.23878 129.697 2.98447C129.803 2.69682 129.857 2.39267 129.857 2.08609C129.882 1.84495 129.858 1.60125 129.787 1.36965C129.715 1.13806 129.598 0.923375 129.441 0.738513C129.054 0.426069 128.56 0.276542 128.065 0.321407H127.457V0.417662C127.436 0.610173 127.425 0.749208 127.425 0.834768V3.27324C127.425 3.3588 127.425 3.45505 127.425 3.562C127.425 3.66895 127.425 3.84007 127.425 4.07536H127.457Z" fill="white"/>
<path d="M134.431 0H134.847L135.807 2.31013L136.415 3.72187L136.607 4.10689L136.735 4.20315H136.959V4.45983H135.007V4.20315H135.391C135.455 4.17106 135.487 4.13898 135.487 4.10689C135.484 4.0178 135.462 3.93039 135.423 3.85021L135.071 2.98391H133.599L133.343 3.6577L133.279 3.91438C133.262 3.97725 133.251 4.04178 133.247 4.10689C133.247 4.21384 133.396 4.26732 133.695 4.26732H133.727V4.524H132.287V4.26732C132.397 4.26372 132.504 4.22856 132.595 4.166C132.685 4.10345 132.756 4.01613 132.799 3.91438L133.439 2.40638L134.431 0ZM134.367 1.02672L133.759 2.59889H134.975L134.367 1.02672Z" fill="white"/>
<path d="M138.047 0.03125H142.015C141.994 0.202371 141.983 0.373491 141.983 0.544612C141.983 0.715732 141.972 0.897548 141.951 1.09006H141.695V0.897548C141.695 0.662257 141.652 0.523222 141.567 0.480441H140.479V0.640867C140.479 0.705037 140.479 0.737122 140.479 0.801292V3.65687C140.479 3.93494 140.511 4.09536 140.575 4.13814C140.725 4.20678 140.892 4.22912 141.055 4.20231V4.45899H139.071V4.20231C139.223 4.21832 139.377 4.19627 139.519 4.13814C139.583 4.09536 139.615 3.96702 139.615 3.75312V0.769207C139.615 0.705037 139.615 0.672952 139.615 0.608782V0.448356H138.783L138.463 0.512527C138.431 0.544612 138.399 0.640867 138.367 0.897548V1.09006H138.111V0.865463C138.111 0.715732 138.111 0.576697 138.111 0.448356C138.047 0.287931 138.047 0.15959 138.047 0.03125Z" fill="white"/>
<path d="M143.807 0.03125H145.791V0.287931C145.625 0.268941 145.457 0.302603 145.311 0.384186C145.226 0.563822 145.193 0.763987 145.215 0.961718V3.5927C145.215 3.89216 145.237 4.06328 145.279 4.10606C145.429 4.17665 145.597 4.19907 145.759 4.17023V4.42691H143.775V4.17023C143.928 4.18623 144.082 4.16419 144.223 4.10606C144.287 4.06328 144.319 3.92424 144.319 3.68895V0.769207C144.319 0.555307 144.287 0.426966 144.223 0.384186C144.082 0.323266 143.928 0.301116 143.775 0.320016L143.807 0.03125Z" fill="white"/>
<path d="M149.664 0H150.08L151.04 2.31013L151.648 3.72187L151.84 4.10689L151.968 4.20315H152.192V4.45983H150.24V4.20315H150.624C150.688 4.17106 150.72 4.13898 150.72 4.10689C150.716 4.0178 150.694 3.93039 150.656 3.85021L150.304 2.98391H148.832L148.576 3.6577L148.512 3.91438C148.494 3.97725 148.483 4.04178 148.48 4.10689C148.48 4.21384 148.629 4.26732 148.928 4.26732H148.96V4.524H147.52V4.26732C147.63 4.26372 147.736 4.22856 147.827 4.166C147.918 4.10345 147.989 4.01613 148.032 3.91438L148.672 2.40638L149.664 0ZM149.6 1.02672L149.024 2.59889H150.24L149.6 1.02672Z" fill="white"/>
<path d="M140.609 4.7168L139.969 4.81305C139.969 4.81305 139.809 5.74352 139.521 5.93603C139.613 5.95294 139.708 5.94717 139.797 5.91923C139.886 5.89128 139.968 5.84199 140.033 5.77561C140.258 5.44158 140.451 5.08708 140.609 4.7168Z" fill="white"/>
<path d="M27.9043 10.9414H32.1603V30.2887H27.9043V10.9414Z" fill="white"/>
<path d="M43.8716 30.2887H36.3516V10.9414H43.8716C49.9195 10.9414 54.1115 15.1125 54.1115 20.5669V20.6311C54.1435 26.0535 49.9515 30.2887 43.8716 30.2887ZM43.8716 14.7916H40.6076V26.4706H43.8716C47.3275 26.4706 49.6955 24.1284 49.6955 20.6953V20.6311C49.6955 17.198 47.3595 14.7916 43.8716 14.7916Z" fill="white"/>
<path d="M68.5115 25.9567H60.3515L58.5915 30.2882H54.2715L62.5275 10.8125H66.4315L74.6874 30.2882H70.2715L68.5115 25.9567ZM61.8875 22.2027H67.0075L64.4475 15.9461L61.8875 22.2027Z" fill="white"/>
<path d="M84.8958 30.6422C79.2318 30.6422 75.0078 26.2465 75.0078 20.6958V20.6316C75.0078 15.1451 79.1358 10.6211 85.0558 10.6211C88.7038 10.6211 90.8798 11.8403 92.6718 13.605L89.9838 16.7173C88.5118 15.3697 86.9758 14.5355 85.0558 14.5355C81.7918 14.5355 79.4558 17.2306 79.4558 20.5675V20.6316C79.4558 23.9364 81.7278 26.6957 85.0558 26.6957C87.2638 26.6957 88.6078 25.7973 90.1118 24.4177L92.7998 27.1449C90.8158 29.2946 88.6078 30.6422 84.8958 30.6422Z" fill="white"/>
<path d="M104.321 30.2887H100.065V14.8879H94.209V10.9414H110.177V14.8879H104.321V30.2887Z" fill="white"/>
<path d="M113.025 10.9414H117.281V30.2887H113.025V10.9414Z" fill="white"/>
<path d="M130.529 30.6422C124.865 30.6422 120.641 26.2465 120.641 20.6958V20.6316C120.641 15.1451 124.769 10.6211 130.689 10.6211C134.337 10.6211 136.513 11.8403 138.305 13.605L135.617 16.7173C134.145 15.3697 132.609 14.5355 130.689 14.5355C127.425 14.5355 125.089 17.2306 125.089 20.5675V20.6316C125.089 23.9364 127.361 26.6957 130.689 26.6957C132.897 26.6957 134.241 25.7973 135.745 24.4177L138.433 27.1449C136.449 29.2946 134.241 30.6422 130.529 30.6422Z" fill="white"/>
<path d="M153.791 25.9567H145.631L143.871 30.2882H139.551L147.807 10.8125H151.711L159.999 30.2882H155.551L153.791 25.9567ZM147.167 22.2027H152.287L149.727 15.9461L147.167 22.2027Z" fill="white"/>
</svg>
