<svg width="22" height="25" viewBox="0 0 22 25" fill="none" xmlns="http://www.w3.org/2000/svg">
<path d="M20.8449 20.4146C17.8263 17.7977 16.5312 14.4105 16.5155 9.09027C16.5107 7.47684 15.8449 5.89716 14.6889 4.75637C14.1941 4.26809 13.6322 3.87727 13.0264 3.59231V2.55109C13.0264 1.14441 11.8798 0 10.4702 0C9.06074 0 7.91409 1.14441 7.91409 2.55109V3.65507C5.94472 4.63087 4.5848 6.66125 4.5848 8.99128C4.5848 11.7335 4.2452 13.9544 3.5467 15.7809C2.85986 17.5771 1.78392 19.0924 0.257537 20.4135C0.022856 20.6164 -0.061805 20.9481 0.0467445 21.2384C0.155485 21.5287 0.436987 21.7236 0.747347 21.7236L6.72425 21.7238C6.8651 23.5538 8.40085 24.9999 10.2697 24.9999C12.1385 24.9999 13.6743 23.5539 13.8151 21.7242L20.3547 21.7244C20.665 21.7244 20.9465 21.5295 21.0551 21.2392C21.1636 20.9491 21.0791 20.6178 20.8449 20.4146ZM9.38524 2.55109C9.38524 1.95409 9.872 1.46828 10.4702 1.46828C11.0685 1.46828 11.5553 1.95409 11.5553 2.55109V3.12654C11.2094 3.06588 10.8566 3.03594 10.4996 3.03861C10.1187 3.04185 9.74625 3.08152 9.38524 3.15362V2.55109ZM10.2697 23.5318C9.21267 23.5318 8.3374 22.7429 8.20248 21.724L12.3371 21.7242C12.2022 22.7429 11.3267 23.5318 10.2697 23.5318ZM2.51395 20.2556C3.5639 19.0833 4.35719 17.7788 4.92096 16.3047C5.68463 14.3078 6.05576 11.9158 6.05576 8.99147C6.05576 6.53918 8.05494 4.52749 10.512 4.5067C11.6839 4.49488 12.7992 4.95646 13.6546 5.80046C14.5341 6.6685 15.0407 7.86918 15.0443 9.09466C15.0529 11.9868 15.4288 14.3561 16.1937 16.338C16.7569 17.7979 17.5467 19.0917 18.589 20.2563L2.51395 20.2556Z" fill="#252525"/>
</svg>
