<svg width="19" height="15" viewBox="0 0 19 15" fill="none" xmlns="http://www.w3.org/2000/svg">
<path d="M15.8972 6.66732L6.12183 6.66731C5.65585 6.66731 5.27808 7.04042 5.27808 7.50064C5.27808 7.96086 5.65585 8.33397 6.12183 8.33397L15.8972 8.33397L14.8063 9.41141C14.4768 9.73685 14.4768 10.2645 14.8063 10.5899C15.1357 10.9153 15.67 10.9153 15.9995 10.5899L18.5306 8.08997C18.5504 8.07047 18.569 8.05003 18.5867 8.0287C18.5944 8.01942 18.6011 8.00959 18.6084 8.00009C18.6176 7.98786 18.6272 7.97592 18.6358 7.9632C18.6437 7.95159 18.6505 7.93953 18.6577 7.92764C18.6646 7.9162 18.6719 7.90503 18.6782 7.89325C18.6849 7.88103 18.6904 7.86847 18.6964 7.85603C18.7022 7.84386 18.7084 7.83186 18.7136 7.81942C18.7187 7.80725 18.7228 7.79486 18.7273 7.78253C18.7322 7.7692 18.7373 7.75603 18.7415 7.74242C18.7453 7.73009 18.748 7.71759 18.7512 7.70509C18.7547 7.69125 18.7587 7.67748 18.7615 7.66336C18.7643 7.64898 18.7661 7.63442 18.7682 7.61992C18.77 7.60753 18.7724 7.59531 18.7736 7.58275C18.7763 7.55587 18.7777 7.52881 18.7778 7.50181L18.7778 7.50059L18.7778 7.49937C18.7777 7.47231 18.7763 7.44531 18.7736 7.41837C18.7724 7.40598 18.77 7.39392 18.7683 7.38164C18.7661 7.36698 18.7644 7.35231 18.7615 7.33776C18.7587 7.32376 18.7548 7.3102 18.7512 7.29648C18.748 7.28387 18.7452 7.27115 18.7414 7.25865C18.7373 7.24526 18.7322 7.23231 18.7274 7.2192C18.7229 7.20665 18.7187 7.19403 18.7135 7.1817C18.7084 7.16948 18.7024 7.15776 18.6967 7.14581C18.6906 7.13309 18.6849 7.12026 18.6781 7.10776C18.6719 7.09637 18.6649 7.08554 18.6582 7.07448C18.6508 7.0622 18.6438 7.04981 18.6357 7.03787C18.6275 7.0257 18.6183 7.01431 18.6095 7.00259C18.6018 6.99254 18.5947 6.98215 18.5866 6.97237C18.5698 6.95215 18.5519 6.93276 18.5333 6.91415L18.5308 6.91137L15.9995 4.41133C15.8347 4.24861 15.6189 4.16722 15.4029 4.16722C15.187 4.16728 14.971 4.24861 14.8063 4.41127C14.4768 4.73672 14.4768 5.26432 14.8063 5.58977L15.8972 6.66732Z" fill="#252525"/>
<path d="M1.62155 15L12.3091 15C12.7751 15 13.1528 14.6269 13.1528 14.1667L13.1528 10.8333C13.1528 10.3731 12.7751 10 12.3091 10C11.8431 10 11.4653 10.3731 11.4653 10.8333L11.4653 13.3333L2.46531 13.3333L2.46531 1.66666L11.4653 1.66666L11.4653 4.16671C11.4653 4.62693 11.8431 5.00004 12.3091 5.00004C12.7751 5.00004 13.1528 4.62693 13.1528 4.16671L13.1528 0.833331C13.1528 0.373111 12.7751 9.00972e-07 12.3091 8.35964e-07L1.62156 -6.55032e-07C1.15558 -7.2004e-07 0.777805 0.373109 0.777805 0.833329L0.777803 14.1667C0.777803 14.6269 1.15558 15 1.62155 15Z" fill="#252525"/>
</svg>
