<svg width="18" height="18" viewBox="0 0 18 18" fill="none" xmlns="http://www.w3.org/2000/svg">
<path d="M1.41513 8.41917L1.41515 8.41916L8.78561 1.04894L1.41513 8.41917ZM1.41513 8.41917C0.694964 9.13961 0.694941 10.3114 1.41515 11.0316L6.96824 16.5846C7.31603 16.9324 7.78037 17.124 8.27424 17.1241H8.27427M1.41513 8.41917L8.27427 17.1241M8.27427 17.1241H8.27439C8.76843 17.1241 9.23277 16.9323 9.58067 16.5844L16.9509 9.2141C17.0622 9.10279 17.1248 8.95174 17.1248 8.79429L17.125 2.72217C17.1248 1.70353 16.2962 0.875 15.2775 0.875H9.20542M8.27427 17.1241L9.20542 0.875M9.20542 0.875C9.04797 0.875 8.89692 0.937629 8.78561 1.04894L9.20542 0.875ZM8.74093 15.7448L8.7409 15.7449C8.61745 15.8684 8.45226 15.9366 8.27439 15.9366C8.09641 15.9366 7.93132 15.8684 7.80785 15.7449L2.25477 10.192C1.99768 9.9349 1.99766 9.51598 2.25478 9.25876L9.45129 2.0625H15.2775C15.6413 2.0625 15.9375 2.35861 15.9375 2.72228L15.9373 8.54842L8.74093 15.7448Z" fill="#4C025E" stroke="#4C025E" stroke-width="0.25"/>
<path d="M13.1576 5.42126L13.1575 5.42131C13.0799 5.49899 12.9772 5.5415 12.8674 5.5415C12.7575 5.5415 12.6549 5.499 12.5773 5.42131L12.5772 5.4212C12.4995 5.34361 12.457 5.24092 12.457 5.1311C12.457 5.02129 12.4995 4.9186 12.5772 4.84101L12.5773 4.8409C12.6549 4.76321 12.7576 4.7207 12.8674 4.7207C12.9772 4.7207 13.0798 4.76319 13.1576 4.84095L13.1576 4.84101C13.2353 4.9186 13.2778 5.02129 13.2778 5.1311C13.2778 5.24086 13.2352 5.3436 13.1576 5.42126ZM12.8674 3.5332C12.4408 3.5332 12.0392 3.6997 11.7376 4.00131L11.7375 4.00133C11.4359 4.30286 11.2695 4.70453 11.2695 5.1311C11.2695 5.55769 11.4359 5.95935 11.7375 6.261C12.0392 6.56264 12.4408 6.729 12.8674 6.729C13.2939 6.729 13.6956 6.56263 13.9972 6.261C14.2988 5.95935 14.4652 5.55769 14.4652 5.1311C14.4652 4.70453 14.2988 4.30286 13.9973 4.00133C13.6957 3.69971 13.294 3.5332 12.8674 3.5332Z" fill="#4C025E" stroke="#4C025E" stroke-width="0.25"/>
</svg>
