<svg id="Layer_1" data-name="Layer 1" xmlns="http://www.w3.org/2000/svg" viewBox="0 0 1020.4 372.6"><defs><style>.cls-1{fill:#fff;}.cls-2{fill:#00d857;}</style></defs><title>Logo TMS</title><path class="cls-1" d="M265.2,114.8a9.1,9.1,0,0,0-1.1-2.6A9,9,0,0,0,265.2,114.8Z"/><path class="cls-1" d="M116.9,324.1l4.5,2.9A6.9,6.9,0,0,0,116.9,324.1Z"/><path class="cls-1" d="M28.4,42.7c-.3,8.1-1.2,10.5-1.6,11.9l-.2.9h0a8,8,0,0,0,.4,2.6c1,4.2,6.9,6.2,18,6.2a11.5,11.5,0,0,0,5.2-.9l.9-.5V61.9c.2-1.2-.4-3.1-1.6-6.2v-.2c-.5-1.3-1-2.6-1.3-3.9a7,7,0,0,1,1.1-6.4c3.5-4.5,12.3-4.7,13.3-4.7s9.9.1,13.4,4.7a7,7,0,0,1,1.1,6.4c-.4,1.4-.9,2.8-1.4,4.1-1.2,3.1-1.7,4.9-1.6,6.2V63l.9.5a11.4,11.4,0,0,0,5.3.9c11.1,0,17-2,18-6.2a10,10,0,0,0,.4-2.3v-.4l-.3-.9c-.4-1.2-1.3-3.7-1.6-11.8-.2-5.1.5-8.4,2.3-10.2a6,6,0,0,1,4.5-1.8,21.8,21.8,0,0,1,7,1.7h.2a20.6,20.6,0,0,0,5,1.4h.9l.7-.6c3.7-3.5,3.1-11,3-11.1v-.2c-.1-2.3-.6-6.5-3.1-8.8l-.7-.6H116a20,20,0,0,0-5,1.4h-.2a21.7,21.7,0,0,1-7,1.7,6,6,0,0,1-4.5-1.8C97.5,12.2,96.7,9,96.9,4c0-1,.1-2,.2-2.8A112.9,112.9,0,0,0,28.3,38.3,29.8,29.8,0,0,1,28.4,42.7Z"/><path class="cls-1" d="M184.3,14.1a6.1,6.1,0,0,1-4.5,1.8,21.5,21.5,0,0,1-7-1.7h-.3a20.7,20.7,0,0,0-4.9-1.4h-.9l-.7.6c-2.5,2.3-3,6.4-3.1,8.8v.3c0,.1-.7,7.6,3,11.1l.7.6h.9a20.2,20.2,0,0,0,5-1.4h.2a21.5,21.5,0,0,1,7-1.7,6.1,6.1,0,0,1,4.5,1.8c1.8,1.9,2.6,5.1,2.4,10.2-.3,7.7-1.1,10.2-1.6,11.7a5.4,5.4,0,0,0-.3,1,7.8,7.8,0,0,0,.4,2.7c1,4.2,6.9,6.2,18,6.2a11.4,11.4,0,0,0,5.3-.9l.9-.5V61.9c.2-1.3-.4-3.1-1.6-6.2-.5-1.3-1-2.7-1.4-4.1a7,7,0,0,1,1.1-6.4c3.5-4.5,12.3-4.7,13.3-4.7s9.9.1,13.4,4.7a7,7,0,0,1,1.1,6.4c-.4,1.4-.9,2.7-1.4,4.1-1.2,3.1-1.7,4.9-1.6,6.2V63l.9.5a11.5,11.5,0,0,0,5.2.9c10,0,15.8-1.7,17.6-5.1q-1.8-3.3-3.7-6.4A113.6,113.6,0,0,0,209.4,13a112.5,112.5,0,0,0-22.8-9C186.8,9,186.1,12.2,184.3,14.1Z"/><path class="cls-1" d="M101.6,10.8l.6,1h1.4a20.1,20.1,0,0,0,5.9-1.6l4-1.4,2.2-.3c2.6,0,6.2,1.4,7.9,7.8a29.6,29.6,0,0,1,.9,6.9c0,.6-.1,14.7-8.8,14.8l-2.2-.3-4.1-1.4c-2.5-.9-4.4-1.6-5.8-1.6h-1.4l-.6,1a11.4,11.4,0,0,0-.9,5.2c0,11.1,2,17,6.2,18a10.5,10.5,0,0,0,2.4.4h.3l1-.3c1.5-.5,4.1-1.3,11.7-1.6h1.5c4.8,0,7.8,1.1,9.4,3.3s.6,7.2-.7,10.8a20.4,20.4,0,0,0-1.4,5v.9l.6.7c2.6,2.8,7.6,3.1,9.6,3.1H143c2.3-.1,6.5-.6,8.9-3.1l.6-.7v-.9a20.6,20.6,0,0,0-1.4-5c-1.3-3.6-2.9-7.8-.7-10.8s4.6-3.3,9.4-3.3h1.5c7.5.3,10.1,1.1,11.7,1.7l1,.3h.3a10.5,10.5,0,0,0,2.4-.4c4.2-1,6.2-6.9,6.2-18a11.5,11.5,0,0,0-.9-5.2l-.6-1H180c-1.5,0-3.3.7-5.8,1.6l-4.1,1.4-2.2.3c-2.6,0-6-1.3-7.8-7.4a29.1,29.1,0,0,1-1-7.2c0-.6.1-14.7,8.8-14.7l2.2.3,4.1,1.4A19.9,19.9,0,0,0,180,12h1.4l.6-1a11.6,11.6,0,0,0,.9-5.2c0-.9,0-1.8,0-2.6a113.3,113.3,0,0,0-26-3H113.1a114.3,114.3,0,0,0-12.2.7c-.1,1.5-.2,3.1-.2,4.9A11.5,11.5,0,0,0,101.6,10.8Z"/><path class="cls-1" d="M15.6,59.5h.3a10.5,10.5,0,0,0,2.4-.4c4-1,6-6.4,6.2-16.4A113.2,113.2,0,0,0,13.8,59l.9.3Z"/><path class="cls-1" d="M19.4,136.7a9.9,9.9,0,0,0,.4-2.4V134l-.3-.9c-.4-1.3-1.3-3.8-1.6-11.8-.2-5.1.5-8.4,2.3-10.2a6,6,0,0,1,4.5-1.8,21.8,21.8,0,0,1,7,1.7h.1a20.3,20.3,0,0,0,5,1.4h.9l.7-.6c3.7-3.5,3.1-11,3-11.1v-.2c-.1-2.3-.6-6.5-3.1-8.8l-.7-.6h-.9a20.1,20.1,0,0,0-5.1,1.4h-.2a21.7,21.7,0,0,1-7,1.7,6,6,0,0,1-4.5-1.8c-1.8-1.9-2.5-5.1-2.3-10.1.3-8.1,1.2-10.5,1.6-11.9l.3-.9v-.2a8.3,8.3,0,0,0-.4-2.5c-.6-2.5-3-4.2-7.1-5.2A113.4,113.4,0,0,0,4,142.9C13.4,142.6,18.5,140.6,19.4,136.7Z"/><path class="cls-1" d="M102.9,114.5l-.5-1h-1.5c-1.4,0-3.3.7-5.8,1.6L91,116.3l-2.2.3c-2.6,0-6-1.3-7.8-7.4a28.6,28.6,0,0,1-1-7.2c0-.6.1-14.7,8.8-14.7l2.2.3L95.1,89a19.8,19.8,0,0,0,5.8,1.6h1.4l.6-1a11.5,11.5,0,0,0,.9-5.2c0-11.1-2-17-6.2-18a10.4,10.4,0,0,0-2.4-.4h-.3l-1,.3c-1.5.5-4.1,1.3-11.7,1.6H80.6c-4.8,0-7.8-1.1-9.4-3.3s-.6-7.2.7-10.8a20.9,20.9,0,0,0,1.4-5v-.9l-.6-.7c-2.3-2.5-6.4-3-8.8-3.1H62.3c-2,0-7,.3-9.6,3.1l-.6.7v.9a19.6,19.6,0,0,0,1.4,5c1.3,3.6,2.9,7.8.7,10.8s-4.6,3.3-9.4,3.3H43.3c-7.6-.3-10.2-1.1-11.7-1.6l-1.1-.3h-.2a10.5,10.5,0,0,0-2.4.4c-4.2,1-6.2,6.9-6.2,18a11.4,11.4,0,0,0,.9,5.2l.6,1h1.4c1.4,0,3.3-.7,5.8-1.6h.1l4-1.3,2.2-.3c2.6,0,6.1,1.4,7.9,7.8a30.2,30.2,0,0,1,.9,6.9c0,.6-.1,14.8-8.8,14.8l-2.2-.3L30.3,115a19.9,19.9,0,0,0-5.8-1.6H23.1l-.6,1a11.4,11.4,0,0,0-.9,5.2c0,11.1,2,17,6.2,18a10.5,10.5,0,0,0,2.4.4h.3l1-.3c1.5-.5,4.1-1.3,11.7-1.6h1.5c4.8,0,7.8,1.1,9.4,3.3s.6,7.2-.7,10.8a20.7,20.7,0,0,0-1.4,5v.9l.6.7c2.6,2.8,7.6,3.1,9.6,3.1H64c2.3-.1,6.5-.6,8.8-3.1l.6-.7v-.9a19.8,19.8,0,0,0-1.4-5c-1.3-3.6-2.9-7.8-.7-10.8s4.6-3.3,9.4-3.3h1.5c7.6.3,10.2,1.1,11.7,1.6l1.1.3h.2a10.5,10.5,0,0,0,2.4-.4c4.2-1,6.2-6.9,6.2-18A11.5,11.5,0,0,0,102.9,114.5Z"/><path class="cls-1" d="M181.8,90.4h1.4c1.4,0,3.3-.7,5.8-1.6h.2l3.9-1.3,2.2-.3c2.6,0,6.1,1.4,7.9,7.8a30.2,30.2,0,0,1,.9,6.9c0,.6-.1,14.8-8.8,14.8l-2.2-.3L189,115a19.9,19.9,0,0,0-5.8-1.6h-1.4l-.6,1a11.4,11.4,0,0,0-.9,5.2c0,11.1,2,17,6.2,18a10.5,10.5,0,0,0,2.4.4h.3l1-.3c1.5-.5,4.1-1.3,11.7-1.6h1.5c4.8,0,7.8,1.1,9.4,3.3s.6,7.2-.7,10.8a20.7,20.7,0,0,0-1.4,5v.9l.6.7c2.6,2.8,7.6,3.1,9.6,3.1h1.7c2.3-.1,6.5-.6,8.8-3.1l.6-.7v-.9a19.6,19.6,0,0,0-1.4-5c-1.3-3.6-2.9-7.8-.7-10.8s4.6-3.3,9.4-3.3h1.5c7.6.3,10.2,1.1,11.7,1.6l1.1.3h.2a10.5,10.5,0,0,0,2.4-.4c4.2-1,6.2-6.9,6.2-18a11.4,11.4,0,0,0-.9-5.2l-.5-1h-1.5c-1.4,0-3.3.7-5.8,1.6l-4.1,1.4-2.2.3c-2.6,0-6-1.3-7.8-7.4a28.6,28.6,0,0,1-1-7.2c0-.6.1-14.7,8.8-14.7l2.2.3,4.1,1.4a19.8,19.8,0,0,0,5.8,1.6H261l.6-1a11.5,11.5,0,0,0,.9-5.2c0-11.1-2-17-6.2-18a10.4,10.4,0,0,0-2.4-.4h-.3l-1,.3c-1.5.5-4.1,1.3-11.7,1.6h-1.5c-4.8,0-7.8-1.1-9.4-3.3s-.6-7.2.7-10.8a19.9,19.9,0,0,0,1.4-5v-.9l-.6-.7c-2.3-2.5-6.4-3-8.8-3.1h-1.8c-2,0-7,.3-9.6,3.1l-.6.7v.9a19.6,19.6,0,0,0,1.4,5c1.3,3.6,2.9,7.8.7,10.8s-4.6,3.3-9.4,3.3H202c-7.6-.3-10.2-1.1-11.7-1.6l-1.1-.3H189a10.5,10.5,0,0,0-2.4.4c-4.2,1-6.2,6.9-6.2,18a11.4,11.4,0,0,0,.9,5.2Z"/><path class="cls-1" d="M269.8,118.3l-3.7-2.2-.9-1.3a22.9,22.9,0,0,1,.5,6.5c-.3,7.6-1.1,10.2-1.7,11.7a5.2,5.2,0,0,0-.3,1,7.5,7.5,0,0,0,.4,2.7c1,4.2,6.9,6.2,18,6.2a11.6,11.6,0,0,0,5.2-.9l1-.5v-1.1c.2-1.3-.4-3.1-1.6-6.2h0c-.5-1.3-.9-2.6-1.3-3.8a113.5,113.5,0,0,0-14.9-11.5Z"/><path class="cls-1" d="M263.3,92.7a6,6,0,0,1-4.5,1.8,21.5,21.5,0,0,1-7-1.7h-.1a20.5,20.5,0,0,0-4.9-1.4h-.9l-.7.6c-2.5,2.3-3,6.4-3.1,8.7v.3c0,.1-.7,7.6,3.1,11.1l.7.6h.9a20,20,0,0,0,4.9-1.4h.2a21.7,21.7,0,0,1,7-1.7,6,6,0,0,1,4.5,1.8l.8,1.1a9.1,9.1,0,0,1-.2-1.7c0-.2,0-.3,0-.5a9.1,9.1,0,0,1,5.5-8.4,112.5,112.5,0,0,0-3.6-19.1C265.9,87.6,265.2,90.8,263.3,92.7Z"/><path class="cls-1" d="M51.2,219.6c.2-1.2-.4-3.1-1.6-6.2v-.2c-.5-1.3-1-2.6-1.3-3.9a7,7,0,0,1,1.1-6.4c3.5-4.5,12.3-4.7,13.3-4.7s9.9.1,13.4,4.7a7,7,0,0,1,1.1,6.4c-.4,1.4-.9,2.8-1.4,4.1-1.2,3.1-1.7,4.9-1.6,6.2v1.1l.9.5a11.4,11.4,0,0,0,5.3.9c11.1,0,17-2,18-6.2a9.6,9.6,0,0,0,.4-2.3v-.4l-.3-.9c-.4-1.2-1.3-3.7-1.6-11.8-.2-5.1.5-8.4,2.3-10.2a6,6,0,0,1,4.5-1.8,21.7,21.7,0,0,1,7,1.7h.2a21.3,21.3,0,0,0,5,1.4h.9l.7-.6c3.7-3.5,3.1-11,3-11.1v-.2c-.1-2.3-.6-6.5-3.1-8.8l-.7-.6H116a20,20,0,0,0-5,1.4h-.2a21.7,21.7,0,0,1-7,1.7,6,6,0,0,1-4.5-1.8c-1.8-1.9-2.5-5.1-2.3-10.1.3-8.1,1.2-10.5,1.6-11.9l.3-.9v-.2a8.5,8.5,0,0,0-.4-2.5c-1-4.2-6.9-6.2-18-6.2a11.4,11.4,0,0,0-5.3.9l-.9.5v1.1c-.2,1.3.4,3.1,1.6,6.2.5,1.3,1,2.7,1.4,4.1a7,7,0,0,1-1.1,6.4c-3.1,4.1-10.4,4.6-13.4,4.7s-10.3-.8-13.2-4.7a7,7,0,0,1-1.1-6.4c.3-1.3.8-2.7,1.3-4h0c1.2-3.1,1.7-5,1.6-6.2v-1.1l-.9-.5a11.5,11.5,0,0,0-5.2-.9c-11.1,0-17,2-18,6.2a8.2,8.2,0,0,0-.4,2.5v.2l.3.9c.5,1.3,1.3,3.9,1.6,11.8.2,5.1-.5,8.4-2.3,10.2a6,6,0,0,1-4.5,1.8,15.5,15.5,0,0,1-4.7-.9,113.7,113.7,0,0,0,18.9,23h.1a130.8,130.8,0,0,1,14.4,25.3l.7-.4Z"/><path class="cls-1" d="M262.1,188.4a21.5,21.5,0,0,1,7,1.7h.2a20.8,20.8,0,0,0,4.9,1.4h.9l.7-.6c3.7-3.5,3-11,3-11.1v-.2c-.1-2.3-.6-6.5-3.1-8.8l-.7-.6h-.9a20,20,0,0,0-4.9,1.4H269a21.5,21.5,0,0,1-7,1.7,6.1,6.1,0,0,1-4.5-1.8c-1.8-1.9-2.6-5.1-2.4-10.2.3-7.6,1.1-10.2,1.6-11.7a5.3,5.3,0,0,0,.3-1.1,8.4,8.4,0,0,0-.4-2.7c-1-4.2-6.9-6.2-18-6.2a11.4,11.4,0,0,0-5.3.9l-.9.5v1.1c-.2,1.2.4,3,1.6,6.2.5,1.3,1,2.7,1.4,4.1a7,7,0,0,1-1.1,6.4c-3.5,4.5-12.3,4.7-13.3,4.7s-9.8-.1-13.3-4.7a7,7,0,0,1-1.1-6.4c.4-1.3.9-2.7,1.4-4.1,1.2-3.1,1.7-5,1.6-6.2v-1.1l-.9-.5a11.5,11.5,0,0,0-5.2-.9c-11.1,0-17,2-18,6.2a7.8,7.8,0,0,0-.4,2.7,5.4,5.4,0,0,0,.3,1c.5,1.5,1.3,4.1,1.6,11.7.2,5-.5,8.3-2.4,10.2a6.1,6.1,0,0,1-4.5,1.8,21.5,21.5,0,0,1-7-1.7h-.3a20.7,20.7,0,0,0-4.8-1.4h-.9l-.7.6c-2.5,2.3-3,6.4-3.1,8.8v.3c0,.1-.7,7.6,3,11.1l.7.6h.9a20.2,20.2,0,0,0,5-1.4h.2a21.4,21.4,0,0,1,7-1.7,6,6,0,0,1,4.5,1.8c1.8,1.9,2.6,5.1,2.4,10.2-.3,7.7-1.1,10.2-1.7,11.8a5.1,5.1,0,0,0-.3,1,7.8,7.8,0,0,0,.4,2.7c1,4.2,6.9,6.2,18,6.2a11.4,11.4,0,0,0,5.3-.9l.9-.5v-1.1c.2-1.3-.4-3.1-1.6-6.2-.5-1.3-1-2.7-1.4-4.1a7,7,0,0,1,1.1-6.4c3.5-4.5,12.3-4.7,13.3-4.7s9.9.1,13.4,4.7a7,7,0,0,1,1.1,6.4c-.4,1.4-.9,2.8-1.4,4.1-1.2,3.1-1.7,4.9-1.6,6.2v1.1l.9.5a11.5,11.5,0,0,0,5.2.9c11.1,0,17-2,18-6.2a8.9,8.9,0,0,0,.4-2.6v-.2l-.3-.9c-.5-1.5-1.3-4.1-1.6-11.7-.2-5,.5-8.3,2.4-10.2A6,6,0,0,1,262.1,188.4Z"/><path class="cls-2" d="M183,109.8a21.5,21.5,0,0,1,7,1.7h.2a20.8,20.8,0,0,0,4.9,1.4h.9l.7-.6c3.7-3.5,3-11,3-11.1v-.2c-.1-2.3-.6-6.5-3.1-8.8l-.7-.6h-.9a20,20,0,0,0-4.9,1.4h-.2a21.5,21.5,0,0,1-7,1.7,6.1,6.1,0,0,1-4.5-1.8c-1.8-1.9-2.6-5.1-2.4-10.2.3-7.6,1.1-10.2,1.6-11.7a5.3,5.3,0,0,0,.3-1.1,8.4,8.4,0,0,0-.4-2.7c-1-4.2-6.9-6.2-18-6.2a11.4,11.4,0,0,0-5.3.9l-.9.5v1.1c-.2,1.2.4,3,1.6,6.2.5,1.3,1,2.7,1.4,4.1a7,7,0,0,1-1.1,6.4c-3.5,4.5-12.3,4.7-13.3,4.7s-9.8-.1-13.3-4.7a7,7,0,0,1-1.1-6.4c.4-1.3.9-2.7,1.4-4.1,1.2-3.1,1.7-5,1.6-6.2V62.7l-.9-.5a11.5,11.5,0,0,0-5.2-.9c-11.1,0-17,2-18,6.2a7.8,7.8,0,0,0-.4,2.7,5.4,5.4,0,0,0,.3,1c.5,1.5,1.3,4.1,1.6,11.7.2,5-.5,8.3-2.4,10.2a6.1,6.1,0,0,1-4.5,1.8,21.5,21.5,0,0,1-7-1.7h-.3a20.7,20.7,0,0,0-4.8-1.4h-.9l-.7.6c-2.5,2.3-3,6.4-3.1,8.8v.3c0,.1-.7,7.6,3,11.1l.7.6h.9a20.2,20.2,0,0,0,5-1.4h.2a21.4,21.4,0,0,1,7-1.7,6,6,0,0,1,4.5,1.8c1.8,1.9,2.6,5.1,2.4,10.2-.3,7.7-1.1,10.2-1.7,11.8a5.1,5.1,0,0,0-.3,1,7.8,7.8,0,0,0,.4,2.7c1,4.2,6.9,6.2,18,6.2a11.4,11.4,0,0,0,5.3-.9l.9-.5V141c.2-1.3-.4-3.1-1.6-6.2-.5-1.3-1-2.7-1.4-4.1a7,7,0,0,1,1.1-6.4c3.5-4.5,12.3-4.7,13.3-4.7s9.9.1,13.4,4.7a7,7,0,0,1,1.1,6.4c-.4,1.4-.9,2.8-1.4,4.1-1.2,3.1-1.7,4.9-1.6,6.2V142l.9.5a11.5,11.5,0,0,0,5.2.9c11.1,0,17-2,18-6.2a8.9,8.9,0,0,0,.4-2.6v-.2l-.3-.9c-.5-1.5-1.3-4.1-1.6-11.7-.2-5,.5-8.3,2.4-10.2A6,6,0,0,1,183,109.8Z"/><path class="cls-1" d="M181.5,192.6H180c-1.5,0-3.3.7-5.8,1.6l-4.1,1.4-2.2.3c-2.6,0-6-1.3-7.8-7.4a29.1,29.1,0,0,1-1-7.2c0-.6.1-14.7,8.8-14.7l2.2.3,4.1,1.4a19.8,19.8,0,0,0,5.8,1.6h1.4l.6-1a11.6,11.6,0,0,0,.9-5.2c0-11.1-2-17-6.2-18a10.6,10.6,0,0,0-2.4-.4h-.3l-1,.3c-1.5.5-4.1,1.3-11.7,1.6h-1.5c-4.8,0-7.8-1.1-9.4-3.3s-.6-7.2.7-10.8a20.4,20.4,0,0,0,1.4-5v-.9l-.6-.7c-2.3-2.5-6.4-3-8.8-3.1h-1.8c-2,0-7,.3-9.6,3.1l-.6.7v.9a20.8,20.8,0,0,0,1.4,5c1.3,3.6,2.9,7.8.7,10.8s-4.6,3.3-9.4,3.3h-1.5c-7.6-.3-10.2-1.2-11.7-1.6l-1.1-.3h-.2a10.6,10.6,0,0,0-2.4.4c-4.2,1-6.2,6.9-6.2,18a11.5,11.5,0,0,0,.9,5.2l.6,1h1.4a19.9,19.9,0,0,0,5.8-1.6h.1l4-1.3,2.2-.3c2.6,0,6.2,1.4,7.9,7.8a29.6,29.6,0,0,1,.9,6.9c0,.6-.1,14.7-8.8,14.8l-2.2-.3-4.1-1.4c-2.5-.9-4.4-1.6-5.8-1.6h-1.4l-.6,1a11.6,11.6,0,0,0-.9,5.2c0,11.1,2,17,6.2,18a10.5,10.5,0,0,0,2.4.4h.3l1-.3c1.5-.5,4.1-1.3,11.7-1.6h1.5c4.8,0,7.8,1.1,9.4,3.3s.6,7.2-.7,10.8a20.4,20.4,0,0,0-1.4,5v.9l.6.7c2.6,2.8,7.6,3.1,9.6,3.1H143c2.3-.1,6.5-.6,8.9-3.1l.6-.7v-.9a20.6,20.6,0,0,0-1.4-5c-1.3-3.6-2.9-7.7-.7-10.8s4.6-3.3,9.4-3.3h1.5c7.5.3,10.1,1.1,11.7,1.6l1,.3h.3a10.5,10.5,0,0,0,2.4-.4c4.2-1,6.2-6.9,6.2-18a11.5,11.5,0,0,0-.9-5.2Z"/><path class="cls-1" d="M21.7,169.6h1.4l.6-1a11.6,11.6,0,0,0,.9-5.2c0-11.1-2-17-6.2-18a10.5,10.5,0,0,0-2.4-.4h-.3l-1,.3c-1.4.4-3.6,1.2-9.6,1.5a112.4,112.4,0,0,0,8.8,20.6l2.1.8A19.8,19.8,0,0,0,21.7,169.6Z"/><path class="cls-1" d="M291,143.5c-1.5,2.2-4.6,3.3-9.4,3.3h-1.5c-7.6-.3-10.2-1.1-11.7-1.6l-1-.3h-.3a10.4,10.4,0,0,0-2.4.4c-4.2,1-6.2,6.9-6.2,18a11.4,11.4,0,0,0,.9,5.2l.5.9h1.5a19.9,19.9,0,0,0,5.8-1.6l4.1-1.4,2.2-.3c2.6,0,6.2,1.4,7.9,7.8a30.3,30.3,0,0,1,.9,6.9c0,.6-.1,14.8-8.8,14.8l-2.2-.3-4.1-1.4a19.2,19.2,0,0,0-5.8-1.6h-1.4l-.6,1a11.6,11.6,0,0,0-.9,5.2c0,11.1,2,17,6.2,18a10.6,10.6,0,0,0,2.4.4h.3l1-.3c1.5-.5,4.1-1.3,11.7-1.6h1.6c3.9,0,6.6.7,8.3,2.1l.2-.7q-3.2-2.7-6.6-5.2a113.8,113.8,0,0,0,9.4-9.2,112.5,112.5,0,0,1-5.6-26.4,113,113,0,0,0,14.1-8,9,9,0,0,0,3.3-15,113.5,113.5,0,0,0-13.4-17C292.2,138.7,292.5,141.4,291,143.5Z"/><path class="cls-1" d="M176,240.2c.3-7.6,1.1-10.2,1.6-11.7h0a4.9,4.9,0,0,0,.2-1,8.3,8.3,0,0,0-.4-2.7c-1-4.2-6.9-6.2-18-6.2a11.3,11.3,0,0,0-5.3.9l-.9.5V221c-.2,1.3.4,3.1,1.6,6.2.5,1.3,1,2.7,1.4,4.1a7,7,0,0,1-1.1,6.4c-3.5,4.5-12.3,4.7-13.3,4.7s-9.8-.1-13.3-4.7a7,7,0,0,1-1.1-6.4c.4-1.4.9-2.8,1.4-4.1,1.2-3.1,1.7-4.9,1.6-6.2v-1.1l-.9-.5a11.3,11.3,0,0,0-5.3-.9c-11.1,0-17,2-18,6.2a7.8,7.8,0,0,0-.4,2.7,4.6,4.6,0,0,0,.2.9h0c.5,1.5,1.3,4.1,1.6,11.7.2,5-.5,8.3-2.4,10.2a6,6,0,0,1-4.5,1.8,21.4,21.4,0,0,1-7-1.7h-.2a20.7,20.7,0,0,0-4.9-1.4h-.9l-.7.6c-2.5,2.3-3,6.4-3.1,8.7v.3c0,.1-.7,7.6,3.1,11.1l.7.6h.9a19.9,19.9,0,0,0,4.9-1.4h.2a21.3,21.3,0,0,1,7-1.7,6.1,6.1,0,0,1,4.5,1.8c1.8,1.9,2.6,5.1,2.4,10.2-.3,7.6-1.1,10.2-1.6,11.7a5.4,5.4,0,0,0-.3,1,7.6,7.6,0,0,0,.4,2.7c1,4.2,6.9,6.2,18,6.2a11.4,11.4,0,0,0,5.3-.9l.9-.5v-1.1c.2-1.2-.4-3.1-1.6-6.2-.5-1.3-1-2.7-1.4-4.1a7,7,0,0,1,1.1-6.4c3.5-4.5,12.3-4.7,13.3-4.7s9.9.1,13.4,4.7a7,7,0,0,1,1.1,6.4c-.4,1.4-.9,2.8-1.4,4.1-1.2,3.1-1.7,4.9-1.6,6.2v1.1l.9.5a11.4,11.4,0,0,0,5.3.9c11.1,0,17-2,18-6.2a7.8,7.8,0,0,0,.4-2.7,5.2,5.2,0,0,0-.3-1.1c-.5-1.5-1.3-4.1-1.6-11.7-.2-5,.5-8.3,2.4-10.2A6.1,6.1,0,0,1,183,267a21.3,21.3,0,0,1,7,1.7h.2a21,21,0,0,0,4.9,1.4h.9l.7-.6c3.7-3.5,3.1-11,3-11.1v-.2c-.1-2.3-.6-6.5-3.1-8.8l-.7-.6h-.9a19.9,19.9,0,0,0-4.9,1.4h-.2a21.6,21.6,0,0,1-7,1.7h0a6,6,0,0,1-4.5-1.8C176.6,248.4,175.8,245.2,176,240.2Z"/><path class="cls-1" d="M82.1,293.9c7.6.3,10.2,1.1,11.7,1.6l1.1.3h.2a10.5,10.5,0,0,0,2.4-.4c4.2-1,6.2-6.9,6.2-18a11.5,11.5,0,0,0-.9-5.2l-.5-1h-1.5c-1.5,0-3.3.7-5.9,1.6L91,274l-2.2.3c-2.6,0-6-1.3-7.8-7.4a28.6,28.6,0,0,1-1-7.2c0-.6.1-14.7,8.8-14.7l2.2.3,4.1,1.4a19.8,19.8,0,0,0,5.8,1.6h1.4l.6-1a11.5,11.5,0,0,0,.9-5.2c0-11.1-2-17-6.2-18a10.5,10.5,0,0,0-2.4-.4h-.3l-1,.3c-1.5.5-4.1,1.3-11.7,1.6H80.6c-4.8,0-7.8-1.1-9.4-3.3s-.6-7.2.7-10.8a20.9,20.9,0,0,0,1.4-5v-.9l-.6-.7c-2.3-2.5-6.4-3-8.8-3.1H62.3c-2,0-7,.3-9.6,3.1l-.6.7v.9a19.6,19.6,0,0,0,1.4,5c1.3,3.6,2.9,7.8.7,10.8a6.3,6.3,0,0,1-2.5,2.1c6.8,17.1,10.8,39.1-.8,58.2l19.5,12.3,2,1.3c1.7-1.4,4.4-2.1,8.2-2.1Z"/><path class="cls-1" d="M261.6,272.1l-.5-1h-1.5c-1.5,0-3.3.7-5.9,1.6l-4,1.4-2.2.3c-2.6,0-6-1.3-7.8-7.4a28.6,28.6,0,0,1-1-7.2c0-.6.1-14.7,8.8-14.7l2.2.3,4.1,1.4a19.8,19.8,0,0,0,5.8,1.6H261l.6-1a11.4,11.4,0,0,0,.9-5.2c0-11.1-2-17-6.2-18a10.5,10.5,0,0,0-2.4-.4h-.3l-1,.3c-1.5.5-4.1,1.3-11.7,1.6h-1.5c-4.8,0-7.8-1.1-9.4-3.3s-.6-7.2.7-10.8a19.9,19.9,0,0,0,1.4-5v-.9l-.6-.7c-2.3-2.5-6.4-3-8.8-3.1h-1.8c-2,0-7,.3-9.6,3.1l-.6.7v.9a19.6,19.6,0,0,0,1.4,5c1.3,3.6,2.9,7.8.7,10.8s-4.6,3.3-9.4,3.3H202c-7.6-.3-10.2-1.1-11.8-1.7l-1-.3H189a10.5,10.5,0,0,0-2.4.4c-4.2,1-6.2,6.9-6.2,18a11.4,11.4,0,0,0,.9,5.2l.6,1h1.4c1.4,0,3.3-.7,5.8-1.6h.2l3.9-1.3,2.2-.3c2.6,0,6.1,1.4,7.9,7.8a30.2,30.2,0,0,1,.9,6.9c0,.6-.1,14.8-8.8,14.8l-2.2-.3-4.1-1.4a19.8,19.8,0,0,0-5.8-1.6h-1.5l-.5,1a11.4,11.4,0,0,0-.9,5.2c0,11.1,2,17,6.2,18a10.5,10.5,0,0,0,2.4.4h.3l1-.3c1.5-.5,4.1-1.3,11.7-1.6h1.5c4.8,0,7.8,1.1,9.4,3.3a5.7,5.7,0,0,1,.8,1.7,113.7,113.7,0,0,1,19.6-21.4,113.8,113.8,0,0,0,19,1.6c3.4,0,6.8-.2,10.2-.5,0-.4,0-.8,0-1.2A11.4,11.4,0,0,0,261.6,272.1Z"/><path class="cls-1" d="M287,273.6a14.8,14.8,0,0,0,7.6-12.9c0-.3,0-.6,0-.8a14.7,14.7,0,0,0-1.6-5.9,112.3,112.3,0,0,0-5.9-15.4V238l-.3-.3a7,7,0,0,1-1.1-6.4c.4-1.3.9-2.7,1.4-4.1,1.2-3.1,1.7-5,1.6-6.2v-1.1l-.9-.5a11.4,11.4,0,0,0-5.3-.9c-11.1,0-17,2-18,6.2a7.7,7.7,0,0,0-.4,2.7,5.4,5.4,0,0,0,.3,1.1c.5,1.6,1.3,4.1,1.6,11.7.2,5-.5,8.3-2.4,10.2a6,6,0,0,1-4.5,1.8,21.6,21.6,0,0,1-7-1.7h-.2a21,21,0,0,0-4.9-1.4h-.9l-.7.6c-2.5,2.3-3,6.4-3.1,8.7v.3c0,.1-.7,7.6,3.1,11.1l.7.6h.9a20.2,20.2,0,0,0,4.9-1.4h.2a21.7,21.7,0,0,1,7-1.7,6,6,0,0,1,4.5,1.8c1.7,1.8,2.5,4.8,2.4,9.4a112.7,112.7,0,0,0,15-2.8A14.7,14.7,0,0,0,287,273.6Z"/><path class="cls-1" d="M98.8,306.6v-.2a8.5,8.5,0,0,0-.4-2.5c-1-4.2-6.9-6.2-18-6.2a14.1,14.1,0,0,0-4.5.6l3.9,2.5,17.8,11.2a21.8,21.8,0,0,1,1-4.4Z"/><path class="cls-1" d="M207.9,306.3c1.2-3.1,1.7-5,1.6-6.2V299l-.9-.5a11.5,11.5,0,0,0-5.2-.9c-11.1,0-17,2-18,6.2a7.8,7.8,0,0,0-.4,2.7,5.5,5.5,0,0,0,.3,1c.5,1.5,1.3,4.1,1.6,11.7.2,5-.5,8.3-2.4,10.2a6.1,6.1,0,0,1-4.5,1.8,21.5,21.5,0,0,1-7-1.7h-.2a20.9,20.9,0,0,0-4.9-1.4h-.9l-.7.6c-2.5,2.3-3,6.4-3.1,8.8v.3c0,.1-.7,7.6,3,11.1l.7.6h.9a20.2,20.2,0,0,0,5-1.4h.2a21.4,21.4,0,0,1,7-1.7,6,6,0,0,1,4.5,1.8c1.8,1.9,2.6,5.1,2.4,10.2a54.2,54.2,0,0,1-1,9.5l7.9,5h0q-.3-4.3-.3-8.7a112.2,112.2,0,0,1,13.4-53.3v-.2C206.9,309.1,207.4,307.7,207.9,306.3Z"/><path class="cls-1" d="M182,351.3l-.6-1H180c-1.5,0-3.3.7-5.8,1.6l-4.1,1.4-2.2.3c-2.6,0-6-1.3-7.8-7.4a29.1,29.1,0,0,1-1-7.2c0-.6.1-14.7,8.8-14.7l2.2.3,4,1.3h.1a19.8,19.8,0,0,0,5.8,1.6h1.4l.6-1a11.5,11.5,0,0,0,.9-5.2c0-11.1-2-17-6.2-18a10.4,10.4,0,0,0-2.4-.4h-.3l-1,.3c-1.5.5-4.1,1.3-11.7,1.6h-1.5c-4.8,0-7.8-1.1-9.4-3.3s-.6-7.2.7-10.8a20.4,20.4,0,0,0,1.4-5v-.9l-.6-.7c-2.3-2.5-6.4-3-8.8-3.1h-1.8c-2,0-7,.3-9.6,3.1l-.6.7v.9a19.7,19.7,0,0,0,1.4,5c1.3,3.6,2.9,7.8.7,10.8s-4.6,3.3-9.4,3.3h-1.5c-7.6-.3-10.2-1.2-11.7-1.6l-1.1-.3h-.2a10.6,10.6,0,0,0-2.4.4c-3.2.8-5.2,4.5-5.9,11.2l4,2.5,11.8,7.5a6.9,6.9,0,0,1,4.5,2.9l60.8,38.5a55.7,55.7,0,0,0,.6-9A11.5,11.5,0,0,0,182,351.3Z"/><path class="cls-1" d="M393.6,149.5a12.1,12.1,0,0,0-7.2-2.5,11.3,11.3,0,0,0-6.4,1.7,6.4,6.4,0,0,0-2.9,5.6,5.7,5.7,0,0,0,1.3,4.2,5.5,5.5,0,0,0,2.8,1.5l1.8.5a1,1,0,0,1,.1.4,4,4,0,0,1-1.6,2.8,9,9,0,0,1-3.9,2.2l-1.8.5,4.4,7.8,1.1-.4,4.1-1.8a33.1,33.1,0,0,0,5.3-3.1,18.7,18.7,0,0,0,4.6-4.7,11.2,11.2,0,0,0,1.9-6.4C397.2,154,396,151.2,393.6,149.5Z"/><path class="cls-1" d="M402.4,97a61.2,61.2,0,0,0-13.9-4.6,41.2,41.2,0,0,1-12.2-4.4c-2.8-1.6-4.1-4.2-4.1-7.8a8.4,8.4,0,0,1,3.9-7.4A18.2,18.2,0,0,1,386.5,70a18.8,18.8,0,0,1,10.8,3.1,26.7,26.7,0,0,1,7.8,8.4l.9,1.5L417.4,72l-.5-.9a29.8,29.8,0,0,0-12-11.6,37.9,37.9,0,0,0-18-4,37.2,37.2,0,0,0-15,3,28,28,0,0,0-11.3,8.7,21.7,21.7,0,0,0-4.3,13.5c0,8,2.5,14.2,7.5,18.5s11.4,7.1,19.6,8.7c6,1.2,10.7,2.9,14,5a9.3,9.3,0,0,1,4.5,8.3,7.1,7.1,0,0,1-2,5.1,14.2,14.2,0,0,1-5.6,3.5,22,22,0,0,1-7.4,1.3c-5.4,0-9.8-1.2-13.2-3.7a44.9,44.9,0,0,1-10-10.8l-1-1.5-10.9,12.5.6.9a38.3,38.3,0,0,0,14.7,13.1,42.2,42.2,0,0,0,18.5,4c9.9,0,17.9-2.5,23.6-7.5s8.7-11.9,8.7-20.3a18.8,18.8,0,0,0-4.4-12.5A32.2,32.2,0,0,0,402.4,97Z"/><path class="cls-1" d="M476.8,122.3a35.2,35.2,0,0,1-7,6.3,16.6,16.6,0,0,1-9.7,2.9,17.5,17.5,0,0,1-9.3-2.6,20.3,20.3,0,0,1-7-7.3,20.6,20.6,0,0,1-2.7-10.5,21.8,21.8,0,0,1,2.5-10.5,19,19,0,0,1,6.8-7.2,17.9,17.9,0,0,1,9.6-2.6,18.7,18.7,0,0,1,9.3,2.8,22.3,22.3,0,0,1,7.5,6.7l1.1,1.6,8.7-10.7-.5-.9a26.4,26.4,0,0,0-10.9-9.8,35.3,35.3,0,0,0-16.4-3.7,30.8,30.8,0,0,0-16.5,4.6,32.7,32.7,0,0,0-11.6,12.3,38.5,38.5,0,0,0,0,35.1A32.6,32.6,0,0,0,442.2,141a30.8,30.8,0,0,0,16.5,4.6,34.1,34.1,0,0,0,11.1-1.8,37.1,37.1,0,0,0,9.4-4.8,27.6,27.6,0,0,0,6.6-6.5l.6-.9-8.7-10.7Z"/><path class="cls-1" d="M542.3,81a35.4,35.4,0,0,0-34.3,0,32.8,32.8,0,0,0-12.2,12.2,35.2,35.2,0,0,0-4.5,17.9,35.2,35.2,0,0,0,4.5,17.9,32.8,32.8,0,0,0,12.2,12.2,35.4,35.4,0,0,0,34.3,0,32.9,32.9,0,0,0,12.2-12.2,35.2,35.2,0,0,0,4.5-17.9,35.2,35.2,0,0,0-4.5-17.9A32.9,32.9,0,0,0,542.3,81Zm1.1,30.1a21.3,21.3,0,0,1-2.3,10.5,18.5,18.5,0,0,1-6.6,7.2,17.3,17.3,0,0,1-9.3,2.6,17.7,17.7,0,0,1-9.4-2.6,18.3,18.3,0,0,1-6.6-7.2,21.4,21.4,0,0,1-2.3-10.6,21.5,21.5,0,0,1,2.3-10.6,17.7,17.7,0,0,1,16-9.6,17.7,17.7,0,0,1,9.3,2.5,18,18,0,0,1,6.6,7.1,21.6,21.6,0,0,1,2.3,10.6h0Z"/><path class="cls-1" d="M616.3,84a31.7,31.7,0,0,0-5.9-4.4A24.5,24.5,0,0,0,598,76.5a32.2,32.2,0,0,0-16.7,4.4,30.9,30.9,0,0,0-11.6,12.2,37.3,37.3,0,0,0-4.2,17.8,38.5,38.5,0,0,0,4,17.9,31.5,31.5,0,0,0,11,12.3,28,28,0,0,0,15.4,4.5,26.1,26.1,0,0,0,14-3.7,36.6,36.6,0,0,0,6.4-4.9v7.5h15.4V77.9H616.3Zm-1.8,16.6a22.8,22.8,0,0,1,2.3,10.3,23.4,23.4,0,0,1-2.3,10.5,17.9,17.9,0,0,1-6.3,7.2,16.9,16.9,0,0,1-9.4,2.6,16.4,16.4,0,0,1-9.2-2.6,17.9,17.9,0,0,1-6.3-7.2,23.4,23.4,0,0,1-2.3-10.5,23,23,0,0,1,2.3-10.4,17.6,17.6,0,0,1,6.3-7.1,17.9,17.9,0,0,1,18.6.1A18,18,0,0,1,614.5,100.6Z"/><rect class="cls-1" x="646.3" y="55.5" width="15.3" height="88.87"/><path class="cls-1" d="M722.1,77.9V84a31.8,31.8,0,0,0-5.9-4.4,24.5,24.5,0,0,0-12.4-3.1A32.2,32.2,0,0,0,687,80.9a30.9,30.9,0,0,0-11.6,12.2,37.3,37.3,0,0,0-4.2,17.8,38.5,38.5,0,0,0,4,17.9,31.5,31.5,0,0,0,11,12.3,28,28,0,0,0,15.4,4.5,26.1,26.1,0,0,0,14-3.7,36.6,36.6,0,0,0,6.4-4.9v7.5h15.4V77.9Zm.5,33a23.4,23.4,0,0,1-2.3,10.5,17.9,17.9,0,0,1-6.3,7.2,16.9,16.9,0,0,1-9.4,2.6,16.5,16.5,0,0,1-9.2-2.6,17.9,17.9,0,0,1-6.3-7.2,23.4,23.4,0,0,1-2.3-10.5,23,23,0,0,1,2.3-10.4,17.6,17.6,0,0,1,6.3-7.1,17.9,17.9,0,0,1,18.6.1,18,18,0,0,1,6.3,7.1A22.8,22.8,0,0,1,722.6,110.9Z"/><path class="cls-2" d="M405.4,195.1a25.1,25.1,0,0,0-13.2-3.7h-36v87.7h15.9V246.6h20a24.8,24.8,0,0,0,13.2-3.7,27.5,27.5,0,0,0,9.6-10,28,28,0,0,0,3.6-14,27.3,27.3,0,0,0-13.2-23.8Zm-33.2,11.8h19.8a9.5,9.5,0,0,1,7.3,3.4,12.3,12.3,0,0,1,3.1,8.6,13.1,13.1,0,0,1-1.5,6.2,12.6,12.6,0,0,1-3.9,4.5,8.6,8.6,0,0,1-5.1,1.6H372.2Z"/><path class="cls-2" d="M463.3,211.3a21,21,0,0,0-12.1,4,25.3,25.3,0,0,0-5.8,5.6v-8.3H429.9v66.5h15.4V242.6a14.1,14.1,0,0,1,2.2-8,15.8,15.8,0,0,1,5.7-5.2,14.8,14.8,0,0,1,7-1.8,14.4,14.4,0,0,1,3.4.4,12.9,12.9,0,0,1,2.7.9l1.6.8,4-16.4-1-.5A17,17,0,0,0,463.3,211.3Z"/><path class="cls-2" d="M523.2,215.8a35.4,35.4,0,0,0-34.3,0A32.8,32.8,0,0,0,476.7,228a37.7,37.7,0,0,0,0,35.7,32.8,32.8,0,0,0,12.2,12.2,35.4,35.4,0,0,0,34.3,0,32.9,32.9,0,0,0,12.2-12.2,37.7,37.7,0,0,0,0-35.7A32.9,32.9,0,0,0,523.2,215.8Zm1.1,30.1a21.3,21.3,0,0,1-2.3,10.5,18.5,18.5,0,0,1-6.6,7.2,17.3,17.3,0,0,1-9.3,2.6,17.7,17.7,0,0,1-9.4-2.6,18.3,18.3,0,0,1-6.6-7.2,25.4,25.4,0,0,1,0-21.2,17.7,17.7,0,0,1,16-9.6,17.7,17.7,0,0,1,9.3,2.5,18,18,0,0,1,6.6,7.1,21.6,21.6,0,0,1,2.3,10.6h0Z"/><path class="cls-2" d="M638.7,215.4a29.2,29.2,0,0,0-15.3-4.1,34.5,34.5,0,0,0-16.8,4.2,32.5,32.5,0,0,0-12.4,12.2c-3.1,5.2-4.7,11.6-4.7,19a34.2,34.2,0,0,0,4.4,17.4,31.8,31.8,0,0,0,12.4,12,39.4,39.4,0,0,0,43.6-5.2h2.2l-8.6-12.6-1.2,1a48.6,48.6,0,0,1-6.6,4.6c-2.5,1.5-5.9,2.3-10.1,2.3-5.8,0-10.6-1.6-14.3-4.7a18.4,18.4,0,0,1-6.3-11.1h48.4l.2-6.7a33.9,33.9,0,0,0-4.1-16.8A30.5,30.5,0,0,0,638.7,215.4Zm-15.3,10.2a15.3,15.3,0,0,1,6.9,1.6,15.1,15.1,0,0,1,5.4,4.5,12.5,12.5,0,0,1,2.4,5.9H605.7c1.1-4.1,3.2-7.1,6-8.8A21.8,21.8,0,0,1,623.4,225.6Z"/><path class="cls-2" d="M682.2,225a19.8,19.8,0,0,1,4.7-.6,16.4,16.4,0,0,1,7.3,2,28.8,28.8,0,0,1,7.3,5.3l1.1,1.1,9-9.9-.8-.9a26.5,26.5,0,0,0-11.6-8.2,37.9,37.9,0,0,0-12.8-2.5,29.4,29.4,0,0,0-11.7,2.4,22.7,22.7,0,0,0-9,6.7,16.7,16.7,0,0,0-3.5,10.6c0,4.8,1.2,8.8,3.7,11.6a23.4,23.4,0,0,0,8.9,6.5,87.1,87.1,0,0,0,10.5,3.6,64.3,64.3,0,0,1,6.3,1.8,11.9,11.9,0,0,1,4.2,2.4,4.5,4.5,0,0,1,1.3,3.5,5.3,5.3,0,0,1-1.3,3.8,8,8,0,0,1-3.4,2.2,12.8,12.8,0,0,1-4.1.7,21.2,21.2,0,0,1-9.6-2,23.3,23.3,0,0,1-7-5.5l-.9-1.1L660,267.7l.8,1.1a27.1,27.1,0,0,0,12.1,9,40.7,40.7,0,0,0,14.1,2.6,29.6,29.6,0,0,0,11.6-2.4,22.8,22.8,0,0,0,9.2-6.9,17.4,17.4,0,0,0,3.6-11.1c0-4.9-1.1-8.8-3.4-11.6a21.3,21.3,0,0,0-8.4-6.2,76.3,76.3,0,0,0-9.9-3.4,51.6,51.6,0,0,1-9.3-3.2,5.1,5.1,0,0,1-3.1-4.9,5,5,0,0,1,1.3-3.8A7.5,7.5,0,0,1,682.2,225Z"/><path class="cls-2" d="M769.6,215.8a35.4,35.4,0,0,0-34.3,0A32.8,32.8,0,0,0,723.1,228a37.7,37.7,0,0,0,0,35.7,32.8,32.8,0,0,0,12.2,12.2,35.4,35.4,0,0,0,34.3,0,32.9,32.9,0,0,0,12.2-12.2,37.7,37.7,0,0,0,0-35.7A32.9,32.9,0,0,0,769.6,215.8Zm1.1,30.1a21.3,21.3,0,0,1-2.3,10.5,18.5,18.5,0,0,1-6.6,7.2,17.4,17.4,0,0,1-9.3,2.6,17.6,17.6,0,0,1-9.4-2.6,18.3,18.3,0,0,1-6.6-7.2,25.4,25.4,0,0,1,0-21.2,17.7,17.7,0,0,1,16-9.6,17.7,17.7,0,0,1,9.3,2.5,18,18,0,0,1,6.6,7.1,21.6,21.6,0,0,1,2.3,10.6h0Z"/><path class="cls-2" d="M830.4,211.3a21,21,0,0,0-12.1,4,25.4,25.4,0,0,0-5.8,5.6v-8.3H797v66.5h15.4V242.6a14.1,14.1,0,0,1,2.2-8,15.8,15.8,0,0,1,5.7-5.2,14.8,14.8,0,0,1,7-1.8,14.4,14.4,0,0,1,3.4.4,12.9,12.9,0,0,1,2.7.9l1.6.8,4-16.4-1-.5A17,17,0,0,0,830.4,211.3Z"/><path class="cls-2" d="M855.6,183.1c-3.2,0-5.7,1-7.4,2.9a9.6,9.6,0,0,0-2.4,6.4,9.4,9.4,0,0,0,2.4,6.7c1.6,1.7,4.1,2.6,7.3,2.6s5.7-1,7.4-2.9a9.6,9.6,0,0,0,2.4-6.4,9.4,9.4,0,0,0-2.4-6.7C861.3,184,858.8,183.1,855.6,183.1Z"/><rect class="cls-2" x="848.1" y="212.7" width="15.3" height="66.45"/><rect class="cls-2" x="879.5" y="191.5" width="15.3" height="87.66"/><path class="cls-2" d="M955.7,215.8a35.4,35.4,0,0,0-34.3,0A32.8,32.8,0,0,0,909.2,228a37.7,37.7,0,0,0,0,35.7,32.8,32.8,0,0,0,12.2,12.2,35.4,35.4,0,0,0,34.3,0,32.9,32.9,0,0,0,12.2-12.2,37.7,37.7,0,0,0,0-35.7A32.9,32.9,0,0,0,955.7,215.8Zm1.1,30.1a21.3,21.3,0,0,1-2.3,10.5,18.5,18.5,0,0,1-6.6,7.2,17.4,17.4,0,0,1-9.3,2.6,17.6,17.6,0,0,1-9.4-2.6,18.3,18.3,0,0,1-6.6-7.2,25.4,25.4,0,0,1,0-21.2,17.7,17.7,0,0,1,16-9.6,17.7,17.7,0,0,1,9.3,2.5,18,18,0,0,1,6.6,7.1,21.6,21.6,0,0,1,2.3,10.6h0Z"/><path class="cls-2" d="M1024.1,212.7a17,17,0,0,0-7.5-1.4,21,21,0,0,0-12.1,4,25.4,25.4,0,0,0-5.8,5.6v-8.3H983.1v66.5h15.4V242.6a14.1,14.1,0,0,1,2.2-8,15.8,15.8,0,0,1,5.7-5.2,14.8,14.8,0,0,1,7-1.8,14.4,14.4,0,0,1,3.4.4,12.9,12.9,0,0,1,2.7.9l1.6.8,4-16.4Z"/><path class="cls-2" d="M555.1,279.1h15.4v-46h15V218.8h-15V212a6.3,6.3,0,0,1,1.4-4.2c.8-1,2.5-1.5,5-1.5a6.9,6.9,0,0,1,3.2.9,11.9,11.9,0,0,1,2.8,2l1.5,1.5,5.4-12.3-.6-.7a18.8,18.8,0,0,0-5-3.8,17.6,17.6,0,0,0-8.8-2c-5.9,0-10.9,1.9-14.6,5.7a19.7,19.7,0,0,0-5.7,14.5v6.8H544.9v14.3h10.2Z"/></svg>