<?xml version="1.0" encoding="utf-8"?>
<!-- Generator: Adobe Illustrator 21.1.0, SVG Export Plug-In . SVG Version: 6.00 Build 0)  -->
<svg version="1.1" id="Layer_1" xmlns="http://www.w3.org/2000/svg" xmlns:xlink="http://www.w3.org/1999/xlink" x="0px" y="0px"
	 viewBox="0 0 161.6 130.5" style="enable-background:new 0 0 161.6 130.5;" xml:space="preserve">
<style type="text/css">
	.st0{fill:#4C3949;}
	.st1{fill:#9A4877;}
	.st2{fill:#FFFFFF;}
</style>
<g>
	<g>
		<path class="st2" d="M9.7,108.4c-0.1,1.3,0.2,2.7,0.9,4c1,1.7,2.4,2.4,3.6,1.7c1-0.6,1-1.8,0.2-3.6l-0.5-1.1
			c-0.9-2.1-1.1-4.2,0.9-5.3c2.3-1.3,4.6,0,6.1,2.5c1,1.6,1.4,3.7,1.2,5.3l-1.6-0.1c0.2-1.2-0.1-3-0.9-4.4c-1-1.7-2.5-2.6-3.8-1.8
			c-1.1,0.6-1,1.9-0.2,3.8l0.5,1.1c0.9,2,0.9,4-1,5.2c-2.2,1.3-4.6,0.1-6-2.3c-1-1.7-1.3-3.3-1.2-4.8L9.7,108.4z M21,105.1l3.2-1.1
			l0.7,1.2l-3.1,1.4L21,105.1z"/>
		<path class="st2" d="M2.8,88l1.2,1.1c-1,1.1-1.4,2.8-1,4.4c0.7,2.8,3.3,4.4,6.3,3.6c3-0.8,4.5-3.4,3.7-6.2c-0.4-1.6-1.5-2.8-3-3.3
			l0.6-1.6c1.9,0.7,3.4,2.3,3.9,4.5c1,3.8-1,7.3-4.8,8.3c-3.8,1-7.3-1.1-8.3-4.9C1,91.7,1.4,89.4,2.8,88z"/>
		<path class="st2" d="M7.4,66.5c3.9,0.4,6.5,3.5,6.1,7.4c-0.4,3.9-3.4,6.5-7.4,6.2c-3.9-0.4-6.5-3.5-6.1-7.4
			C0.4,68.7,3.5,66.1,7.4,66.5z M6.3,78.3c3.1,0.3,5.4-1.7,5.6-4.6c0.3-2.9-1.6-5.3-4.7-5.5c-3.1-0.3-5.4,1.7-5.6,4.6
			S3.3,78,6.3,78.3z"/>
		<path class="st2" d="M19.2,50.9l-0.6,1.7l-3.9,0.1l-2.2,6l2.9,2.6l-0.6,1.6L4.3,53.5L5,51.5L19.2,50.9z M11.3,57.6l1.7-4.8
			l-6.9,0.3L11.3,57.6z"/>
		<path class="st2" d="M26.4,38l-4.6,8l-11.4-6.6l0.8-1.4l10,5.8l3.8-6.5L26.4,38z"/>
		<path class="st2" d="M37.4,24.8l-1.2,1.3l-3.6-1.3l-4.3,4.7l1.7,3.5l-1.2,1.3l-6.2-12.8l1.4-1.5L37.4,24.8z M27.5,28l3.4-3.8
			l-6.4-2.4L27.5,28z"/>
		<path class="st2" d="M42,17l1.9,3.7l-3.2,1.7l-6.1-11.6L39.8,8c3-1.6,5.4-0.7,6.6,1.6c1.2,2.3,0.5,4.8-2.4,6.3L42,17z M39.3,11.9
			l1.2,2.4l2-1.1c0.8-0.4,1.1-1.1,0.7-1.9c-0.4-0.8-1.2-0.9-2-0.5L39.3,11.9z"/>
		<path class="st2" d="M63.7,5.1c0.4,2-0.5,3.6-2.6,4.5l4.5,4l-4.1,0.8l-4-4l-0.2,0l0.9,4.6l-3.5,0.7L52.1,3l5.7-1.2
			C61.2,1.2,63.2,2.5,63.7,5.1z M56.3,5.4l0.5,2.3l2.2-0.4c0.9-0.2,1.4-0.7,1.3-1.4c-0.2-0.8-0.9-1-1.7-0.8L56.3,5.4z"/>
		<path class="st2" d="M83.8,6.9c0,3.9-3,6.8-7,6.7s-6.9-3-6.9-6.9c0-3.9,3-6.8,7-6.7S83.8,3,83.8,6.9z M73.6,6.8
			c0,2,1.3,3.4,3.2,3.4c1.9,0,3.3-1.4,3.3-3.4c0-2-1.3-3.4-3.2-3.4C75,3.4,73.6,4.8,73.6,6.8z"/>
		<path class="st2" d="M99,11.4l-6-1.2l-1,4.7l-3.5-0.7l2.6-12.9l10,2l-0.6,3.1L94,5.1l-0.4,2l6,1.2L99,11.4z"/>
		<path class="st2" d="M112.7,21.4l-9.6-3.8l4.9-12.2l9.6,3.8l-1.2,3l-6.2-2.5l-0.6,1.6l5.8,2.3l-1.2,3l-5.8-2.3l-0.7,1.8l6.2,2.5
			L112.7,21.4z"/>
		<path class="st2" d="M130,21.3c-0.4-0.9-1.2-2.1-2.6-3c-0.8-0.5-1.6-0.7-1.9-0.2c-0.4,0.6,0.7,1.4,1.6,2.4l0.3,0.3
			c2,1.9,2.4,3.8,1.3,5.5c-1.8,2.8-4.9,2.2-7.2,0.7c-2-1.3-3.4-3-4.1-4.7l3.1-1.5c0.5,1.1,1.2,2.4,2.8,3.5c0.8,0.5,1.5,0.7,1.9,0.2
			c0.4-0.6-0.2-1.1-1.4-2.3l-0.4-0.3c-2.2-2.1-2.6-3.9-1.2-5.8c1.4-2.1,4.1-2.3,6.8-0.6c1.4,0.9,2.6,2,3.9,4.2L130,21.3z"/>
		<path class="st2" d="M143.8,38.4c-2.9,2.6-7,2.4-9.7-0.6c-2.7-3-2.5-7.1,0.5-9.7c2.9-2.6,7-2.4,9.7,0.6
			C147,31.7,146.7,35.7,143.8,38.4z M137,30.8c-1.5,1.3-1.7,3.3-0.4,4.7s3.2,1.5,4.7,0.2c1.5-1.3,1.7-3.3,0.4-4.7
			C140.4,29.5,138.5,29.4,137,30.8z"/>
		<path class="st2" d="M153.8,52.9c-1.8,0.9-3.7,0.4-5-1.4l-2.9,5.3l-1.8-3.8l2.9-4.8l-0.1-0.2l-4.2,2l-1.5-3.2l11.9-5.5l2.5,5.3
			C157,49.5,156.2,51.8,153.8,52.9z M151.8,45.7l-2.1,1l0.9,2c0.4,0.8,1,1.2,1.7,0.9c0.7-0.3,0.8-1.1,0.4-1.9L151.8,45.7z"/>
		<path class="st2" d="M147.6,64.8l-0.7-3.5l12.9-2.7l0.7,3.5L147.6,64.8z"/>
		<path class="st2" d="M148.5,79.9l0-9.9l13.1,0l0,3.6l-9.9,0l0,6.3L148.5,79.9z"/>
		<path class="st2" d="M150.1,98.2c-3.7-1.2-5.6-4.8-4.4-8.7c1.2-3.9,4.9-5.7,8.6-4.5c3.7,1.2,5.6,4.8,4.4,8.7
			C157.5,97.5,153.9,99.4,150.1,98.2z M153.3,88.5c-1.9-0.6-3.6,0.2-4.2,2c-0.6,1.8,0.3,3.5,2.2,4.1c1.9,0.6,3.6-0.2,4.2-2
			C156.1,90.8,155.2,89.1,153.3,88.5z"/>
		<path class="st2" d="M139.9,113.5c-1.5-1.4-1.7-3.3-0.5-5.2l-6-0.7l2.9-3l5.6,0.9l0.1-0.1l-3.4-3.2l2.5-2.6l9.5,9.1l-4.1,4.2
			C144.3,115.3,141.8,115.4,139.9,113.5z M145.9,109l-1.7-1.6l-1.6,1.6c-0.6,0.6-0.8,1.4-0.2,1.9c0.6,0.6,1.3,0.3,1.9-0.3L145.9,109
			z"/>
	</g>
	<path class="st2" d="M139,66.8c-3.8-22-22.4-37.2-44.8-42.5c-0.9-0.2-1.8-0.4-2.7-0.6c-8.1-1.6-16.7-1.9-25.1-0.7
		c-10,1.4-17.6,5.1-23.1,9.9c-5.4,4.7-11,12.7-15,21.7c-0.4,0.8-0.7,1.6-1,2.4c-3,7.4-5,15.4-4.8,22.8c0,0.3,0,0.6,0,0.9l0,0
		c0,0,0,35.1,43.8,49.7c0,0-4.2-6-4.2-15.7c6,1,12.4,1.4,18.7,1.4c1.3,0,2.7,0,4-0.1c3-0.1,6-0.3,8.9-0.6c19.9-2,36.4-10.1,43-24.8
		c0.3-0.8,0.7-1.6,0.9-2.4C139.9,82.2,140.5,75.1,139,66.8z"/>
	<path class="st1" d="M123.2,73.4c0.2-1.5,0.2-2.4,0.2-2.4l0,0c0.1-2.3-0.1-4.7-0.5-7.2c-2.7-15.8-16.1-26.8-32.2-30.6
		c-0.6-0.2-1.3-0.3-1.9-0.4c-5.8-1.1-12-1.3-18.1-0.5c-7.2,1-12.7,3.7-16.6,7.1C50.1,42.8,46,48.5,43.1,55c-0.3,0.6-0.5,1.1-0.7,1.7
		c-2.2,5.3-3.6,11.1-3.5,16.4c0,0.8,0.1,1.7,0.2,2.5c0,0.3,0.1,0.6,0.1,0.9c0.1,0.6,0.2,1.1,0.3,1.6c0.1,0.4,0.2,0.8,0.3,1.2
		c0.8,2.7,2.1,5.2,3.8,7.3c0.3,0.4,0.6,0.8,1,1.1c0.1,0.1,0.3,0.3,0.4,0.4c0.8,0.8,1.6,1.5,2.4,2.2c8.1,6.4,20.9,8.9,33.5,8.9
		c1,0,1.9,0,2.9-0.1c2.2-0.1,4.3-0.2,6.4-0.4c1.5-0.2,3.1-0.4,4.5-0.6c-0.6,5.4-2.9,8.7-2.9,8.7c19.9-6.6,27.3-19.2,30-27.5
		c0,0,0-0.1,0-0.1C122.5,77.4,122.9,75.5,123.2,73.4z"/>
</g>
</svg>
