<svg width="160" height="160" viewBox="0 0 160 160" fill="none" xmlns="http://www.w3.org/2000/svg">
<circle cx="80" cy="80" r="80" fill="white"/>
<path d="M129.344 128.305H31.0385V82.5423H51.3776L80.191 53.7288L109.005 82.5423H129.344V128.305Z" fill="#E6BE94"/>
<path d="M90.3605 107.966H70.0215V128.305H90.3605V107.966Z" fill="#996459"/>
<path d="M89.9367 101.186H70.4452C70.2111 101.186 70.0215 101.376 70.0215 101.61V107.966H90.3605V101.61C90.3605 101.376 90.1708 101.186 89.9367 101.186Z" fill="#4BB9EC"/>
<path d="M95.8341 40.1694L98.5966 36.0249C98.9426 35.5052 98.9756 34.8366 98.6809 34.2853C98.3862 33.7341 97.8121 33.3898 97.1864 33.3898H80.2373C79.3004 33.3898 78.5424 34.1478 78.5424 35.0847V45.2542C78.5424 46.191 79.3004 46.9491 80.2373 46.9491H97.1864C97.8121 46.9491 98.3864 46.6048 98.6811 46.0535C98.9758 45.5023 98.9426 44.8336 98.5968 44.3139L95.8341 40.1694Z" fill="#FF4F19"/>
<path d="M80.2373 55.4237C79.3004 55.4237 78.5424 54.6657 78.5424 53.7288V31.6949C78.5424 30.7581 79.3004 30 80.2373 30C81.1741 30 81.9322 30.7581 81.9322 31.6949V53.7288C81.9322 54.6657 81.1741 55.4237 80.2373 55.4237Z" fill="#5C546A"/>
<path d="M87.0998 61.5546C87.3612 60.9207 87.9803 60.5084 88.6657 60.5084H120.869C121.448 60.5084 121.988 60.8046 122.299 61.293L134.164 79.937C134.496 80.4601 134.516 81.1205 134.22 81.6633C133.922 82.2046 133.353 82.5421 132.733 82.5421H107.31C106.86 82.5421 106.429 82.3633 106.111 82.0455L87.4674 63.4014C86.9822 62.9167 86.8364 62.1885 87.0998 61.5546Z" fill="#FF4F19"/>
<path d="M73.3286 61.5546C73.067 60.9205 72.4479 60.5084 71.7627 60.5084H39.5593C38.9801 60.5084 38.4405 60.8046 38.1293 61.293L26.2649 79.937C25.9322 80.4601 25.9123 81.1205 26.2085 81.6633C26.5066 82.2046 27.0759 82.5423 27.6949 82.5423H53.1187C53.5689 82.5423 53.9992 82.3635 54.317 82.0457L72.961 63.4016C73.446 62.9167 73.5918 62.1885 73.3286 61.5546Z" fill="#FF4F19"/>
<path d="M109.028 84.2141C108.594 84.2141 108.16 84.0487 107.829 83.7175L80.2373 56.1256L52.6453 83.7175C51.9833 84.3796 50.9106 84.3796 50.2485 83.7175C49.5864 83.0555 49.5864 81.9828 50.2485 81.3207L79.039 52.5302C79.701 51.8682 80.7737 51.8682 81.4358 52.5302L110.226 81.3207C110.888 81.9828 110.888 83.0555 110.226 83.7175C109.895 84.0485 109.461 84.2141 109.028 84.2141Z" fill="#E3001E"/>
<path d="M80.2375 92.7119C85.8539 92.7119 90.407 88.1589 90.407 82.5424C90.407 76.926 85.8539 72.3729 80.2375 72.3729C74.621 72.3729 70.068 76.926 70.068 82.5424C70.068 88.1589 74.621 92.7119 80.2375 92.7119Z" fill="#FFEBB7"/>
<path d="M80.2373 75.7627C79.3004 75.7627 78.5424 76.5207 78.5424 77.4576V80.8474H75.1526C74.2157 80.8474 73.4576 81.6055 73.4576 82.5424C73.4576 83.4792 74.2157 84.2373 75.1526 84.2373H80.2373C81.1742 84.2373 81.9322 83.4792 81.9322 82.5424V77.4576C81.9322 76.5207 81.1742 75.7627 80.2373 75.7627Z" fill="#5C546A"/>
<path d="M105.614 93.5593C105.614 91.2191 103.717 89.322 101.377 89.322C99.0369 89.322 97.1399 91.2191 97.1399 93.5593C97.1399 93.8496 97.1698 94.1328 97.2253 94.4068H97.1399V101.186H105.614V94.4068H105.529C105.585 94.1328 105.614 93.8496 105.614 93.5593Z" fill="#4BB9EC"/>
<path d="M101.424 87.6271C98.153 87.6271 95.4916 90.2885 95.4916 93.5593V101.186C95.4916 102.123 96.2496 102.881 97.1865 102.881H105.661C106.598 102.881 107.356 102.123 107.356 101.186V93.5593C107.356 90.2885 104.695 87.6271 101.424 87.6271ZM101.424 91.0169C102.826 91.0169 103.966 92.1574 103.966 93.5593V94.4067H98.8814V93.5593C98.8814 92.1574 100.022 91.0169 101.424 91.0169ZM98.8814 99.4915V97.7966H103.966V99.4915H98.8814Z" fill="#7E5C62"/>
<path d="M63.2883 109.661H54.8137V119.831H63.2883V109.661Z" fill="#4BB9EC"/>
<path d="M63.2881 107.966H54.8136C53.8767 107.966 53.1187 108.724 53.1187 109.661V119.83C53.1187 120.767 53.8767 121.525 54.8136 121.525H63.2881C64.225 121.525 64.9831 120.767 64.9831 119.83V109.661C64.9831 108.724 64.225 107.966 63.2881 107.966ZM61.5932 111.356V113.051H56.5085V111.356H61.5932ZM56.5085 118.136V116.441H61.5932V118.136H56.5085Z" fill="#7E5C62"/>
<path d="M47.988 109.661H39.5134V119.831H47.988V109.661Z" fill="#4BB9EC"/>
<path d="M47.9876 107.966H39.513C38.5762 107.966 37.8181 108.724 37.8181 109.661V119.83C37.8181 120.767 38.5762 121.525 39.513 121.525H47.9876C48.9245 121.525 49.6825 120.767 49.6825 119.83V109.661C49.6825 108.724 48.9245 107.966 47.9876 107.966ZM46.2927 111.356V113.051H41.2079V111.356H46.2927ZM41.2079 118.136V116.441H46.2927V118.136H41.2079Z" fill="#7E5C62"/>
<path d="M120.915 109.661H112.441V119.831H120.915V109.661Z" fill="#4BB9EC"/>
<path d="M120.915 107.966H112.441C111.504 107.966 110.746 108.724 110.746 109.661V119.83C110.746 120.767 111.504 121.525 112.441 121.525H120.915C121.852 121.525 122.61 120.767 122.61 119.83V109.661C122.61 108.724 121.852 107.966 120.915 107.966ZM119.22 111.356V113.051H114.136V111.356H119.22ZM114.136 118.136V116.441H119.22V118.136H114.136Z" fill="#7E5C62"/>
<path d="M105.615 109.661H97.1401V119.831H105.615V109.661Z" fill="#4BB9EC"/>
<path d="M105.615 107.966H97.1401C96.2032 107.966 95.4452 108.724 95.4452 109.661V119.83C95.4452 120.767 96.2032 121.525 97.1401 121.525H105.615C106.552 121.525 107.31 120.767 107.31 119.83V109.661C107.31 108.724 106.552 107.966 105.615 107.966ZM103.92 111.356V113.051H98.835V111.356H103.92ZM98.835 118.136V116.441H103.92V118.136H98.835Z" fill="#7E5C62"/>
<path d="M120.823 93.5593C120.823 91.2191 118.926 89.322 116.586 89.322C114.245 89.322 112.348 91.2191 112.348 93.5593C112.348 93.8496 112.378 94.1328 112.434 94.4068H112.348V101.186H120.823V94.4068H120.738C120.793 94.1328 120.823 93.8496 120.823 93.5593Z" fill="#4BB9EC"/>
<path d="M116.632 87.6271C113.361 87.6271 110.699 90.2885 110.699 93.5593V101.186C110.699 102.123 111.458 102.881 112.394 102.881H120.869C121.806 102.881 122.564 102.123 122.564 101.186V93.5593C122.564 90.2885 119.902 87.6271 116.632 87.6271ZM116.632 91.0169C118.034 91.0169 119.174 92.1574 119.174 93.5593V94.4067H114.089V93.5593C114.089 92.1574 115.23 91.0169 116.632 91.0169ZM114.089 99.4915V97.7966H119.174V99.4915H114.089Z" fill="#7E5C62"/>
<path d="M47.9416 93.5593C47.9416 91.2191 46.0446 89.322 43.7043 89.322C41.3641 89.322 39.467 91.2191 39.467 93.5593C39.467 93.8496 39.4969 94.1328 39.5524 94.4068H39.467V101.186H47.9416V94.4068H47.8562C47.9117 94.1328 47.9416 93.8496 47.9416 93.5593Z" fill="#4BB9EC"/>
<path d="M43.7503 87.6271C40.4796 87.6271 37.8181 90.2885 37.8181 93.5593V101.186C37.8181 102.123 38.5762 102.881 39.513 102.881H47.9876C48.9245 102.881 49.6825 102.123 49.6825 101.186V93.5593C49.6825 90.2885 47.0211 87.6271 43.7503 87.6271ZM43.7503 91.0169C45.1522 91.0169 46.2927 92.1574 46.2927 93.5593V94.4067H41.2079V93.5593C41.2079 92.1574 42.3484 91.0169 43.7503 91.0169ZM41.2079 99.4915V97.7966H46.2927V99.4915H41.2079Z" fill="#7E5C62"/>
<path d="M63.1493 93.5593C63.1493 91.2191 61.2522 89.322 58.912 89.322C56.5717 89.322 54.6747 91.2191 54.6747 93.5593C54.6747 93.8496 54.7046 94.1328 54.7601 94.4068H54.6747V101.186H63.1493V94.4068H63.0639C63.1194 94.1328 63.1493 93.8496 63.1493 93.5593Z" fill="#4BB9EC"/>
<path d="M58.9582 87.6271C55.6874 87.6271 53.026 90.2885 53.026 93.5593V101.186C53.026 102.123 53.7841 102.881 54.7209 102.881H63.1955C64.1324 102.881 64.8904 102.123 64.8904 101.186V93.5593C64.8904 90.2885 62.2288 87.6271 58.9582 87.6271ZM58.9582 91.0169C60.3601 91.0169 61.5006 92.1574 61.5006 93.5593V94.4067H56.4158V93.5593C56.4158 92.1574 57.5561 91.0169 58.9582 91.0169ZM56.4158 99.4915V97.7966H61.5006V99.4915H56.4158Z" fill="#7E5C62"/>
<path d="M80.2373 94.4068C73.6952 94.4068 68.3729 89.0845 68.3729 82.5424C68.3729 76.0002 73.6952 70.678 80.2373 70.678C86.7795 70.678 92.1017 76.0002 92.1017 82.5424C92.1017 89.0845 86.7795 94.4068 80.2373 94.4068ZM80.2373 74.0678C75.5647 74.0678 71.7628 77.8693 71.7628 82.5424C71.7628 87.2155 75.5647 91.017 80.2373 91.017C84.91 91.017 88.7119 87.2155 88.7119 82.5424C88.7119 77.8693 84.91 74.0678 80.2373 74.0678Z" fill="#7E5C62"/>
<path d="M87.017 99.4916H73.4577C70.6539 99.4916 68.3729 101.773 68.3729 104.576V128.305C68.3729 129.242 69.131 130 70.0678 130C71.0047 130 71.7628 129.242 71.7628 128.305V109.661H78.496V128.305H81.8858V109.661H88.7119V128.305C88.7119 129.242 89.47 130 90.4068 130C91.3437 130 92.1017 129.242 92.1017 128.305V104.576C92.1017 101.773 89.8208 99.4916 87.017 99.4916ZM88.7119 106.271H71.7628V104.576C71.7628 103.641 72.5225 102.881 73.4577 102.881H87.017C87.9522 102.881 88.7119 103.641 88.7119 104.576V106.271Z" fill="#7E5C62"/>
<path d="M132.78 130H27.6949C26.7581 130 26 129.242 26 128.305C26 127.368 26.7581 126.61 27.6949 126.61H132.78C133.717 126.61 134.475 127.368 134.475 128.305C134.475 129.242 133.717 130 132.78 130Z" fill="#5C546A"/>
</svg>
