<svg width="160" height="160" viewBox="0 0 160 160" fill="none" xmlns="http://www.w3.org/2000/svg">
<circle cx="80" cy="80" r="80" fill="white"/>
<path d="M133.441 70.4777H109.118V65.7882C109.118 65.1005 108.743 64.4752 108.139 64.1417L82.0654 49.4898V42.0283H87.2134V44.8629C87.2134 45.905 88.068 46.7595 89.1101 46.7595H104.658C105.7 46.7595 106.555 45.905 106.555 44.8629C106.555 44.6336 106.513 44.4252 106.451 44.2168L104.887 39.7774L106.471 35.4423C106.826 34.4627 106.326 33.3581 105.325 33.0038C105.117 32.9204 104.908 32.8995 104.679 32.8995H97.5928V30.1276C97.5928 29.0855 96.7382 28.2309 95.6961 28.2309H82.0446V25.8966C82.0446 24.8545 81.1901 24 80.148 24C79.1059 24 78.2514 24.8545 78.2514 25.8966V49.4689L52.178 64.1C51.5736 64.4335 51.1984 65.0588 51.1984 65.7466V70.436H26.8966C25.8545 70.436 25 71.2905 25 72.3326V122.103C25 123.145 25.8545 124 26.8966 124H133.441C134.483 124 135.338 123.145 135.338 122.103V72.3743C135.358 71.3322 134.504 70.4777 133.441 70.4777ZM97.6344 40.1109L97.5511 40.0275V36.7762H101.886L101.115 39.2147C100.969 39.6315 100.969 40.1109 101.115 40.5277L102.011 42.9662H91.0484V42.0283H95.7378C96.7799 42.0283 97.6344 41.1738 97.6344 40.1109ZM82.0863 32.0242H93.8204V34.8587V38.2143H82.0863V32.0242ZM51.2401 120.228H28.8141V74.2918H51.2401V120.228ZM78.2722 120.228H68.2889V98.5102H78.2722V120.228ZM92.0696 120.228H82.0863V98.5102H92.0696V120.228ZM105.388 120.228H95.8837V96.6136C95.8837 95.5715 95.0292 94.717 93.9871 94.717H66.3923C65.3502 94.717 64.4956 95.5715 64.4956 96.6136V120.248H54.9917V66.9554L80.2105 52.762L105.346 66.872L105.429 72.3535V120.228H105.388ZM131.544 120.228H109.118V74.2918H131.544V120.228Z" fill="black"/>
<path d="M80.169 58.5977C75.7714 58.6185 72.1865 62.1825 72.1865 66.5802C72.2074 70.9778 75.7714 74.5418 80.169 74.5418C84.5667 74.5418 88.1307 70.957 88.1307 66.5593C88.1307 62.1408 84.5667 58.5977 80.169 58.5977ZM80.169 70.7277C77.8764 70.7069 76.0006 68.8519 76.0215 66.5385C76.0423 64.2458 77.8764 62.3909 80.169 62.3909C82.4825 62.4117 84.3374 64.2667 84.3374 66.5802H84.3583C84.3583 68.8728 82.4825 70.7486 80.169 70.7277Z" fill="black"/>
<path d="M37.2135 78.4814H33.3994V86.0888H37.2135V78.4814Z" fill="black"/>
<path d="M46.5924 78.4814H42.7783V86.0888H46.5924V78.4814Z" fill="black"/>
<path d="M68.3515 78.4814H60.7441V82.2955H68.3515V78.4814Z" fill="black"/>
<path d="M83.9828 78.4814H76.3755V82.2955H83.9828V78.4814Z" fill="black"/>
<path d="M99.5937 78.4814H91.9863V82.2955H99.5937V78.4814Z" fill="black"/>
<path d="M68.3515 87.3389H60.7441V91.153H68.3515V87.3389Z" fill="black"/>
<path d="M83.9828 87.3389H76.3755V91.153H83.9828V87.3389Z" fill="black"/>
<path d="M99.5937 87.3389H91.9863V91.153H99.5937V87.3389Z" fill="black"/>
<path d="M37.2135 93.4453H33.3994V101.053H37.2135V93.4453Z" fill="black"/>
<path d="M46.5924 93.4453H42.7783V101.053H46.5924V93.4453Z" fill="black"/>
<path d="M37.2135 108.431H33.3994V116.038H37.2135V108.431Z" fill="black"/>
<path d="M46.5924 108.431H42.7783V116.038H46.5924V108.431Z" fill="black"/>
<path d="M117.601 78.4814H113.787V86.0888H117.601V78.4814Z" fill="black"/>
<path d="M126.98 78.4814H123.166V86.0888H126.98V78.4814Z" fill="black"/>
<path d="M117.601 93.4453H113.787V101.053H117.601V93.4453Z" fill="black"/>
<path d="M126.98 93.4453H123.166V101.053H126.98V93.4453Z" fill="black"/>
<path d="M117.601 108.431H113.787V116.038H117.601V108.431Z" fill="black"/>
<path d="M126.98 108.431H123.166V116.038H126.98V108.431Z" fill="black"/>
</svg>
