<svg width="160" height="160" viewBox="0 0 160 160" fill="none" xmlns="http://www.w3.org/2000/svg">
<circle r="80" transform="matrix(-1 0 0 1 80 80)" fill="white"/>
<path d="M126.676 116.781V98.2831C126.676 97.3054 125.874 96.5037 124.896 96.5037H103.387V94.9589C103.387 90.3246 99.5933 86.5311 94.959 86.5311H82.3856C86.1596 84.165 89.1709 80.8017 91.1068 76.7736H91.6152C96.2496 76.7736 100.043 72.9801 100.043 68.3457V60.0352C100.063 43.4728 86.5898 30 70.0274 30C53.465 30 39.9727 43.4728 39.9727 60.0352V68.3457C39.9727 72.9801 43.7662 76.7736 48.4005 76.7736H48.9089C50.8448 80.8017 53.8561 84.165 57.6301 86.5311H45.0763C41.5957 86.5311 38.467 88.6821 37.2155 91.9085L33.3438 84.1846L33.3047 84.1259C33.0896 83.7348 32.7376 83.4415 32.3074 83.3047C31.8577 83.1482 31.3688 83.1873 30.9582 83.4024C30.528 83.6175 30.2151 83.9695 30.0783 84.4192C29.9414 84.8103 29.9609 85.221 30.0978 85.612V85.612L36.6485 98.7133V128.221C36.6485 129.198 37.4502 130 38.4279 130H124.896C127.712 130 130 127.712 130 124.896V121.572C130 119.441 128.651 117.524 126.676 116.781ZM120.008 120.027H124.877C125.737 120.027 126.422 120.731 126.422 121.572V124.896C126.422 125.757 125.718 126.441 124.877 126.441H120.008V120.027ZM123.117 100.063V116.469H118.248C117.27 116.469 116.469 117.27 116.469 118.248V126.461H103.387V100.063H123.117ZM93.4142 66.7032V63.8287C94.5679 64.2785 95.5065 65.1388 96.0345 66.273C96.6015 67.4462 96.6602 68.7759 96.23 70.0078C95.6434 71.6699 94.2159 72.8627 92.4952 73.1756C93.1013 71.0637 93.4142 68.8737 93.4142 66.7032ZM46.6211 63.8092V66.6836C46.6211 68.8737 46.934 71.0442 47.5401 73.156C45.2523 72.7454 43.5315 70.7118 43.5315 68.3653C43.5315 66.3512 44.7634 64.5522 46.6211 63.8092ZM46.6211 60.0352V60.1134C45.5065 60.3481 44.4506 60.8174 43.512 61.4822V60.0352C43.5315 45.4478 55.4205 33.5589 70.0274 33.5393C84.6148 33.5589 96.5038 45.4478 96.5233 60.0352V61.4822C95.6043 60.8174 94.5288 60.3481 93.4142 60.1134V60.0352C93.3946 50.8252 85.8858 43.2968 76.6758 43.2968C75.6981 43.2968 74.8964 44.0986 74.8964 45.0763C74.8964 52.3504 69.7146 58.2753 63.3595 58.2753H48.4005C47.4228 58.2753 46.6211 59.0575 46.6211 60.0352ZM73.4494 66.7032C73.4494 64.0047 75.6395 61.8342 78.3184 61.8342C80.9973 61.8342 83.1874 64.0242 83.1874 66.7032C83.1874 69.4016 80.9973 71.5722 78.3184 71.5722C75.6395 71.5722 73.4494 69.3821 73.4494 66.7032ZM76.6563 58.4318C73.1365 59.1553 70.5749 61.9711 70.0274 65.3344C70.0079 65.2366 69.9883 65.1388 69.9688 65.0215C69.6559 63.5354 68.9715 62.147 67.9351 61.0129C73.6058 58.9988 77.6927 53.5041 78.3575 46.9339C84.9277 47.7747 89.8553 53.3868 89.8749 60.0156V64.8846H86.5898C86.1205 62.7141 84.8495 60.8565 82.9918 59.6246C81.0951 58.4318 78.8659 57.982 76.6563 58.4318ZM61.6973 61.8146C64.3958 61.8146 66.5663 64.0047 66.5663 66.6836C66.5663 69.3821 64.3763 71.5526 61.6973 71.5526C58.9989 71.5526 56.8284 69.3625 56.8284 66.6836C56.8284 64.0047 59.0184 61.8146 61.6973 61.8146ZM53.465 68.463C53.9343 70.6336 55.2054 72.4912 57.0435 73.7231C58.9207 74.9746 61.1694 75.4048 63.379 74.955C66.8988 74.2315 69.4603 71.4157 70.0274 68.0524C70.047 68.1502 70.0665 68.2675 70.0861 68.3653C70.9074 72.3543 74.4271 75.1115 78.3379 75.1115C78.8855 75.1115 79.4525 75.0528 80.0196 74.9355C83.3047 74.2706 85.8663 71.7286 86.5702 68.463H89.7771C88.7994 79.3156 79.2179 87.3719 68.3458 86.4529C58.7056 85.6512 51.099 78.0837 50.2386 68.463H53.465V68.463ZM54.8338 61.8146C54.169 62.7337 53.6997 63.8092 53.465 64.9237H50.1799V61.8146H54.8338ZM55.0489 116.469H49.4955L40.1878 97.8725V94.9589C40.1878 92.28 42.3778 90.0899 45.0568 90.0899H56.5937V98.3027C56.5937 99.2804 57.3954 100.082 58.3731 100.082C58.7642 100.082 59.1358 99.9648 59.4291 99.7302L68.2284 93.1208V126.461H56.8088V118.248C56.8284 117.27 56.0266 116.469 55.0489 116.469ZM60.1526 94.7438V90.0899H66.3708L60.1526 94.7438ZM43.5511 126.441H40.2073V105.812L45.878 117.153C44.2941 118.052 43.3164 119.754 43.3164 121.572V124.896C43.2969 125.424 43.3751 125.952 43.5511 126.441ZM46.8557 124.896V121.572C46.8557 120.712 47.5597 120.027 48.4005 120.027H53.2695V126.461H48.4005C47.5401 126.441 46.8557 125.757 46.8557 124.896ZM99.8475 94.9589V96.5037H83.4416V90.0704H94.9785C97.6574 90.09 99.8475 92.28 99.8475 94.9589ZM99.8475 100.063V126.441H80.1174V100.063H99.8475ZM79.8827 90.0899V94.7438L73.684 90.0899H79.8827ZM77.0669 97.0512C76.7541 97.3837 76.5585 97.8138 76.5585 98.2831V126.441H71.7873V93.1013L77.0669 97.0512Z" fill="black"/>
</svg>
