<svg width="160" height="160" viewBox="0 0 160 160" fill="none" xmlns="http://www.w3.org/2000/svg">
<circle r="80" transform="matrix(-1 0 0 1 80 80)" fill="white"/>
<path d="M91.2022 90.9408H69.3292V111.252H91.2022V90.9408Z" fill="#FCB47E"/>
<path d="M86.5581 111.631C82.8014 114.02 80.3085 114.376 80.3085 114.376C80.3085 114.376 77.8161 114.02 74.0602 111.632C74.0602 111.632 71.803 105.913 72.4539 106.564C73.1048 107.215 80.3085 106.564 80.3085 106.564L86.5151 108.127L86.5581 111.631Z" fill="#4296D9"/>
<path d="M99.0141 98.7526L115.275 101.491C121.822 103.326 125.617 109.752 125.617 115.771V125.896C125.617 128.162 123.519 130 120.93 130H39.6871C37.0984 130 35 128.162 35 125.896V115.771C35 109.752 38.7946 103.326 45.3419 101.491L61.5174 98.7526L80.3085 106.564L99.0141 98.7526Z" fill="#996459"/>
<path d="M54.2516 99.9827C54.2759 100.033 54.2757 100.09 54.3054 100.138C66.1832 119.292 77.7468 121.825 79.0254 122.049L80.0371 122.227C80.1271 122.244 80.2171 122.252 80.3087 122.252C80.4003 122.252 80.4903 122.244 80.5804 122.227L81.592 122.049C82.8706 121.825 94.4342 119.292 106.312 100.138C106.34 100.092 106.339 100.038 106.362 99.9899L99.0145 98.7523L80.3089 106.564L61.5178 98.7523L54.2516 99.9827Z" fill="#7E5C62"/>
<path d="M66.2475 90.9408L60.3499 98.7526L69.8737 112.81C70.4241 113.623 71.5781 113.733 72.2719 113.039L80.3087 106.564L66.2475 90.9408Z" fill="#4BB9EC"/>
<path d="M94.3697 90.9408L100.267 98.7526L90.7435 112.81C90.1931 113.623 89.0391 113.733 88.3453 113.039L80.3085 106.564L94.3697 90.9408Z" fill="#4BB9EC"/>
<path d="M102.219 64.0916L99.0571 56.5688C99.0571 56.5688 85.3864 49.0173 63.1228 51.8817H63.08C59.0839 56.9256 56.8305 63.121 56.8305 70.6301C56.8305 86.1617 67.323 98.7526 80.266 98.7526C93.209 98.7526 103.701 86.1617 103.701 70.6301C103.701 68.1096 103.399 65.6789 102.881 63.3547C102.476 63.8067 102.219 64.0916 102.219 64.0916Z" fill="#FFDCAD"/>
<path d="M70.8915 76.8795C74.343 76.8795 77.141 74.0815 77.141 70.6301C77.141 67.1786 74.343 64.3806 70.8915 64.3806C67.44 64.3806 64.6421 67.1786 64.6421 70.6301C64.6421 74.0815 67.44 76.8795 70.8915 76.8795Z" fill="#AEEFFF"/>
<path d="M70.8915 64.3806C69.1769 64.3806 67.625 65.0733 66.496 66.1916L75.33 75.0256C76.4485 73.8964 77.141 72.3448 77.141 70.6301C77.141 67.1786 74.3432 64.3806 70.8915 64.3806Z" fill="white"/>
<path d="M89.6398 76.8795C93.0913 76.8795 95.8893 74.0815 95.8893 70.6301C95.8893 67.1786 93.0913 64.3806 89.6398 64.3806C86.1884 64.3806 83.3904 67.1786 83.3904 70.6301C83.3904 74.0815 86.1884 76.8795 89.6398 76.8795Z" fill="#AEEFFF"/>
<path d="M89.6827 64.3806C87.968 64.3806 86.4162 65.0733 85.2872 66.1916L94.1212 75.0256C95.2396 73.8964 95.9321 72.3448 95.9321 70.6301C95.9321 67.1786 93.1343 64.3806 89.6827 64.3806Z" fill="white"/>
<path d="M105.174 34.0657C104.893 33.4249 104.226 33.0527 103.523 33.1488C99.6076 33.7147 94.8609 32.7551 89.8397 31.7481C81.4176 30.0576 72.7133 28.3092 65.9084 33.164C65.8092 33.1441 65.7055 33.1335 65.5987 33.1335C58.6214 33.1335 53.7482 38.916 53.7482 47.1948C53.7482 53.937 56.7372 66.8312 56.8653 67.3774C57.0254 68.0625 57.6252 68.5568 58.3284 68.5828C58.3483 68.5843 58.3681 68.5843 58.3864 68.5843C59.0668 68.5843 59.6726 68.1418 59.8771 67.4889L64.3125 53.3101C82.9708 51.1542 95.3445 56.502 97.8392 57.7042L100.778 64.6981C101.031 65.2993 101.632 65.7143 102.287 65.6533C102.941 65.6244 103.507 65.1911 103.707 64.5669C108.39 49.8922 106.675 37.4771 105.174 34.0657Z" fill="#7E5C62"/>
<path d="M83.4332 72.1924C82.5696 72.1924 81.8709 71.4937 81.8709 70.6301C81.8709 69.768 81.1706 69.0677 80.3085 69.0677C79.4465 69.0677 78.7462 69.768 78.7462 70.6301C78.7462 71.4937 78.0474 72.1924 77.1838 72.1924C76.3202 72.1924 75.6214 71.4937 75.6214 70.6301C75.6214 68.0455 77.724 65.943 80.3085 65.943C82.8931 65.943 84.9956 68.0455 84.9956 70.6301C84.9956 71.4937 84.2968 72.1924 83.4332 72.1924Z" fill="#5C546A"/>
<path d="M64.6848 70.6301H56.8302C55.9666 70.6301 55.2679 69.9313 55.2679 69.0677C55.2679 68.2041 55.9666 67.5054 56.8302 67.5054H64.6848C65.5484 67.5054 66.2472 68.2041 66.2472 69.0677C66.2472 69.9313 65.5484 70.6301 64.6848 70.6301Z" fill="#5C546A"/>
<path d="M103.701 70.6301H95.9321C95.0685 70.6301 94.3698 69.9313 94.3698 69.0677C94.3698 68.2041 95.0685 67.5054 95.9321 67.5054H103.701C104.565 67.5054 105.264 68.2041 105.264 69.0677C105.264 69.9313 104.565 70.6301 103.701 70.6301Z" fill="#5C546A"/>
<path d="M70.9343 78.4419C66.6271 78.4419 63.1225 74.9373 63.1225 70.63C63.1225 66.3228 66.6271 62.8182 70.9343 62.8182C75.2416 62.8182 78.7462 66.3228 78.7462 70.63C78.7462 74.9373 75.2416 78.4419 70.9343 78.4419ZM70.9343 65.943C68.3498 65.943 66.2473 68.0455 66.2473 70.63C66.2473 73.2146 68.3498 75.3171 70.9343 75.3171C73.5189 75.3171 75.6214 73.2146 75.6214 70.63C75.6214 68.0455 73.5189 65.943 70.9343 65.943Z" fill="#868491"/>
<path d="M89.6827 78.4419C85.3754 78.4419 81.8708 74.9373 81.8708 70.63C81.8708 66.3228 85.3754 62.8182 89.6827 62.8182C93.9899 62.8182 97.4945 66.3228 97.4945 70.63C97.4945 74.9373 93.9899 78.4419 89.6827 78.4419ZM89.6827 65.943C87.0981 65.943 84.9956 68.0455 84.9956 70.63C84.9956 73.2146 87.0981 75.3171 89.6827 75.3171C92.2672 75.3171 94.3697 73.2146 94.3697 70.63C94.3697 68.0455 92.2672 65.943 89.6827 65.943Z" fill="#868491"/>
<path d="M50.6236 130V119.553C50.6236 115.797 49.1605 112.266 46.5056 109.611L40.7329 103.839C39.9048 104.486 39.1567 105.219 38.4987 106.023L44.2964 111.821C46.3623 113.887 47.4989 116.633 47.4989 119.553V130L50.6236 130Z" fill="#7E5C62"/>
<path d="M119.884 103.838L114.111 109.611C111.455 112.266 109.993 115.797 109.993 119.553V130H113.118V119.553C113.118 116.633 114.255 113.886 116.321 111.82L122.119 106.022C121.461 105.219 120.712 104.486 119.884 103.838Z" fill="#7E5C62"/>
</svg>
